<svg width="70" height="70" viewBox="0 0 70 70" fill="none" xmlns="http://www.w3.org/2000/svg">
<path fill-rule="evenodd" clip-rule="evenodd" d="M12.906 41.2279C12.1473 43.0504 11.7234 44.9949 11.6548 46.9679C11.7595 48.1847 12.1745 49.3543 12.8601 50.3651C14.1502 51.8587 15.7017 53.1048 17.4385 54.0422L28.656 61.5104C30.0364 62.6089 31.5884 63.4721 33.2498 64.0654C34.3285 64.3221 35.4524 64.3221 36.531 64.0654C38.2035 63.4794 39.768 62.6221 41.162 61.5279L52.4998 54.0554C54.2543 53.1152 55.8235 51.864 57.1307 50.3629C57.8212 49.3467 58.2358 48.1685 58.3338 46.9438C58.2594 44.9548 57.8243 42.9958 57.0498 41.1622L47.1339 9.95537C46.9125 8.9447 46.5125 7.98167 45.9526 7.11162C45.5448 6.61614 45.018 6.23228 44.4213 5.996C43.4245 5.72572 42.3874 5.63535 41.3588 5.72912H28.4482C27.4193 5.63559 26.3818 5.72821 25.3857 6.00256C24.7877 6.23836 24.2604 6.62406 23.8545 7.12256C23.297 7.99265 22.9006 8.9559 22.6842 9.96631L12.906 41.2279ZM41.8685 12.3529C42.3297 13.0861 42.6564 13.8958 42.8332 14.7438L51.347 42.7088C48.1492 41.0502 44.7168 39.8898 41.1685 39.2679L35.6363 20.5429C35.6023 20.4323 35.5423 20.3314 35.4613 20.2488C35.3803 20.1662 35.2807 20.1042 35.1708 20.068C35.0609 20.0318 34.9439 20.0224 34.8297 20.0407C34.7154 20.059 34.6072 20.1045 34.5142 20.1732C34.3892 20.2646 34.2978 20.3945 34.2538 20.5429L28.7851 39.2613C25.2201 39.8819 21.7717 41.0469 18.5607 42.7154L27.1095 14.7504C27.2845 13.9008 27.6121 13.09 28.0763 12.3572C28.4149 11.9417 28.8528 11.6182 29.3495 11.4166C30.1862 11.1904 31.0568 11.1163 31.9198 11.1979H38.0295C38.8932 11.1163 39.7645 11.1904 40.602 11.4166C41.1001 11.6188 41.5389 11.9439 41.8773 12.3616L41.8685 12.3529ZM35.2776 46.0688C37.9102 46.2212 40.5209 45.5125 42.7151 44.0497C42.9645 44.8349 43.0529 45.6623 42.9751 46.4825C42.8973 47.3026 42.6549 48.0986 42.2623 48.8229C41.4552 50.1947 40.2839 51.316 38.8782 52.0626C37.4038 52.9988 36.1351 53.8126 36.1351 55.9716C36.1333 56.6642 36.2896 57.348 36.5923 57.971C35.598 57.5581 34.7484 56.8598 34.1508 55.9643C33.5532 55.0688 33.2343 54.0163 33.2345 52.9397V52.8063C33.2345 51.3122 33.2345 49.4726 31.1301 49.4726C30.8367 49.4724 30.5462 49.5296 30.2748 49.641C29.7286 49.8671 29.2944 50.3006 29.0673 50.8463C28.9545 51.1174 28.8958 51.408 28.8945 51.7016C27.4521 50.1264 26.6773 48.0529 26.7332 45.9179C26.723 44.9938 26.8521 44.0735 27.116 43.1879C27.991 44.8438 31.316 46.0754 35.2776 46.0754V46.0688Z" fill="#8C8C8C"/>
</svg>
