<svg width="86" height="86" viewBox="0 0 86 86" fill="none" xmlns="http://www.w3.org/2000/svg">
<path d="M64.2503 7.58325H28.8337C25.0764 7.58325 21.4731 9.07581 18.8163 11.7326C16.1595 14.3893 14.667 17.9927 14.667 21.7499V64.2499C14.667 68.0071 16.1595 71.6105 18.8163 74.2673C21.4731 76.924 25.0764 78.4166 28.8337 78.4166H64.2503C66.1289 78.4166 67.9306 77.6703 69.259 76.3419C70.5874 75.0135 71.3337 73.2119 71.3337 71.3332V14.6666C71.3337 12.788 70.5874 10.9863 69.259 9.65791C67.9306 8.32953 66.1289 7.58325 64.2503 7.58325ZM21.7503 21.7499C21.7503 19.8713 22.4966 18.0696 23.825 16.7412C25.1534 15.4129 26.955 14.6666 28.8337 14.6666H64.2503V50.0833H28.8337C26.3369 50.0937 23.8895 50.779 21.7503 52.0666V21.7499ZM28.8337 71.3332C26.955 71.3332 25.1534 70.587 23.825 69.2586C22.4966 67.9302 21.7503 66.1285 21.7503 64.2499C21.7503 62.3713 22.4966 60.5696 23.825 59.2412C25.1534 57.9129 26.955 57.1666 28.8337 57.1666H64.2503V71.3332H28.8337ZM35.917 28.8333H50.0837C51.023 28.8333 51.9238 28.4601 52.588 27.7959C53.2522 27.1317 53.6253 26.2309 53.6253 25.2916C53.6253 24.3523 53.2522 23.4514 52.588 22.7872C51.9238 22.1231 51.023 21.7499 50.0837 21.7499H35.917C34.9777 21.7499 34.0768 22.1231 33.4127 22.7872C32.7485 23.4514 32.3753 24.3523 32.3753 25.2916C32.3753 26.2309 32.7485 27.1317 33.4127 27.7959C34.0768 28.4601 34.9777 28.8333 35.917 28.8333Z" fill="white"/>
</svg>
