<svg width="466" height="101" viewBox="0 0 466 101" fill="none" xmlns="http://www.w3.org/2000/svg">
<g opacity="0.05">
<mask id="path-1-outside-1_119_71" maskUnits="userSpaceOnUse" x="2" y="12" width="435" height="53" fill="black">
<rect fill="white" x="2" y="12" width="435" height="53"/>
<path d="M20.5455 62H4.04545V15.4545H20.6818C25.3636 15.4545 29.3939 16.3864 32.7727 18.25C36.1515 20.0985 38.75 22.7576 40.5682 26.2273C42.4015 29.697 43.3182 33.8485 43.3182 38.6818C43.3182 43.5303 42.4015 47.697 40.5682 51.1818C38.75 54.6667 36.1364 57.3409 32.7273 59.2045C29.3333 61.0682 25.2727 62 20.5455 62ZM13.8864 53.5682H20.1364C23.0455 53.5682 25.4924 53.053 27.4773 52.0227C29.4773 50.9773 30.9773 49.3636 31.9773 47.1818C32.9924 44.9848 33.5 42.1515 33.5 38.6818C33.5 35.2424 32.9924 32.4318 31.9773 30.25C30.9773 28.0682 29.4848 26.4621 27.5 25.4318C25.5152 24.4015 23.0682 23.8864 20.1591 23.8864H13.8864V53.5682ZM66.608 62V15.4545H97.9716V23.5682H76.4489V34.6591H96.358V42.7727H76.4489V53.8864H98.0625V62H66.608ZM147.045 28.8409C146.864 27.0076 146.083 25.5833 144.705 24.5682C143.326 23.553 141.455 23.0455 139.091 23.0455C137.485 23.0455 136.129 23.2727 135.023 23.7273C133.917 24.1667 133.068 24.7803 132.477 25.5682C131.902 26.3561 131.614 27.25 131.614 28.25C131.583 29.0833 131.758 29.8106 132.136 30.4318C132.53 31.053 133.068 31.5909 133.75 32.0455C134.432 32.4848 135.22 32.8712 136.114 33.2045C137.008 33.5227 137.962 33.7955 138.977 34.0227L143.159 35.0227C145.189 35.4773 147.053 36.0833 148.75 36.8409C150.447 37.5985 151.917 38.5303 153.159 39.6364C154.402 40.7424 155.364 42.0455 156.045 43.5455C156.742 45.0455 157.098 46.7652 157.114 48.7045C157.098 51.553 156.371 54.0227 154.932 56.1136C153.508 58.1894 151.447 59.803 148.75 60.9545C146.068 62.0909 142.833 62.6591 139.045 62.6591C135.288 62.6591 132.015 62.0833 129.227 60.9318C126.455 59.7803 124.288 58.0758 122.727 55.8182C121.182 53.5455 120.371 50.7348 120.295 47.3864H129.818C129.924 48.947 130.371 50.25 131.159 51.2955C131.962 52.3258 133.03 53.1061 134.364 53.6364C135.712 54.1515 137.235 54.4091 138.932 54.4091C140.598 54.4091 142.045 54.1667 143.273 53.6818C144.515 53.197 145.477 52.5227 146.159 51.6591C146.841 50.7955 147.182 49.803 147.182 48.6818C147.182 47.6364 146.871 46.7576 146.25 46.0455C145.644 45.3333 144.75 44.7273 143.568 44.2273C142.402 43.7273 140.97 43.2727 139.273 42.8636L134.205 41.5909C130.28 40.6364 127.182 39.1439 124.909 37.1136C122.636 35.0833 121.508 32.3485 121.523 28.9091C121.508 26.0909 122.258 23.6288 123.773 21.5227C125.303 19.4167 127.402 17.7727 130.068 16.5909C132.735 15.4091 135.765 14.8182 139.159 14.8182C142.614 14.8182 145.629 15.4091 148.205 16.5909C150.795 17.7727 152.811 19.4167 154.25 21.5227C155.689 23.6288 156.432 26.0682 156.477 28.8409H147.045ZM189.574 15.4545V62H179.733V15.4545H189.574ZM244.534 30.5C244.216 29.3939 243.769 28.4167 243.193 27.5682C242.617 26.7045 241.913 25.9773 241.08 25.3864C240.261 24.7803 239.322 24.3182 238.261 24C237.216 23.6818 236.057 23.5227 234.784 23.5227C232.405 23.5227 230.314 24.1136 228.511 25.2955C226.723 26.4773 225.33 28.197 224.33 30.4545C223.33 32.697 222.83 35.4394 222.83 38.6818C222.83 41.9242 223.322 44.6818 224.307 46.9545C225.292 49.2273 226.686 50.9621 228.489 52.1591C230.292 53.3409 232.42 53.9318 234.875 53.9318C237.102 53.9318 239.004 53.5379 240.58 52.75C242.17 51.947 243.383 50.8182 244.216 49.3636C245.064 47.9091 245.489 46.1894 245.489 44.2045L247.489 44.5H235.489V37.0909H254.966V42.9545C254.966 47.0455 254.102 50.5606 252.375 53.5C250.648 56.4242 248.269 58.6818 245.239 60.2727C242.208 61.8485 238.739 62.6364 234.83 62.6364C230.466 62.6364 226.633 61.6742 223.33 59.75C220.027 57.8106 217.451 55.0606 215.602 51.5C213.769 47.9242 212.852 43.6818 212.852 38.7727C212.852 35 213.398 31.6364 214.489 28.6818C215.595 25.7121 217.14 23.197 219.125 21.1364C221.11 19.0758 223.42 17.5076 226.057 16.4318C228.693 15.3561 231.549 14.8182 234.625 14.8182C237.261 14.8182 239.716 15.2045 241.989 15.9773C244.261 16.7348 246.277 17.8106 248.034 19.2045C249.807 20.5985 251.254 22.2576 252.375 24.1818C253.496 26.0909 254.216 28.197 254.534 30.5H244.534ZM317.29 15.4545V62H308.79L288.54 32.7045H288.199V62H278.358V15.4545H286.994L307.085 44.7273H307.494V15.4545H317.29ZM341.42 62V15.4545H372.784V23.5682H351.261V34.6591H371.17V42.7727H351.261V53.8864H372.875V62H341.42ZM396.608 62V15.4545H414.972C418.487 15.4545 421.487 16.0833 423.972 17.3409C426.472 18.5833 428.373 20.3485 429.676 22.6364C430.994 24.9091 431.653 27.5833 431.653 30.6591C431.653 33.75 430.987 36.4091 429.653 38.6364C428.32 40.8485 426.388 42.5455 423.858 43.7273C421.343 44.9091 418.297 45.5 414.722 45.5H402.426V37.5909H413.131C415.009 37.5909 416.57 37.3333 417.812 36.8182C419.055 36.303 419.979 35.5303 420.585 34.5C421.206 33.4697 421.517 32.1894 421.517 30.6591C421.517 29.1136 421.206 27.8106 420.585 26.75C419.979 25.6894 419.047 24.8864 417.79 24.3409C416.547 23.7803 414.979 23.5 413.085 23.5H406.449V62H396.608ZM421.744 40.8182L433.312 62H422.449L411.131 40.8182H421.744Z"/>
</mask>
<path d="M4.04545 62H2.04545V64H4.04545V62ZM4.04545 15.4545V13.4545H2.04545V15.4545H4.04545ZM32.7727 18.25L31.8068 20.0013L31.8128 20.0046L32.7727 18.25ZM40.5682 26.2273L38.7967 27.1556L38.7999 27.1616L40.5682 26.2273ZM40.5682 51.1818L38.7982 50.2506L38.795 50.2567L40.5682 51.1818ZM32.7273 59.2045L31.7679 57.4496L31.7646 57.4515L32.7273 59.2045ZM13.8864 53.5682H11.8864V55.5682H13.8864V53.5682ZM27.4773 52.0227L28.3987 53.7978L28.4038 53.7952L27.4773 52.0227ZM31.9773 47.1818L30.1617 46.3429L30.1591 46.3485L31.9773 47.1818ZM31.9773 30.25L30.1591 31.0833L30.1639 31.0937L31.9773 30.25ZM27.5 25.4318L28.4214 23.6567L27.5 25.4318ZM13.8864 23.8864V21.8864H11.8864V23.8864H13.8864ZM20.5455 60H4.04545V64H20.5455V60ZM6.04545 62V15.4545H2.04545V62H6.04545ZM4.04545 17.4545H20.6818V13.4545H4.04545V17.4545ZM20.6818 17.4545C25.0974 17.4545 28.7807 18.3322 31.8068 20.0013L33.7387 16.4987C30.0071 14.4405 25.6298 13.4545 20.6818 13.4545V17.4545ZM31.8128 20.0046C34.8393 21.6603 37.1583 24.029 38.7967 27.1556L42.3397 25.299C40.3417 21.4862 37.4638 18.5367 33.7326 16.4954L31.8128 20.0046ZM38.7999 27.1616C40.4497 30.2841 41.3182 34.0998 41.3182 38.6818H45.3182C45.3182 33.5972 44.3533 29.1098 42.3365 25.2929L38.7999 27.1616ZM41.3182 38.6818C41.3182 43.2798 40.4494 47.1119 38.7982 50.2506L42.3382 52.113C44.3536 48.282 45.3182 43.7808 45.3182 38.6818H41.3182ZM38.795 50.2567C37.1577 53.3949 34.8253 55.7783 31.7679 57.4496L33.6866 60.9594C37.4474 58.9035 40.3423 55.9385 42.3414 52.1069L38.795 50.2567ZM31.7646 57.4515C28.7242 59.121 25.0099 60 20.5455 60V64C25.5356 64 29.9425 63.0154 33.6899 60.9576L31.7646 57.4515ZM13.8864 55.5682H20.1364V51.5682H13.8864V55.5682ZM20.1364 55.5682C23.2729 55.5682 26.0566 55.0136 28.3987 53.7978L26.5558 50.2476C24.9283 51.0925 22.818 51.5682 20.1364 51.5682V55.5682ZM28.4038 53.7952C30.8228 52.5307 32.6231 50.5728 33.7954 48.0151L30.1591 46.3485C29.3314 48.1545 28.1317 49.4239 26.5508 50.2503L28.4038 53.7952ZM33.7928 48.0207C34.9703 45.4724 35.5 42.3248 35.5 38.6818H31.5C31.5 41.9782 31.0145 44.4973 30.1617 46.3429L33.7928 48.0207ZM35.5 38.6818C35.5 35.0671 34.9697 31.9406 33.7906 29.4063L30.1639 31.0937C31.0151 32.9231 31.5 35.4178 31.5 38.6818H35.5ZM33.7954 29.4167C32.6243 26.8615 30.8316 24.9078 28.4214 23.6567L26.5786 27.2069C28.1381 28.0164 29.3303 29.2749 30.1591 31.0833L33.7954 29.4167ZM28.4214 23.6567C26.0793 22.4409 23.2956 21.8864 20.1591 21.8864V25.8864C22.8407 25.8864 24.951 26.3621 26.5786 27.2069L28.4214 23.6567ZM20.1591 21.8864H13.8864V25.8864H20.1591V21.8864ZM11.8864 23.8864V53.5682H15.8864V23.8864H11.8864ZM66.608 62H64.608V64H66.608V62ZM66.608 15.4545V13.4545H64.608V15.4545H66.608ZM97.9716 15.4545H99.9716V13.4545H97.9716V15.4545ZM97.9716 23.5682V25.5682H99.9716V23.5682H97.9716ZM76.4489 23.5682V21.5682H74.4489V23.5682H76.4489ZM76.4489 34.6591H74.4489V36.6591H76.4489V34.6591ZM96.358 34.6591H98.358V32.6591H96.358V34.6591ZM96.358 42.7727V44.7727H98.358V42.7727H96.358ZM76.4489 42.7727V40.7727H74.4489V42.7727H76.4489ZM76.4489 53.8864H74.4489V55.8864H76.4489V53.8864ZM98.0625 53.8864H100.062V51.8864H98.0625V53.8864ZM98.0625 62V64H100.062V62H98.0625ZM68.608 62V15.4545H64.608V62H68.608ZM66.608 17.4545H97.9716V13.4545H66.608V17.4545ZM95.9716 15.4545V23.5682H99.9716V15.4545H95.9716ZM97.9716 21.5682H76.4489V25.5682H97.9716V21.5682ZM74.4489 23.5682V34.6591H78.4489V23.5682H74.4489ZM76.4489 36.6591H96.358V32.6591H76.4489V36.6591ZM94.358 34.6591V42.7727H98.358V34.6591H94.358ZM96.358 40.7727H76.4489V44.7727H96.358V40.7727ZM74.4489 42.7727V53.8864H78.4489V42.7727H74.4489ZM76.4489 55.8864H98.0625V51.8864H76.4489V55.8864ZM96.0625 53.8864V62H100.062V53.8864H96.0625ZM98.0625 60H66.608V64H98.0625V60ZM147.045 28.8409L145.055 29.0383L145.234 30.8409H147.045V28.8409ZM135.023 23.7273L135.761 25.586L135.772 25.5816L135.783 25.5772L135.023 23.7273ZM132.477 25.5682L130.877 24.3682L130.87 24.3781L130.862 24.3881L132.477 25.5682ZM131.614 28.25L133.612 28.3227L133.614 28.2864V28.25H131.614ZM132.136 30.4318L130.429 31.473L130.438 31.488L130.447 31.5029L132.136 30.4318ZM133.75 32.0455L132.641 33.7096L132.654 33.7182L132.667 33.7266L133.75 32.0455ZM136.114 33.2045L135.415 35.0785L135.429 35.0837L135.443 35.0887L136.114 33.2045ZM138.977 34.0227L139.442 32.0776L139.428 32.0742L139.414 32.071L138.977 34.0227ZM143.159 35.0227L142.694 36.9679L142.708 36.9712L142.722 36.9744L143.159 35.0227ZM148.75 36.8409L147.935 38.6672L148.75 36.8409ZM153.159 39.6364L154.489 38.1425L153.159 39.6364ZM156.045 43.5455L154.225 44.3731L154.228 44.3807L154.232 44.3882L156.045 43.5455ZM157.114 48.7045L159.114 48.7152L159.114 48.7021L159.114 48.6889L157.114 48.7045ZM154.932 56.1136L153.284 54.9796L153.283 54.9821L154.932 56.1136ZM148.75 60.9545L149.53 62.7961L149.535 62.7939L148.75 60.9545ZM129.227 60.9318L128.46 62.7789L128.464 62.7803L129.227 60.9318ZM122.727 55.8182L121.073 56.9428L121.078 56.9491L121.082 56.9555L122.727 55.8182ZM120.295 47.3864V45.3864H118.25L118.296 47.4316L120.295 47.3864ZM129.818 47.3864L131.814 47.2508L131.687 45.3864H129.818V47.3864ZM131.159 51.2955L129.562 52.4992L129.572 52.5121L129.582 52.5249L131.159 51.2955ZM134.364 53.6364L133.624 55.4948L133.637 55.4998L133.65 55.5047L134.364 53.6364ZM143.273 53.6818L142.546 51.8186L142.538 51.8217L143.273 53.6818ZM146.159 51.6591L147.729 52.8984L146.159 51.6591ZM146.25 46.0455L144.727 47.3417L144.735 47.351L144.743 47.3602L146.25 46.0455ZM143.568 44.2273L142.78 46.0656L142.789 46.0692L143.568 44.2273ZM139.273 42.8636L138.786 44.8034L138.795 44.8057L138.804 44.8079L139.273 42.8636ZM134.205 41.5909L134.692 39.6511L134.684 39.6493L134.677 39.6476L134.205 41.5909ZM124.909 37.1136L123.577 38.6052L124.909 37.1136ZM121.523 28.9091L123.523 28.9179L123.523 28.9081L123.523 28.8983L121.523 28.9091ZM123.773 21.5227L122.155 20.3471L122.149 20.3547L123.773 21.5227ZM148.205 16.5909L147.37 18.4087L147.375 18.4105L148.205 16.5909ZM154.25 21.5227L152.599 22.6512V22.6512L154.25 21.5227ZM156.477 28.8409V30.8409H158.51L158.477 28.8081L156.477 28.8409ZM149.036 28.6435C148.803 26.2946 147.763 24.3363 145.89 22.9576L143.519 26.1787C144.404 26.8303 144.925 27.7205 145.055 29.0383L149.036 28.6435ZM145.89 22.9576C144.059 21.6092 141.722 21.0455 139.091 21.0455V25.0455C141.187 25.0455 142.593 25.4968 143.519 26.1787L145.89 22.9576ZM139.091 21.0455C137.308 21.0455 135.677 21.296 134.262 21.8774L135.783 25.5772C136.58 25.2494 137.661 25.0455 139.091 25.0455V21.0455ZM134.284 21.8686C132.908 22.4155 131.731 23.2294 130.877 24.3682L134.077 26.7682C134.405 26.3312 134.926 25.9178 135.761 25.586L134.284 21.8686ZM130.862 24.3881C130.03 25.5275 129.614 26.837 129.614 28.25H133.614C133.614 27.663 133.773 27.1846 134.092 26.7482L130.862 24.3881ZM129.615 28.1773C129.573 29.3436 129.817 30.4701 130.429 31.473L133.844 29.3906C133.698 29.1511 133.594 28.8231 133.612 28.3227L129.615 28.1773ZM130.447 31.5029C131.007 32.3857 131.753 33.1177 132.641 33.7096L134.859 30.3814C134.383 30.0641 134.053 29.7204 133.825 29.3607L130.447 31.5029ZM132.667 33.7266C133.488 34.2561 134.409 34.7035 135.415 35.0785L136.812 31.3306C136.03 31.039 135.375 30.7136 134.833 30.3643L132.667 33.7266ZM135.443 35.0887C136.42 35.4366 137.453 35.7311 138.54 35.9744L139.414 32.071C138.471 31.8598 137.595 31.6089 136.784 31.3203L135.443 35.0887ZM138.512 35.9679L142.694 36.9679L143.624 33.0776L139.442 32.0776L138.512 35.9679ZM142.722 36.9744C144.638 37.4033 146.373 37.9699 147.935 38.6672L149.565 35.0146C147.733 34.1968 145.741 33.5513 143.596 33.071L142.722 36.9744ZM147.935 38.6672C149.466 39.3507 150.757 40.1757 151.829 41.1302L154.489 38.1425C153.076 36.8849 151.428 35.8462 149.565 35.0146L147.935 38.6672ZM151.829 41.1302C152.865 42.0526 153.659 43.1294 154.225 44.3731L157.866 42.7178C157.068 40.9615 155.938 39.4322 154.489 38.1425L151.829 41.1302ZM154.232 44.3882C154.789 45.588 155.1 47.0178 155.114 48.7202L159.114 48.6889C159.097 46.5125 158.696 44.5029 157.859 42.7027L154.232 44.3882ZM155.114 48.6939C155.1 51.1919 154.469 53.2588 153.284 54.9796L156.579 57.2477C158.273 54.7866 159.097 51.9142 159.114 48.7152L155.114 48.6939ZM153.283 54.9821C152.107 56.6959 150.371 58.0877 147.965 59.1152L149.535 62.7939C152.523 61.5183 154.908 59.6829 156.581 57.2452L153.283 54.9821ZM147.97 59.113C145.597 60.1185 142.642 60.6591 139.045 60.6591V64.6591C143.025 64.6591 146.54 64.0633 149.53 62.796L147.97 59.113ZM139.045 60.6591C135.488 60.6591 132.485 60.1135 129.991 59.0833L128.464 62.7803C131.545 64.0532 135.088 64.6591 139.045 64.6591V60.6591ZM129.994 59.0848C127.542 58.0662 125.694 56.593 124.372 54.6809L121.082 56.9555C122.882 59.5586 125.367 61.4944 128.46 62.7789L129.994 59.0848ZM124.381 54.6936C123.096 52.8034 122.364 50.3889 122.295 47.3411L118.296 47.4316C118.379 51.0808 119.268 54.2875 121.073 56.9428L124.381 54.6936ZM120.295 49.3864H129.818V45.3864H120.295V49.3864ZM127.823 47.522C127.95 49.3932 128.498 51.0878 129.562 52.4992L132.756 50.0918C132.244 49.4122 131.899 48.5007 131.814 47.2508L127.823 47.522ZM129.582 52.5249C130.624 53.8628 131.994 54.8464 133.624 55.4948L135.103 51.778C134.066 51.3657 133.3 50.7887 132.737 50.066L129.582 52.5249ZM133.65 55.5047C135.262 56.1207 137.033 56.4091 138.932 56.4091V52.4091C137.437 52.4091 136.162 52.1823 135.077 51.7681L133.65 55.5047ZM138.932 56.4091C140.787 56.4091 142.494 56.14 144.008 55.5419L142.538 51.8217C141.597 52.1933 140.41 52.4091 138.932 52.4091V56.4091ZM144 55.545C145.503 54.9582 146.784 54.095 147.729 52.8984L144.589 50.4198C144.17 50.9505 143.527 51.4357 142.546 51.8187L144 55.545ZM147.729 52.8984C148.695 51.6746 149.182 50.2435 149.182 48.6818H145.182C145.182 49.3626 144.987 49.9163 144.589 50.4198L147.729 52.8984ZM149.182 48.6818C149.182 47.2082 148.731 45.8467 147.757 44.7307L144.743 47.3602C145.012 47.6685 145.182 48.0645 145.182 48.6818H149.182ZM147.773 44.7492C146.904 43.7282 145.715 42.964 144.347 42.3853L142.789 46.0692C143.785 46.4906 144.384 46.9384 144.727 47.3417L147.773 44.7492ZM144.356 42.389C143.056 41.8318 141.51 41.3457 139.741 40.9193L138.804 44.8079C140.429 45.1997 141.747 45.6227 142.78 46.0656L144.356 42.389ZM139.76 40.9239L134.692 39.6511L133.717 43.5307L138.786 44.8034L139.76 40.9239ZM134.677 39.6476C130.972 38.7464 128.202 37.3739 126.242 35.6221L123.577 38.6052C126.161 40.914 129.588 42.5263 133.732 43.5342L134.677 39.6476ZM126.242 35.6221C124.453 34.0247 123.51 31.8666 123.523 28.9179L119.523 28.9003C119.505 32.8304 120.819 36.142 123.577 38.6052L126.242 35.6221ZM123.523 28.8983C123.51 26.4645 124.15 24.4236 125.396 22.6907L122.149 20.3547C120.366 22.834 119.506 25.7173 119.523 28.9198L123.523 28.8983ZM125.391 22.6984C126.69 20.9104 128.494 19.4761 130.879 18.4194L129.258 14.7624C126.309 16.0694 123.916 17.923 122.155 20.3471L125.391 22.6984ZM130.879 18.4194C133.252 17.3677 135.999 16.8182 139.159 16.8182V12.8182C135.531 12.8182 132.218 13.4505 129.258 14.7624L130.879 18.4194ZM139.159 16.8182C142.387 16.8182 145.107 17.3703 147.37 18.4087L149.039 14.7731C146.15 13.4479 142.84 12.8182 139.159 12.8182V16.8182ZM147.375 18.4105C149.673 19.4592 151.388 20.8801 152.599 22.6512L155.901 20.3942C154.233 17.9532 151.917 16.0863 149.035 14.7713L147.375 18.4105ZM152.599 22.6512C153.798 24.4059 154.438 26.4569 154.478 28.8737L158.477 28.8081C158.426 25.6795 157.581 22.8517 155.901 20.3942L152.599 22.6512ZM156.477 26.8409H147.045V30.8409H156.477V26.8409ZM189.574 15.4545H191.574V13.4545H189.574V15.4545ZM189.574 62V64H191.574V62H189.574ZM179.733 62H177.733V64H179.733V62ZM179.733 15.4545V13.4545H177.733V15.4545H179.733ZM187.574 15.4545V62H191.574V15.4545H187.574ZM189.574 60H179.733V64H189.574V60ZM181.733 62V15.4545H177.733V62H181.733ZM179.733 17.4545H189.574V13.4545H179.733V17.4545ZM244.534 30.5L242.612 31.0529L243.028 32.5H244.534V30.5ZM243.193 27.5682L241.529 28.6776L241.534 28.6844L241.538 28.6912L243.193 27.5682ZM241.08 25.3864L239.889 26.9935L239.906 27.0058L239.923 27.0178L241.08 25.3864ZM238.261 24L237.679 25.9134L237.687 25.9157L238.261 24ZM228.511 25.2955L227.415 23.6227L227.408 23.627L228.511 25.2955ZM224.33 30.4545L226.156 31.2691L226.158 31.2645L224.33 30.4545ZM228.489 52.1591L227.382 53.8254L227.392 53.8318L228.489 52.1591ZM240.58 52.75L241.474 54.5389L241.481 54.5354L240.58 52.75ZM244.216 49.3636L242.488 48.3559L242.484 48.3626L242.481 48.3694L244.216 49.3636ZM245.489 44.2045L245.781 42.226L243.489 41.8874V44.2045H245.489ZM247.489 44.5V46.5L247.781 42.5215L247.489 44.5ZM235.489 44.5H233.489V46.5H235.489V44.5ZM235.489 37.0909V35.0909H233.489V37.0909H235.489ZM254.966 37.0909H256.966V35.0909H254.966V37.0909ZM252.375 53.5L254.097 54.5172L254.099 54.5133L252.375 53.5ZM245.239 60.2727L246.161 62.0472L246.168 62.0435L245.239 60.2727ZM223.33 59.75L222.317 61.4747L222.323 61.4781L223.33 59.75ZM215.602 51.5L213.823 52.4125L213.827 52.4215L215.602 51.5ZM214.489 28.6818L212.614 27.9838L212.612 27.9891L214.489 28.6818ZM219.125 21.1364L220.565 22.5239V22.5238L219.125 21.1364ZM226.057 16.4318L225.301 14.58L226.057 16.4318ZM241.989 15.9773L241.345 17.8709L241.356 17.8746L241.989 15.9773ZM248.034 19.2045L246.791 20.7716L246.798 20.7767L248.034 19.2045ZM252.375 24.1818L250.647 25.1887L250.65 25.1947L252.375 24.1818ZM254.534 30.5V32.5H256.829L256.515 30.2263L254.534 30.5ZM246.456 29.9471C246.087 28.6626 245.556 27.4883 244.848 26.4452L241.538 28.6912C241.982 29.345 242.345 30.1253 242.612 31.0529L246.456 29.9471ZM244.857 26.4588C244.148 25.3949 243.273 24.4896 242.236 23.7549L239.923 27.0178C240.553 27.4649 241.087 28.0142 241.529 28.6776L244.857 26.4588ZM242.27 23.7793C241.25 23.0239 240.099 22.4632 238.836 22.0843L237.687 25.9157C238.545 26.1732 239.272 26.5367 239.889 26.9935L242.27 23.7793ZM238.844 22.0867C237.581 21.7025 236.222 21.5227 234.784 21.5227V25.5227C235.891 25.5227 236.85 25.6612 237.679 25.9133L238.844 22.0867ZM234.784 21.5227C232.058 21.5227 229.577 22.2056 227.415 23.6228L229.608 26.9682C231.052 26.0217 232.753 25.5227 234.784 25.5227V21.5227ZM227.408 23.627C225.255 25.0503 223.632 27.0917 222.501 29.6445L226.158 31.2645C227.027 29.3022 228.192 27.9042 229.614 26.9639L227.408 23.627ZM222.503 29.64C221.358 32.2069 220.83 35.2444 220.83 38.6818H224.83C224.83 35.6344 225.301 33.187 226.156 31.2691L222.503 29.64ZM220.83 38.6818C220.83 42.1172 221.35 45.1613 222.472 47.7498L226.142 46.1593C225.294 44.2023 224.83 41.7313 224.83 38.6818H220.83ZM222.472 47.7498C223.587 50.3245 225.213 52.3849 227.382 53.8253L229.595 50.4928C228.158 49.5393 226.996 48.13 226.142 46.1593L222.472 47.7498ZM227.392 53.8318C229.565 55.2557 232.086 55.9318 234.875 55.9318V51.9318C232.754 51.9318 231.019 51.4261 229.585 50.4864L227.392 53.8318ZM234.875 55.9318C237.333 55.9318 239.557 55.4974 241.474 54.5389L239.685 50.9611C238.451 51.5784 236.872 51.9318 234.875 51.9318V55.9318ZM241.481 54.5354C243.398 53.5677 244.911 52.1739 245.951 50.3579L242.481 48.3694C241.854 49.4624 240.943 50.3263 239.678 50.9646L241.481 54.5354ZM245.943 50.3714C247 48.5602 247.489 46.4798 247.489 44.2045H243.489C243.489 45.899 243.129 47.2579 242.488 48.3559L245.943 50.3714ZM245.196 46.1831L247.196 46.4785L247.781 42.5215L245.781 42.226L245.196 46.1831ZM247.489 42.5H235.489V46.5H247.489V42.5ZM237.489 44.5V37.0909H233.489V44.5H237.489ZM235.489 39.0909H254.966V35.0909H235.489V39.0909ZM252.966 37.0909V42.9545H256.966V37.0909H252.966ZM252.966 42.9545C252.966 46.7606 252.164 49.9107 250.651 52.4867L254.099 54.5133C256.04 51.2105 256.966 47.3303 256.966 42.9545H252.966ZM250.653 52.4828C249.116 55.0845 247.013 57.0823 244.309 58.5019L246.168 62.0435C249.525 60.2813 252.179 57.764 254.097 54.5172L250.653 52.4828ZM244.316 58.4983C241.609 59.9057 238.464 60.6364 234.83 60.6364V64.6364C239.013 64.6364 242.807 63.7913 246.161 62.0472L244.316 58.4983ZM234.83 60.6364C230.769 60.6364 227.293 59.7441 224.336 58.0219L222.323 61.4781C225.973 63.6044 230.163 64.6364 234.83 64.6364V60.6364ZM224.342 58.0253C221.38 56.2858 219.061 53.8216 217.377 50.5785L213.827 52.4215C215.841 56.2996 218.673 59.3354 222.317 61.4747L224.342 58.0253ZM217.382 50.5875C215.722 47.35 214.852 43.4338 214.852 38.7727H210.852C210.852 43.9298 211.816 48.4985 213.823 52.4125L217.382 50.5875ZM214.852 38.7727C214.852 35.1909 215.37 32.0683 216.365 29.3746L212.612 27.9891C211.425 31.2044 210.852 34.8091 210.852 38.7727H214.852ZM216.363 29.3799C217.384 26.6395 218.791 24.3665 220.565 22.5239L217.685 19.7489C215.49 22.0274 213.806 24.7847 212.614 27.9838L216.363 29.3799ZM220.565 22.5238C222.358 20.6631 224.435 19.2535 226.812 18.2836L225.301 14.58C222.405 15.7617 219.862 17.4885 217.685 19.7489L220.565 22.5238ZM226.812 18.2836C229.19 17.3133 231.787 16.8182 234.625 16.8182V12.8182C231.311 12.8182 228.196 13.3988 225.301 14.58L226.812 18.2836ZM234.625 16.8182C237.064 16.8182 239.299 17.1752 241.345 17.8708L242.632 14.0837C240.133 13.2339 237.459 12.8182 234.625 12.8182V16.8182ZM241.356 17.8746C243.423 18.5635 245.228 19.532 246.791 20.7715L249.277 17.6375C247.325 16.0892 245.1 14.9062 242.621 14.0799L241.356 17.8746ZM246.798 20.7767C248.375 22.0169 249.654 23.485 250.647 25.1887L254.103 23.1749C252.853 21.0302 251.239 19.1801 249.27 17.6324L246.798 20.7767ZM250.65 25.1947C251.632 26.8654 252.269 28.7183 252.553 30.7737L256.515 30.2263C256.163 27.6757 255.361 25.3164 254.1 23.169L250.65 25.1947ZM254.534 28.5H244.534V32.5H254.534V28.5ZM317.29 15.4545H319.29V13.4545H317.29V15.4545ZM317.29 62V64H319.29V62H317.29ZM308.79 62L307.145 63.1372L307.741 64H308.79V62ZM288.54 32.7045L290.185 31.5673L289.589 30.7045H288.54V32.7045ZM288.199 32.7045V30.7045H286.199V32.7045H288.199ZM288.199 62V64H290.199V62H288.199ZM278.358 62H276.358V64H278.358V62ZM278.358 15.4545V13.4545H276.358V15.4545H278.358ZM286.994 15.4545L288.643 14.3228L288.047 13.4545H286.994V15.4545ZM307.085 44.7273L305.436 45.859L306.032 46.7273H307.085V44.7273ZM307.494 44.7273V46.7273H309.494V44.7273H307.494ZM307.494 15.4545V13.4545H305.494V15.4545H307.494ZM315.29 15.4545V62H319.29V15.4545H315.29ZM317.29 60H308.79V64H317.29V60ZM310.435 60.8628L290.185 31.5673L286.895 33.8418L307.145 63.1372L310.435 60.8628ZM288.54 30.7045H288.199V34.7045H288.54V30.7045ZM286.199 32.7045V62H290.199V32.7045H286.199ZM288.199 60H278.358V64H288.199V60ZM280.358 62V15.4545H276.358V62H280.358ZM278.358 17.4545H286.994V13.4545H278.358V17.4545ZM285.345 16.5863L305.436 45.859L308.734 43.5955L288.643 14.3228L285.345 16.5863ZM307.085 46.7273H307.494V42.7273H307.085V46.7273ZM309.494 44.7273V15.4545H305.494V44.7273H309.494ZM307.494 17.4545H317.29V13.4545H307.494V17.4545ZM341.42 62H339.42V64H341.42V62ZM341.42 15.4545V13.4545H339.42V15.4545H341.42ZM372.784 15.4545H374.784V13.4545H372.784V15.4545ZM372.784 23.5682V25.5682H374.784V23.5682H372.784ZM351.261 23.5682V21.5682H349.261V23.5682H351.261ZM351.261 34.6591H349.261V36.6591H351.261V34.6591ZM371.17 34.6591H373.17V32.6591H371.17V34.6591ZM371.17 42.7727V44.7727H373.17V42.7727H371.17ZM351.261 42.7727V40.7727H349.261V42.7727H351.261ZM351.261 53.8864H349.261V55.8864H351.261V53.8864ZM372.875 53.8864H374.875V51.8864H372.875V53.8864ZM372.875 62V64H374.875V62H372.875ZM343.42 62V15.4545H339.42V62H343.42ZM341.42 17.4545H372.784V13.4545H341.42V17.4545ZM370.784 15.4545V23.5682H374.784V15.4545H370.784ZM372.784 21.5682H351.261V25.5682H372.784V21.5682ZM349.261 23.5682V34.6591H353.261V23.5682H349.261ZM351.261 36.6591H371.17V32.6591H351.261V36.6591ZM369.17 34.6591V42.7727H373.17V34.6591H369.17ZM371.17 40.7727H351.261V44.7727H371.17V40.7727ZM349.261 42.7727V53.8864H353.261V42.7727H349.261ZM351.261 55.8864H372.875V51.8864H351.261V55.8864ZM370.875 53.8864V62H374.875V53.8864H370.875ZM372.875 60H341.42V64H372.875V60ZM396.608 62H394.608V64H396.608V62ZM396.608 15.4545V13.4545H394.608V15.4545H396.608ZM423.972 17.3409L423.068 19.1254L423.075 19.1287L423.082 19.1319L423.972 17.3409ZM429.676 22.6364L427.938 23.6262L427.942 23.633L427.946 23.6398L429.676 22.6364ZM429.653 38.6364L431.366 39.6688L431.369 39.6636L429.653 38.6364ZM423.858 43.7273L423.012 41.9152L423.007 41.9171L423.858 43.7273ZM402.426 45.5H400.426V47.5H402.426V45.5ZM402.426 37.5909V35.5909H400.426V37.5909H402.426ZM417.812 36.8182L418.579 38.6657V38.6657L417.812 36.8182ZM420.585 34.5L418.872 33.4673L418.867 33.4766L418.861 33.486L420.585 34.5ZM420.585 26.75L418.849 27.7423L418.854 27.7516L418.859 27.7608L420.585 26.75ZM417.79 24.3409L416.967 26.1639L416.981 26.1699L416.994 26.1758L417.79 24.3409ZM406.449 23.5V21.5H404.449V23.5H406.449ZM406.449 62V64H408.449V62H406.449ZM421.744 40.8182L423.5 39.8596L422.931 38.8182H421.744V40.8182ZM433.312 62V64H436.684L435.068 61.0414L433.312 62ZM422.449 62L420.685 62.9426L421.25 64H422.449V62ZM411.131 40.8182V38.8182H407.794L409.367 41.7607L411.131 40.8182ZM398.608 62V15.4545H394.608V62H398.608ZM396.608 17.4545H414.972V13.4545H396.608V17.4545ZM414.972 17.4545C418.253 17.4545 420.927 18.0417 423.068 19.1254L424.875 15.5564C422.046 14.1249 418.72 13.4545 414.972 13.4545V17.4545ZM423.082 19.1319C425.248 20.2087 426.844 21.705 427.938 23.6262L431.414 21.6466C429.902 18.992 427.695 16.958 424.862 15.5499L423.082 19.1319ZM427.946 23.6398C429.059 25.5591 429.653 27.8751 429.653 30.6591H433.653C433.653 27.2916 432.929 24.259 431.406 21.6329L427.946 23.6398ZM429.653 30.6591C429.653 33.4576 429.052 35.7469 427.937 37.6091L431.369 39.6636C432.921 37.0713 433.653 34.0424 433.653 30.6591H429.653ZM427.94 37.6039C426.829 39.4481 425.213 40.8871 423.012 41.9152L424.704 45.5394C427.564 44.2038 429.811 42.2489 431.366 39.6688L427.94 37.6039ZM423.007 41.9171C420.823 42.9434 418.085 43.5 414.722 43.5V47.5C418.51 47.5 421.862 46.8747 424.708 45.5374L423.007 41.9171ZM414.722 43.5H402.426V47.5H414.722V43.5ZM404.426 45.5V37.5909H400.426V45.5H404.426ZM402.426 39.5909H413.131V35.5909H402.426V39.5909ZM413.131 39.5909C415.175 39.5909 417.017 39.313 418.579 38.6657L417.046 34.9707C416.123 35.3537 414.844 35.5909 413.131 35.5909V39.5909ZM418.579 38.6657C420.17 38.006 421.455 36.9652 422.309 35.514L418.861 33.486C418.503 34.0954 417.94 34.6001 417.046 34.9707L418.579 38.6657ZM422.298 35.5327C423.152 34.1165 423.517 32.4557 423.517 30.6591H419.517C419.517 31.9231 419.261 32.8228 418.872 33.4673L422.298 35.5327ZM423.517 30.6591C423.517 28.8486 423.152 27.1759 422.311 25.7392L418.859 27.7608C419.26 28.4453 419.517 29.3787 419.517 30.6591H423.517ZM422.322 25.7577C421.475 24.2767 420.189 23.2014 418.586 22.5061L416.994 26.1758C417.906 26.5713 418.483 27.1021 418.849 27.7423L422.322 25.7577ZM418.612 22.5179C417.031 21.8045 415.159 21.5 413.085 21.5V25.5C414.799 25.5 416.063 25.7561 416.967 26.1639L418.612 22.5179ZM413.085 21.5H406.449V25.5H413.085V21.5ZM404.449 23.5V62H408.449V23.5H404.449ZM406.449 60H396.608V64H406.449V60ZM419.989 41.7768L431.557 62.9586L435.068 61.0414L423.5 39.8596L419.989 41.7768ZM433.312 60H422.449V64H433.312V60ZM424.213 61.0574L412.895 39.8756L409.367 41.7607L420.685 62.9426L424.213 61.0574ZM411.131 42.8182H421.744V38.8182H411.131V42.8182Z" fill="#4AD66D" mask="url(#path-1-outside-1_119_71)"/>
</g>
</svg>
