<svg width="555" height="77" viewBox="0 0 555 77" fill="none" xmlns="http://www.w3.org/2000/svg">
<g opacity="0.05">
<mask id="path-1-outside-1_119_70" maskUnits="userSpaceOnUse" x="3" y="14" width="540" height="51" fill="black">
<rect fill="white" x="3" y="14" width="540" height="51"/>
<path d="M5.312 62V17.2H25.664C30.528 17.2 34.816 18.1387 38.528 20.016C42.24 21.8507 45.1413 24.432 47.232 27.76C49.3227 31.088 50.368 35.0347 50.368 39.6C50.368 44.1227 49.3227 48.0693 47.232 51.44C45.1413 54.768 42.24 57.3707 38.528 59.248C34.816 61.0827 30.528 62 25.664 62H5.312ZM15.68 53.488H25.152C28.1387 53.488 30.72 52.9333 32.896 51.824C35.1147 50.672 36.8213 49.0507 38.016 46.96C39.2533 44.8693 39.872 42.416 39.872 39.6C39.872 36.7413 39.2533 34.288 38.016 32.24C36.8213 30.1493 35.1147 28.5493 32.896 27.44C30.72 26.288 28.1387 25.712 25.152 25.712H15.68V53.488ZM83.723 35.248H105.291V43.312H83.723V35.248ZM84.491 53.68H108.875V62H74.187V17.2H108.043V25.52H84.491V53.68ZM145.94 62L126.611 17.2H137.812L154.708 56.88H148.116L165.268 17.2H175.572L156.18 62H145.94ZM204.848 35.248H226.416V43.312H204.848V35.248ZM205.616 53.68H230V62H195.312V17.2H229.168V25.52H205.616V53.68ZM254.25 62V17.2H264.618V53.552H287.082V62H254.25ZM329.885 62.768C326.343 62.768 323.058 62.192 320.029 61.04C317.042 59.888 314.439 58.2667 312.22 56.176C310.045 54.0853 308.338 51.632 307.101 48.816C305.906 46 305.309 42.928 305.309 39.6C305.309 36.272 305.906 33.2 307.101 30.384C308.338 27.568 310.066 25.1147 312.285 23.024C314.503 20.9333 317.106 19.312 320.093 18.16C323.079 17.008 326.322 16.432 329.821 16.432C333.362 16.432 336.604 17.008 339.549 18.16C342.535 19.312 345.117 20.9333 347.293 23.024C349.511 25.1147 351.239 27.568 352.477 30.384C353.714 33.1573 354.333 36.2293 354.333 39.6C354.333 42.928 353.714 46.0213 352.477 48.88C351.239 51.696 349.511 54.1493 347.293 56.24C345.117 58.288 342.535 59.888 339.549 61.04C336.604 62.192 333.383 62.768 329.885 62.768ZM329.821 53.936C331.826 53.936 333.661 53.5947 335.325 52.912C337.031 52.2293 338.525 51.248 339.805 49.968C341.085 48.688 342.066 47.1733 342.749 45.424C343.474 43.6747 343.837 41.7333 343.837 39.6C343.837 37.4667 343.474 35.5253 342.749 33.776C342.066 32.0267 341.085 30.512 339.805 29.232C338.567 27.952 337.095 26.9707 335.389 26.288C333.682 25.6053 331.826 25.264 329.821 25.264C327.815 25.264 325.959 25.6053 324.253 26.288C322.589 26.9707 321.117 27.952 319.837 29.232C318.557 30.512 317.554 32.0267 316.829 33.776C316.146 35.5253 315.805 37.4667 315.805 39.6C315.805 41.6907 316.146 43.632 316.829 45.424C317.554 47.1733 318.535 48.688 319.773 49.968C321.053 51.248 322.546 52.2293 324.253 52.912C325.959 53.5947 327.815 53.936 329.821 53.936ZM378.125 62V17.2H397.517C401.527 17.2 404.983 17.8613 407.885 19.184C410.786 20.464 413.026 22.32 414.605 24.752C416.183 27.184 416.973 30.0853 416.973 33.456C416.973 36.784 416.183 39.664 414.605 42.096C413.026 44.528 410.786 46.4053 407.885 47.728C404.983 49.008 401.527 49.648 397.517 49.648H383.885L388.493 44.976V62H378.125ZM388.493 46.128L383.885 41.2H396.941C400.141 41.2 402.53 40.5173 404.109 39.152C405.687 37.7867 406.477 35.888 406.477 33.456C406.477 30.9813 405.687 29.0613 404.109 27.696C402.53 26.3307 400.141 25.648 396.941 25.648H383.885L388.493 20.72V46.128ZM449.911 35.248H471.479V43.312H449.911V35.248ZM450.679 53.68H475.062V62H440.375V17.2H474.231V25.52H450.679V53.68ZM499.312 62V17.2H518.704C522.715 17.2 526.171 17.8613 529.072 19.184C531.973 20.464 534.213 22.32 535.792 24.752C537.371 27.184 538.16 30.0853 538.16 33.456C538.16 36.784 537.371 39.664 535.792 42.096C534.213 44.4853 531.973 46.32 529.072 47.6C526.171 48.88 522.715 49.52 518.704 49.52H505.072L509.68 44.976V62H499.312ZM527.792 62L516.592 45.744H527.664L538.992 62H527.792ZM509.68 46.128L505.072 41.264H518.128C521.328 41.264 523.717 40.5813 525.296 39.216C526.875 37.808 527.664 35.888 527.664 33.456C527.664 30.9813 526.875 29.0613 525.296 27.696C523.717 26.3307 521.328 25.648 518.128 25.648H505.072L509.68 20.72V46.128Z"/>
</mask>
<path d="M5.312 62H3.312V64H5.312V62ZM5.312 17.2V15.2H3.312V17.2H5.312ZM38.528 20.016L37.6254 21.8007L37.6336 21.8049L37.6418 21.809L38.528 20.016ZM47.232 27.76L45.5384 28.8239L47.232 27.76ZM47.232 51.44L48.9256 52.5039L48.9316 52.4942L47.232 51.44ZM38.528 59.248L39.4142 61.041L39.4224 61.0369L39.4306 61.0327L38.528 59.248ZM15.68 53.488H13.68V55.488H15.68V53.488ZM32.896 51.824L33.8044 53.6058L33.811 53.6024L33.8176 53.599L32.896 51.824ZM38.016 46.96L36.2948 45.9414L36.2871 45.9545L36.2795 45.9677L38.016 46.96ZM38.016 32.24L36.2795 33.2323L36.2916 33.2534L36.3042 33.2742L38.016 32.24ZM32.896 27.44L31.9602 29.2076L31.9808 29.2185L32.0016 29.2289L32.896 27.44ZM15.68 25.712V23.712H13.68V25.712H15.68ZM7.312 62V17.2H3.312V62H7.312ZM5.312 19.2H25.664V15.2H5.312V19.2ZM25.664 19.2C30.2674 19.2 34.237 20.0871 37.6254 21.8007L39.4306 18.2313C35.395 16.1903 30.7886 15.2 25.664 15.2V19.2ZM37.6418 21.809C41.0411 23.489 43.6551 25.8259 45.5384 28.8239L48.9256 26.6961C46.6276 23.0381 43.4389 20.2123 39.4142 18.223L37.6418 21.809ZM45.5384 28.8239C47.3983 31.7845 48.368 35.3491 48.368 39.6H52.368C52.368 34.7202 51.247 30.3915 48.9256 26.6961L45.5384 28.8239ZM48.368 39.6C48.368 43.8036 47.4003 47.3743 45.5324 50.3858L48.9316 52.4942C51.245 48.7644 52.368 44.4417 52.368 39.6H48.368ZM45.5384 50.3761C43.6525 53.3782 41.0329 55.7399 37.6254 57.4633L39.4306 61.0327C43.4471 59.0014 46.6302 56.1578 48.9256 52.5039L45.5384 50.3761ZM37.6418 57.455C34.2496 59.1317 30.2741 60 25.664 60V64C30.7819 64 35.3824 63.0337 39.4142 61.041L37.6418 57.455ZM25.664 60H5.312V64H25.664V60ZM15.68 55.488H25.152V51.488H15.68V55.488ZM25.152 55.488C28.3851 55.488 31.2912 54.887 33.8044 53.6058L31.9876 50.0422C30.1488 50.9796 27.8922 51.488 25.152 51.488V55.488ZM33.8176 53.599C36.3638 52.277 38.3595 50.3899 39.7525 47.9523L36.2795 45.9677C35.2831 47.7114 33.8656 49.067 31.9744 50.049L33.8176 53.599ZM39.7372 47.9786C41.1844 45.5333 41.872 42.7166 41.872 39.6H37.872C37.872 42.1154 37.3223 44.2053 36.2948 45.9414L39.7372 47.9786ZM41.872 39.6C41.872 36.4482 41.1875 33.6218 39.7278 31.2058L36.3042 33.2742C37.3192 34.9542 37.872 37.0345 37.872 39.6H41.872ZM39.7525 31.2477C38.3558 28.8034 36.351 26.9314 33.7904 25.6511L32.0016 29.2289C33.8784 30.1673 35.2869 31.4952 36.2795 33.2323L39.7525 31.2477ZM33.8318 25.6724C31.3122 24.3385 28.396 23.712 25.152 23.712V27.712C27.8813 27.712 30.1278 28.2375 31.9602 29.2076L33.8318 25.6724ZM25.152 23.712H15.68V27.712H25.152V23.712ZM13.68 25.712V53.488H17.68V25.712H13.68ZM83.723 35.248V33.248H81.723V35.248H83.723ZM105.291 35.248H107.291V33.248H105.291V35.248ZM105.291 43.312V45.312H107.291V43.312H105.291ZM83.723 43.312H81.723V45.312H83.723V43.312ZM84.491 53.68H82.491V55.68H84.491V53.68ZM108.875 53.68H110.875V51.68H108.875V53.68ZM108.875 62V64H110.875V62H108.875ZM74.187 62H72.187V64H74.187V62ZM74.187 17.2V15.2H72.187V17.2H74.187ZM108.043 17.2H110.043V15.2H108.043V17.2ZM108.043 25.52V27.52H110.043V25.52H108.043ZM84.491 25.52V23.52H82.491V25.52H84.491ZM83.723 37.248H105.291V33.248H83.723V37.248ZM103.291 35.248V43.312H107.291V35.248H103.291ZM105.291 41.312H83.723V45.312H105.291V41.312ZM85.723 43.312V35.248H81.723V43.312H85.723ZM84.491 55.68H108.875V51.68H84.491V55.68ZM106.875 53.68V62H110.875V53.68H106.875ZM108.875 60H74.187V64H108.875V60ZM76.187 62V17.2H72.187V62H76.187ZM74.187 19.2H108.043V15.2H74.187V19.2ZM106.043 17.2V25.52H110.043V17.2H106.043ZM108.043 23.52H84.491V27.52H108.043V23.52ZM82.491 25.52V53.68H86.491V25.52H82.491ZM145.94 62L144.103 62.7923L144.624 64H145.94V62ZM126.611 17.2V15.2H123.57L124.775 17.9923L126.611 17.2ZM137.812 17.2L139.652 16.4165L139.134 15.2H137.812V17.2ZM154.708 56.88V58.88H157.733L156.548 56.0965L154.708 56.88ZM148.116 56.88L146.28 56.0864L145.072 58.88H148.116V56.88ZM165.268 17.2V15.2H163.953L163.432 16.4064L165.268 17.2ZM175.572 17.2L177.407 17.9945L178.617 15.2H175.572V17.2ZM156.18 62V64H157.493L158.015 62.7945L156.18 62ZM147.776 61.2077L128.448 16.4077L124.775 17.9923L144.103 62.7923L147.776 61.2077ZM126.611 19.2H137.812V15.2H126.611V19.2ZM135.971 17.9835L152.867 57.6635L156.548 56.0965L139.652 16.4165L135.971 17.9835ZM154.708 54.88H148.116V58.88H154.708V54.88ZM149.951 57.6736L167.103 17.9935L163.432 16.4064L146.28 56.0864L149.951 57.6736ZM165.268 19.2H175.572V15.2H165.268V19.2ZM173.736 16.4055L154.344 61.2055L158.015 62.7945L177.407 17.9945L173.736 16.4055ZM156.18 60H145.94V64H156.18V60ZM204.848 35.248V33.248H202.848V35.248H204.848ZM226.416 35.248H228.416V33.248H226.416V35.248ZM226.416 43.312V45.312H228.416V43.312H226.416ZM204.848 43.312H202.848V45.312H204.848V43.312ZM205.616 53.68H203.616V55.68H205.616V53.68ZM230 53.68H232V51.68H230V53.68ZM230 62V64H232V62H230ZM195.312 62H193.312V64H195.312V62ZM195.312 17.2V15.2H193.312V17.2H195.312ZM229.168 17.2H231.168V15.2H229.168V17.2ZM229.168 25.52V27.52H231.168V25.52H229.168ZM205.616 25.52V23.52H203.616V25.52H205.616ZM204.848 37.248H226.416V33.248H204.848V37.248ZM224.416 35.248V43.312H228.416V35.248H224.416ZM226.416 41.312H204.848V45.312H226.416V41.312ZM206.848 43.312V35.248H202.848V43.312H206.848ZM205.616 55.68H230V51.68H205.616V55.68ZM228 53.68V62H232V53.68H228ZM230 60H195.312V64H230V60ZM197.312 62V17.2H193.312V62H197.312ZM195.312 19.2H229.168V15.2H195.312V19.2ZM227.168 17.2V25.52H231.168V17.2H227.168ZM229.168 23.52H205.616V27.52H229.168V23.52ZM203.616 25.52V53.68H207.616V25.52H203.616ZM254.25 62H252.25V64H254.25V62ZM254.25 17.2V15.2H252.25V17.2H254.25ZM264.618 17.2H266.618V15.2H264.618V17.2ZM264.618 53.552H262.618V55.552H264.618V53.552ZM287.082 53.552H289.082V51.552H287.082V53.552ZM287.082 62V64H289.082V62H287.082ZM256.25 62V17.2H252.25V62H256.25ZM254.25 19.2H264.618V15.2H254.25V19.2ZM262.618 17.2V53.552H266.618V17.2H262.618ZM264.618 55.552H287.082V51.552H264.618V55.552ZM285.082 53.552V62H289.082V53.552H285.082ZM287.082 60H254.25V64H287.082V60ZM320.029 61.04L319.309 62.906L319.318 62.9094L320.029 61.04ZM312.22 56.176L310.835 57.6182L310.842 57.6249L310.849 57.6316L312.22 56.176ZM307.101 48.816L305.259 49.5971L305.264 49.6089L305.269 49.6205L307.101 48.816ZM307.101 30.384L305.269 29.5795L305.264 29.5911L305.259 29.6029L307.101 30.384ZM320.093 18.16L319.373 16.294L319.373 16.294L320.093 18.16ZM339.549 18.16L338.82 20.0225L338.829 20.026L339.549 18.16ZM347.293 23.024L345.907 24.4662L345.914 24.4729L345.921 24.4796L347.293 23.024ZM352.477 30.384L350.645 31.1886L350.65 31.1989L352.477 30.384ZM352.477 48.88L354.308 49.6846L354.312 49.6744L352.477 48.88ZM347.293 56.24L348.663 57.6964L348.664 57.6956L347.293 56.24ZM339.549 61.04L338.829 59.174L338.82 59.1775L339.549 61.04ZM335.325 52.912L334.582 51.055L334.574 51.0583L334.565 51.0617L335.325 52.912ZM339.805 49.968L338.39 48.5538L338.39 48.5538L339.805 49.968ZM342.749 45.424L340.901 44.658L340.893 44.6774L340.885 44.6969L342.749 45.424ZM342.749 33.776L340.885 34.5031L340.893 34.5226L340.901 34.542L342.749 33.776ZM339.805 29.232L338.367 30.622L338.378 30.6342L338.39 30.6462L339.805 29.232ZM335.389 26.288L334.646 28.145L334.646 28.145L335.389 26.288ZM324.253 26.288L323.51 24.431L323.502 24.4343L323.493 24.4377L324.253 26.288ZM319.837 29.232L321.251 30.6462L321.251 30.6462L319.837 29.232ZM316.829 33.776L314.981 33.01L314.973 33.0294L314.965 33.0489L316.829 33.776ZM316.829 45.424L314.96 46.136L314.97 46.1632L314.981 46.19L316.829 45.424ZM319.773 49.968L318.335 51.358L318.346 51.3702L318.358 51.3822L319.773 49.968ZM324.253 52.912L323.51 54.769L323.51 54.769L324.253 52.912ZM329.885 60.768C326.564 60.768 323.522 60.2286 320.739 59.1706L319.318 62.9094C322.594 64.1554 326.123 64.768 329.885 64.768V60.768ZM320.748 59.174C317.991 58.1105 315.613 56.6245 313.592 54.7204L310.849 57.6316C313.266 59.9088 316.093 61.6655 319.309 62.906L320.748 59.174ZM313.606 54.7338C311.623 52.828 310.066 50.5925 308.932 48.0115L305.269 49.6205C306.61 52.6715 308.466 55.3426 310.835 57.6182L313.606 54.7338ZM308.942 48.0349C307.861 45.487 307.309 42.6834 307.309 39.6H303.309C303.309 43.1726 303.951 46.513 305.259 49.5971L308.942 48.0349ZM307.309 39.6C307.309 36.5166 307.861 33.713 308.942 31.1651L305.259 29.6029C303.951 32.687 303.309 36.0274 303.309 39.6H307.309ZM308.932 31.1885C310.062 28.6159 311.634 26.3846 313.656 24.4796L310.913 21.5684C308.497 23.8448 306.614 26.5201 305.269 29.5795L308.932 31.1885ZM313.656 24.4796C315.677 22.5755 318.055 21.0895 320.812 20.026L319.373 16.294C316.157 17.5345 313.33 19.2912 310.913 21.5684L313.656 24.4796ZM320.812 20.026C323.549 18.9705 326.545 18.432 329.821 18.432V14.432C326.099 14.432 322.61 15.0455 319.373 16.294L320.812 20.026ZM329.821 18.432C333.142 18.432 336.134 18.9716 338.82 20.0225L340.277 16.2975C337.075 15.0444 333.581 14.432 329.821 14.432V18.432ZM338.829 20.026C341.583 21.0883 343.934 22.5707 345.907 24.4662L348.678 21.5818C346.299 19.296 343.488 17.5357 340.268 16.294L338.829 20.026ZM345.921 24.4796C347.943 26.3846 349.515 28.6159 350.645 31.1885L354.308 29.5795C352.963 26.5201 351.08 23.8448 348.664 21.5684L345.921 24.4796ZM350.65 31.1989C351.761 33.6889 352.333 36.4791 352.333 39.6H356.333C356.333 35.9796 355.667 32.6258 354.303 29.5691L350.65 31.1989ZM352.333 39.6C352.333 42.6737 351.763 45.4945 350.641 48.0856L354.312 49.6744C355.665 46.5482 356.333 43.1823 356.333 39.6H352.333ZM350.645 48.0755C349.515 50.6481 347.943 52.8794 345.921 54.7844L348.664 57.6956C351.08 55.4192 352.963 52.7439 354.308 49.6845L350.645 48.0755ZM345.922 54.7836C343.947 56.6419 341.591 58.1084 338.829 59.174L340.268 62.906C343.479 61.6676 346.286 59.9341 348.663 57.6964L345.922 54.7836ZM338.82 59.1775C336.131 60.2294 333.16 60.768 329.885 60.768V64.768C333.606 64.768 337.078 64.1546 340.277 62.9025L338.82 59.1775ZM329.821 55.936C332.056 55.936 334.153 55.5546 336.084 54.7623L334.565 51.0617C333.168 51.6348 331.595 51.936 329.821 51.936V55.936ZM336.067 54.769C338.021 53.9873 339.744 52.8567 341.219 51.3822L338.39 48.5538C337.305 49.6392 336.041 50.4714 334.582 51.055L336.067 54.769ZM341.219 51.3822C342.702 49.8993 343.832 48.1482 344.612 46.1511L340.885 44.6969C340.299 46.1985 339.467 47.4767 338.39 48.5538L341.219 51.3822ZM344.596 46.19C345.434 44.169 345.837 41.9631 345.837 39.6H341.837C341.837 41.5036 341.514 43.1803 340.901 44.658L344.596 46.19ZM345.837 39.6C345.837 37.2369 345.434 35.031 344.596 33.01L340.901 34.542C341.514 36.0197 341.837 37.6964 341.837 39.6H345.837ZM344.612 33.0489C343.832 31.0518 342.702 29.3007 341.219 27.8178L338.39 30.6462C339.467 31.7233 340.299 33.0015 340.885 34.5031L344.612 33.0489ZM341.242 27.842C339.803 26.3523 338.091 25.215 336.131 24.431L334.646 28.145C336.099 28.7263 337.332 29.5517 338.367 30.622L341.242 27.842ZM336.131 24.431C334.168 23.6456 332.057 23.264 329.821 23.264V27.264C331.595 27.264 333.196 27.565 334.646 28.145L336.131 24.431ZM329.821 23.264C327.584 23.264 325.473 23.6456 323.51 24.431L324.995 28.145C326.445 27.565 328.046 27.264 329.821 27.264V23.264ZM323.493 24.4377C321.583 25.2215 319.888 26.3517 318.422 27.8178L321.251 30.6462C322.345 29.5523 323.594 28.7198 325.012 28.1383L323.493 24.4377ZM318.422 27.8178C316.948 29.2919 315.802 31.0296 314.981 33.01L318.676 34.542C319.306 33.0237 320.165 31.7321 321.251 30.6462L318.422 27.8178ZM314.965 33.0489C314.181 35.0593 313.805 37.2515 313.805 39.6H317.805C317.805 37.6819 318.111 35.9913 318.692 34.5031L314.965 33.0489ZM313.805 39.6C313.805 41.912 314.183 44.0969 314.96 46.136L318.697 44.712C318.109 43.1671 317.805 41.4693 317.805 39.6H313.805ZM314.981 46.19C315.796 48.1563 316.912 49.8863 318.335 51.358L321.21 48.578C320.158 47.4897 319.311 46.1904 318.676 44.658L314.981 46.19ZM318.358 51.3822C319.833 52.8567 321.556 53.9873 323.51 54.769L324.995 51.055C323.536 50.4714 322.272 49.6392 321.187 48.5538L318.358 51.3822ZM323.51 54.769C325.473 55.5544 327.584 55.936 329.821 55.936V51.936C328.046 51.936 326.445 51.635 324.995 51.055L323.51 54.769ZM378.125 62H376.125V64H378.125V62ZM378.125 17.2V15.2H376.125V17.2H378.125ZM407.885 19.184L407.055 21.0038L407.066 21.0089L407.077 21.0138L407.885 19.184ZM414.605 24.752L412.927 25.8409L412.927 25.8409L414.605 24.752ZM407.885 47.728L408.692 49.5578L408.703 49.5529L408.714 49.5478L407.885 47.728ZM383.885 49.648L382.461 48.2436L379.103 51.648H383.885V49.648ZM388.493 44.976H390.493V40.1001L387.069 43.5716L388.493 44.976ZM388.493 62V64H390.493V62H388.493ZM388.493 46.128L387.032 47.494L390.493 51.1952V46.128H388.493ZM383.885 41.2V39.2H379.276L382.424 42.566L383.885 41.2ZM383.885 25.648L382.424 24.282L379.276 27.648H383.885V25.648ZM388.493 20.72H390.493V15.6528L387.032 19.354L388.493 20.72ZM380.125 62V17.2H376.125V62H380.125ZM378.125 19.2H397.517V15.2H378.125V19.2ZM397.517 19.2C401.312 19.2 404.472 19.8263 407.055 21.0038L408.714 17.3642C405.494 15.8963 401.742 15.2 397.517 15.2V19.2ZM407.077 21.0138C409.657 22.1521 411.58 23.7657 412.927 25.8409L416.282 23.6631C414.472 20.8742 411.914 18.7759 408.692 17.3542L407.077 21.0138ZM412.927 25.8409C414.263 27.8988 414.973 30.4076 414.973 33.456H418.973C418.973 29.763 418.104 26.4692 416.282 23.6631L412.927 25.8409ZM414.973 33.456C414.973 36.4561 414.265 38.9451 412.927 41.0071L416.282 43.1849C418.101 40.3829 418.973 37.1119 418.973 33.456H414.973ZM412.927 41.0071C411.576 43.0882 409.646 44.7271 407.055 45.9082L408.714 49.5478C411.926 48.0835 414.476 45.9678 416.282 43.1849L412.927 41.0071ZM407.077 45.8982C404.488 47.0404 401.32 47.648 397.517 47.648V51.648C401.734 51.648 405.478 50.9756 408.692 49.5578L407.077 45.8982ZM397.517 47.648H383.885V51.648H397.517V47.648ZM385.308 51.0524L389.916 46.3804L387.069 43.5716L382.461 48.2436L385.308 51.0524ZM386.493 44.976V62H390.493V44.976H386.493ZM388.493 60H378.125V64H388.493V60ZM389.953 44.762L385.345 39.834L382.424 42.566L387.032 47.494L389.953 44.762ZM383.885 43.2H396.941V39.2H383.885V43.2ZM396.941 43.2C400.375 43.2 403.324 42.4746 405.417 40.6647L402.8 37.6393C401.735 38.5601 399.906 39.2 396.941 39.2V43.2ZM405.417 40.6647C407.509 38.8552 408.477 36.3626 408.477 33.456H404.477C404.477 35.4134 403.865 36.7182 402.8 37.6393L405.417 40.6647ZM408.477 33.456C408.477 30.5192 407.517 27.9998 405.417 26.1833L402.8 29.2087C403.857 30.1229 404.477 31.4435 404.477 33.456H408.477ZM405.417 26.1833C403.324 24.3734 400.375 23.648 396.941 23.648V27.648C399.906 27.648 401.735 28.2879 402.8 29.2087L405.417 26.1833ZM396.941 23.648H383.885V27.648H396.941V23.648ZM385.345 27.014L389.953 22.086L387.032 19.354L382.424 24.282L385.345 27.014ZM386.493 20.72V46.128H390.493V20.72H386.493ZM449.911 35.248V33.248H447.911V35.248H449.911ZM471.479 35.248H473.479V33.248H471.479V35.248ZM471.479 43.312V45.312H473.479V43.312H471.479ZM449.911 43.312H447.911V45.312H449.911V43.312ZM450.679 53.68H448.679V55.68H450.679V53.68ZM475.062 53.68H477.062V51.68H475.062V53.68ZM475.062 62V64H477.062V62H475.062ZM440.375 62H438.375V64H440.375V62ZM440.375 17.2V15.2H438.375V17.2H440.375ZM474.231 17.2H476.231V15.2H474.231V17.2ZM474.231 25.52V27.52H476.231V25.52H474.231ZM450.679 25.52V23.52H448.679V25.52H450.679ZM449.911 37.248H471.479V33.248H449.911V37.248ZM469.479 35.248V43.312H473.479V35.248H469.479ZM471.479 41.312H449.911V45.312H471.479V41.312ZM451.911 43.312V35.248H447.911V43.312H451.911ZM450.679 55.68H475.062V51.68H450.679V55.68ZM473.062 53.68V62H477.062V53.68H473.062ZM475.062 60H440.375V64H475.062V60ZM442.375 62V17.2H438.375V62H442.375ZM440.375 19.2H474.231V15.2H440.375V19.2ZM472.231 17.2V25.52H476.231V17.2H472.231ZM474.231 23.52H450.679V27.52H474.231V23.52ZM448.679 25.52V53.68H452.679V25.52H448.679ZM499.312 62H497.312V64H499.312V62ZM499.312 17.2V15.2H497.312V17.2H499.312ZM529.072 19.184L528.242 21.0038L528.254 21.0089L528.265 21.0138L529.072 19.184ZM535.792 24.752L534.114 25.8409L534.114 25.8409L535.792 24.752ZM535.792 42.096L537.461 43.1985L537.465 43.1917L537.47 43.1849L535.792 42.096ZM529.072 47.6L529.879 49.4298L529.879 49.4298L529.072 47.6ZM505.072 49.52L503.668 48.0959L500.195 51.52H505.072V49.52ZM509.68 44.976H511.68V40.1949L508.276 43.5519L509.68 44.976ZM509.68 62V64H511.68V62H509.68ZM527.792 62L526.145 63.1347L526.741 64H527.792V62ZM516.592 45.744V43.744H512.785L514.945 46.8787L516.592 45.744ZM527.664 45.744L529.305 44.6005L528.708 43.744H527.664V45.744ZM538.992 62V64H542.823L540.633 60.8565L538.992 62ZM509.68 46.128L508.228 47.5035L511.68 51.1472V46.128H509.68ZM505.072 41.264V39.264H500.422L503.62 42.6395L505.072 41.264ZM525.296 39.216L526.604 40.7287L526.616 40.7187L526.627 40.7086L525.296 39.216ZM505.072 25.648L503.611 24.282L500.464 27.648H505.072V25.648ZM509.68 20.72H511.68V15.6528L508.219 19.354L509.68 20.72ZM501.312 62V17.2H497.312V62H501.312ZM499.312 19.2H518.704V15.2H499.312V19.2ZM518.704 19.2C522.5 19.2 525.66 19.8263 528.242 21.0038L529.902 17.3642C526.682 15.8963 522.929 15.2 518.704 15.2V19.2ZM528.265 21.0138C530.845 22.1521 532.767 23.7657 534.114 25.8409L537.47 23.6631C535.659 20.8742 533.102 18.7759 529.879 17.3542L528.265 21.0138ZM534.114 25.8409C535.45 27.8988 536.16 30.4076 536.16 33.456H540.16C540.16 29.763 539.291 26.4692 537.47 23.6631L534.114 25.8409ZM536.16 33.456C536.16 36.4561 535.453 38.9451 534.114 41.0071L537.47 43.1849C539.288 40.3829 540.16 37.1119 540.16 33.456H536.16ZM534.123 40.9935C532.778 43.029 530.854 44.6278 528.265 45.7702L529.879 49.4298C533.093 48.0122 535.648 45.9417 537.461 43.1985L534.123 40.9935ZM528.265 45.7702C525.676 46.9124 522.508 47.52 518.704 47.52V51.52C522.922 51.52 526.666 50.8476 529.879 49.4298L528.265 45.7702ZM518.704 47.52H505.072V51.52H518.704V47.52ZM506.476 50.9441L511.084 46.4001L508.276 43.5519L503.668 48.0959L506.476 50.9441ZM507.68 44.976V62H511.68V44.976H507.68ZM509.68 60H499.312V64H509.68V60ZM529.439 60.8653L518.239 44.6093L514.945 46.8787L526.145 63.1347L529.439 60.8653ZM516.592 47.744H527.664V43.744H516.592V47.744ZM526.023 46.8875L537.351 63.1435L540.633 60.8565L529.305 44.6005L526.023 46.8875ZM538.992 60H527.792V64H538.992V60ZM511.132 44.7525L506.524 39.8885L503.62 42.6395L508.228 47.5035L511.132 44.7525ZM505.072 43.264H518.128V39.264H505.072V43.264ZM518.128 43.264C521.563 43.264 524.512 42.5386 526.604 40.7287L523.988 37.7033C522.923 38.6241 521.093 39.264 518.128 39.264V43.264ZM526.627 40.7086C528.697 38.8626 529.664 36.3638 529.664 33.456H525.664C525.664 35.4122 525.052 36.7534 523.965 37.7234L526.627 40.7086ZM529.664 33.456C529.664 30.5192 528.705 27.9998 526.604 26.1833L523.988 29.2087C525.045 30.1229 525.664 31.4435 525.664 33.456H529.664ZM526.604 26.1833C524.512 24.3734 521.563 23.648 518.128 23.648V27.648C521.093 27.648 522.923 28.2879 523.988 29.2087L526.604 26.1833ZM518.128 23.648H505.072V27.648H518.128V23.648ZM506.533 27.014L511.141 22.086L508.219 19.354L503.611 24.282L506.533 27.014ZM507.68 20.72V46.128H511.68V20.72H507.68Z" fill="#4AD66D" mask="url(#path-1-outside-1_119_70)"/>
</g>
</svg>
