<svg width="31" height="31" viewBox="0 0 31 31" fill="none" xmlns="http://www.w3.org/2000/svg">
<path d="M7.515 25.375H4.5C3.70435 25.375 2.94129 25.0589 2.37868 24.4963C1.81607 23.9337 1.5 23.1706 1.5 22.375V4.375C1.5 3.57935 1.81607 2.81629 2.37868 2.25368C2.94129 1.69107 3.70435 1.375 4.5 1.375H27C27.7956 1.375 28.5587 1.69107 29.1213 2.25368C29.6839 2.81629 30 3.57935 30 4.375V22.375C30 23.1706 29.6839 23.9337 29.1213 24.4963C28.5587 25.0589 27.7956 25.375 27 25.375H23.85" stroke="white" stroke-width="2" stroke-linecap="round"/>
<path d="M2.25 8.125H29.25" stroke="white" stroke-width="2" stroke-linecap="square"/>
<path d="M5.25 6.625C6.07843 6.625 6.75 5.95343 6.75 5.125C6.75 4.29657 6.07843 3.625 5.25 3.625C4.42157 3.625 3.75 4.29657 3.75 5.125C3.75 5.95343 4.42157 6.625 5.25 6.625Z" fill="white" stroke="white" stroke-width="0.5"/>
<path d="M8.25 6.625C9.07843 6.625 9.75 5.95343 9.75 5.125C9.75 4.29657 9.07843 3.625 8.25 3.625C7.42157 3.625 6.75 4.29657 6.75 5.125C6.75 5.95343 7.42157 6.625 8.25 6.625Z" fill="white" stroke="white" stroke-width="0.5"/>
<path d="M11.25 6.625C12.0784 6.625 12.75 5.95343 12.75 5.125C12.75 4.29657 12.0784 3.625 11.25 3.625C10.4216 3.625 9.75 4.29657 9.75 5.125C9.75 5.95343 10.4216 6.625 11.25 6.625Z" fill="white" stroke="white" stroke-width="0.5"/>
<path d="M13.5 30.625V23.125C13.5 22.5283 13.7371 21.956 14.159 21.534C14.581 21.1121 15.1533 20.875 15.75 20.875C16.3467 20.875 16.919 21.1121 17.341 21.534C17.7629 21.956 18 22.5283 18 23.125V30.625" stroke="white"/>
<path d="M20.3414 27.121C21.0711 26.2531 21.54 25.1963 21.6936 24.0729C21.8473 22.9495 21.6796 21.8055 21.2098 20.7736C20.74 19.7416 19.9874 18.8639 19.0392 18.2421C18.091 17.6204 16.9861 17.28 15.8524 17.2605C14.7187 17.2409 13.6027 17.543 12.6336 18.1318C11.6646 18.7205 10.8822 19.5718 10.3772 20.5869C9.87209 21.6021 9.66501 22.7396 9.77991 23.8676C9.89482 24.9956 10.327 26.068 11.0264 26.9605" stroke="white" stroke-linecap="round"/>
<path fill-rule="evenodd" clip-rule="evenodd" d="M15.75 22.375C15.9489 22.375 16.1397 22.454 16.2803 22.5947C16.421 22.7353 16.5 22.9261 16.5 23.125V23.875H15V23.125C15 22.9261 15.079 22.7353 15.2197 22.5947C15.3603 22.454 15.5511 22.375 15.75 22.375Z" fill="white"/>
</svg>
