<svg width="70" height="71" viewBox="0 0 70 71" fill="none" xmlns="http://www.w3.org/2000/svg">
<g clip-path="url(#clip0_119_274)">
<path d="M23.3332 70.5001C29.7732 70.5001 34.9998 65.2734 34.9998 58.8334V47.1667H23.3332C16.8932 47.1667 11.6665 52.3934 11.6665 58.8334C11.6665 65.2734 16.8932 70.5001 23.3332 70.5001Z" fill="#0ACF83"/>
<path d="M11.6665 35.4999C11.6665 29.0599 16.8932 23.8333 23.3332 23.8333H34.9998V47.1666H23.3332C16.8932 47.1666 11.6665 41.9399 11.6665 35.4999Z" fill="#A259FF"/>
<path d="M11.6665 12.1667C11.6665 5.72667 16.8932 0.5 23.3332 0.5H34.9998V23.8333H23.3332C16.8932 23.8333 11.6665 18.6067 11.6665 12.1667Z" fill="#F24E1E"/>
<path d="M35 0.5H46.6667C53.1067 0.5 58.3333 5.72667 58.3333 12.1667C58.3333 18.6067 53.1067 23.8333 46.6667 23.8333H35V0.5Z" fill="#FF7262"/>
<path d="M58.3333 35.4999C58.3333 41.9399 53.1067 47.1666 46.6667 47.1666C40.2267 47.1666 35 41.9399 35 35.4999C35 29.0599 40.2267 23.8333 46.6667 23.8333C53.1067 23.8333 58.3333 29.0599 58.3333 35.4999Z" fill="#1ABCFE"/>
</g>
<defs>
<clipPath id="clip0_119_274">
<rect width="70" height="70" fill="white" transform="translate(0 0.5)"/>
</clipPath>
</defs>
</svg>
