<svg width="41" height="41" viewBox="0 0 41 41" fill="none" xmlns="http://www.w3.org/2000/svg">
<rect x="0.890137" y="1.2467" width="39.0001" height="38.5066" rx="19.2533" stroke="white"/>
<path d="M20.3902 10.7467C18.0156 10.7468 15.7186 11.5918 13.9101 13.1305C12.1016 14.6693 10.8997 16.8013 10.5193 19.1452C10.1389 21.489 10.605 23.8918 11.8341 25.9235C13.0631 27.9551 14.9751 29.4832 17.2277 30.2342C17.7277 30.3217 17.9152 30.0217 17.9152 29.7592C17.9152 29.5217 17.9027 28.7342 17.9027 27.8967C15.3902 28.3592 14.7402 27.2842 14.5402 26.7217C14.3182 26.1747 13.9664 25.6898 13.5152 25.3092C13.1652 25.1217 12.6652 24.6592 13.5027 24.6467C13.8224 24.6814 14.1292 24.7927 14.3968 24.9711C14.6644 25.1495 14.8851 25.3898 15.0402 25.6717C15.1769 25.9174 15.3608 26.1337 15.5814 26.3082C15.8019 26.4827 16.0546 26.612 16.3252 26.6886C16.5958 26.7652 16.8788 26.7877 17.158 26.7548C17.4373 26.7219 17.7073 26.6342 17.9526 26.4967C17.9959 25.9883 18.2225 25.513 18.5902 25.1592C16.3652 24.9092 14.0402 24.0467 14.0402 20.2217C14.0261 19.2279 14.3928 18.2663 15.0652 17.5342C14.7594 16.6704 14.7952 15.7225 15.1652 14.8842C15.1652 14.8842 16.0026 14.6217 17.9152 15.9092C19.5515 15.4592 21.2789 15.4592 22.9152 15.9092C24.8276 14.6092 25.6652 14.8842 25.6652 14.8842C26.0352 15.7225 26.0709 16.6705 25.7652 17.5342C26.4395 18.2651 26.8066 19.2275 26.7902 20.2217C26.7902 24.0592 24.4526 24.9092 22.2277 25.1592C22.4663 25.4011 22.6501 25.6915 22.7666 26.0107C22.8831 26.3299 22.9295 26.6705 22.9027 27.0092C22.9027 28.3467 22.8902 29.4217 22.8902 29.7592C22.8902 30.0217 23.0777 30.3342 23.5777 30.2342C25.8263 29.4771 27.7327 27.9455 28.9566 25.9127C30.1804 23.88 30.642 21.4785 30.259 19.1369C29.876 16.7953 28.6733 14.6661 26.8656 13.1292C25.0579 11.5923 22.7629 10.7479 20.3902 10.7467Z" fill="white"/>
</svg>
