<svg width="50" height="49" viewBox="0 0 50 49" fill="none" xmlns="http://www.w3.org/2000/svg">
<rect width="50" height="49" rx="24.5" fill="url(#paint0_linear_126_826)"/>
<path d="M25 14.7466C22.6255 14.7467 20.3285 15.5917 18.52 17.1304C16.7115 18.6692 15.5095 20.8012 15.1292 23.1451C14.7488 25.4889 15.2148 27.8917 16.4439 29.9233C17.673 31.955 19.5849 33.4831 21.8375 34.2341C22.3375 34.3216 22.525 34.0216 22.525 33.7591C22.525 33.5216 22.5125 32.7341 22.5125 31.8966C20 32.3591 19.35 31.2841 19.15 30.7216C18.9281 30.1745 18.5763 29.6897 18.125 29.3091C17.775 29.1216 17.275 28.6591 18.1125 28.6466C18.4323 28.6813 18.739 28.7926 19.0067 28.971C19.2743 29.1494 19.495 29.3897 19.65 29.6716C19.7868 29.9173 19.9707 30.1336 20.1912 30.3081C20.4117 30.4826 20.6645 30.6118 20.9351 30.6885C21.2056 30.7651 21.4886 30.7876 21.7679 30.7547C22.0472 30.7218 22.3172 30.634 22.5625 30.4966C22.6058 29.9882 22.8324 29.5129 23.2 29.1591C20.975 28.9091 18.65 28.0466 18.65 24.2216C18.636 23.2278 19.0027 22.2662 19.675 21.5341C19.3693 20.6703 19.4051 19.7224 19.775 18.8841C19.775 18.8841 20.6125 18.6216 22.525 19.9091C24.1613 19.4591 25.8887 19.4591 27.525 19.9091C29.4375 18.6091 30.275 18.8841 30.275 18.8841C30.645 19.7224 30.6808 20.6703 30.375 21.5341C31.0494 22.2649 31.4164 23.2273 31.4 24.2216C31.4 28.0591 29.0625 28.9091 26.8375 29.1591C27.0762 29.401 27.26 29.6914 27.3764 30.0106C27.4929 30.3298 27.5393 30.6704 27.5125 31.0091C27.5125 32.3466 27.5 33.4216 27.5 33.7591C27.5 34.0216 27.6875 34.3341 28.1875 34.2341C30.4362 33.477 32.3426 31.9453 33.5664 29.9126C34.7903 27.8799 35.2519 25.4784 34.8689 23.1368C34.4859 20.7952 33.2832 18.666 31.4755 17.1291C29.6678 15.5922 27.3727 14.7478 25 14.7466Z" fill="white"/>
<defs>
<linearGradient id="paint0_linear_126_826" x1="3" y1="11.5" x2="25" y2="49" gradientUnits="userSpaceOnUse">
<stop stop-color="#4AD66D"/>
<stop offset="1" stop-color="#277039"/>
</linearGradient>
</defs>
</svg>
