<svg width="50" height="50" viewBox="0 0 50 50" fill="none" xmlns="http://www.w3.org/2000/svg">
<rect width="50" height="50" rx="25" fill="url(#paint0_linear_126_845)"/>
<path d="M39.6845 15.5756C39.6845 15.5521 39.6845 15.5286 39.6786 15.4993C39.6786 15.4934 39.6786 15.4934 39.6786 15.4875C39.6727 15.464 39.6727 15.4405 39.661 15.417C39.661 15.4112 39.661 15.4112 39.6551 15.4053C39.6551 15.3994 39.6493 15.3877 39.6493 15.3818C39.6434 15.3642 39.6375 15.3524 39.6316 15.3348V15.3289C39.6199 15.3054 39.6081 15.2878 39.5964 15.2643C39.5964 15.2643 39.5964 15.2584 39.5905 15.2584C39.5788 15.2349 39.5611 15.2173 39.5494 15.1997L39.5435 15.1938C39.5259 15.1762 39.5142 15.1586 39.4965 15.141C39.4907 15.141 39.4907 15.1351 39.4848 15.1351C39.4672 15.1175 39.4495 15.1057 39.426 15.094C39.4202 15.094 39.4202 15.0881 39.4143 15.0881C39.3908 15.0764 39.3732 15.0646 39.3497 15.0529H39.3438C39.3203 15.0411 39.2968 15.0294 39.2733 15.0235C39.2498 15.0176 39.2263 15.0117 39.197 15.0059H39.1911C39.1676 15 39.1441 15 39.1206 15C39.1147 15 39.1147 15 39.1089 15C39.103 15 39.103 15 39.0971 15H10.9033C10.8974 15 10.8974 15 10.8915 15C10.8857 15 10.8857 15 10.8798 15C10.8563 15 10.8328 15.0059 10.8093 15.0059H10.8034C10.7799 15.0117 10.7564 15.0176 10.7271 15.0235C10.7036 15.0294 10.6801 15.0411 10.6566 15.0529H10.6507C10.6272 15.0646 10.6096 15.0764 10.5861 15.0881C10.5802 15.0881 10.5802 15.094 10.5744 15.094C10.5567 15.1057 10.5391 15.1233 10.5156 15.1351C10.5098 15.1351 10.5098 15.141 10.5039 15.141C10.4863 15.1586 10.4686 15.1762 10.4569 15.1938L10.451 15.1997C10.4334 15.2173 10.4216 15.2408 10.4099 15.2584C10.4099 15.2584 10.4099 15.2643 10.404 15.2643C10.3923 15.2819 10.3805 15.3054 10.3688 15.3289V15.3348C10.3629 15.3524 10.357 15.3642 10.3512 15.3818C10.3512 15.3877 10.3453 15.3994 10.3453 15.4053C10.3453 15.4112 10.3453 15.4112 10.3394 15.417C10.3335 15.4405 10.3277 15.464 10.3218 15.4875C10.3218 15.4934 10.3218 15.4934 10.3218 15.4993C10.3159 15.5286 10.3159 15.5521 10.3159 15.5756C10.3159 15.5756 10.3159 15.5756 10.3159 15.5815V33.6608V34.4126C10.3159 34.7357 10.5802 35 10.9033 35H39.0971C39.4202 35 39.6845 34.7357 39.6845 34.4126V33.6608V15.5756C39.6845 15.5815 39.6845 15.5815 39.6845 15.5756ZM11.4907 16.7974L17.3291 21.4258L21.2998 24.5742L11.4907 32.4332V16.7974ZM22.2513 25.326L24.6419 27.1762C24.6537 27.188 24.6713 27.1938 24.683 27.2056C24.8769 27.3289 25.1294 27.3289 25.3233 27.2056C25.335 27.1938 25.3526 27.188 25.3644 27.1762L27.755 25.326L38.3688 33.8253H11.6375L22.2513 25.326ZM28.7006 24.58L32.6713 21.4317L38.5097 16.8032V32.4391L28.7006 24.58ZM37.4114 16.1689L32.8651 19.7753L27.3967 24.116L25.0002 25.9662L22.6037 24.116L17.1353 19.7812L12.589 16.1747H37.4114V16.1689Z" fill="white"/>
<defs>
<linearGradient id="paint0_linear_126_845" x1="1.5" y1="15" x2="25" y2="50" gradientUnits="userSpaceOnUse">
<stop stop-color="#4AD66D"/>
<stop offset="1" stop-color="#277039"/>
</linearGradient>
</defs>
</svg>
