<svg width="20" height="38" viewBox="0 0 20 38" fill="none" xmlns="http://www.w3.org/2000/svg">
<path d="M15.9844 33.9259H18.2344V27.1759H15.9844V25.6302L20.0001 18.1725L10.3594 0.699036L0.71875 18.1725L4.73444 25.6302V27.1759H2.48444V33.9259H4.73444V37.3009H15.9844V33.9259ZM10.3594 15.8556C11.2898 15.8556 12.0469 16.6127 12.0469 17.5431C12.0469 18.4735 11.2898 19.2306 10.3594 19.2306C9.42906 19.2306 8.67194 18.4735 8.67194 17.5431C8.67194 16.6127 9.42906 15.8556 10.3594 15.8556ZM2.00012 18.1793L9.79694 4.0476V14.788C9.1622 14.9183 8.59181 15.2635 8.18194 15.7654C7.77208 16.2673 7.5478 16.8951 7.54694 17.5431C7.54694 19.0939 8.80863 20.3556 10.3594 20.3556C11.9102 20.3556 13.1719 19.0939 13.1719 17.5431C13.1711 16.8951 12.9468 16.2673 12.5369 15.7654C12.1271 15.2635 11.5567 14.9183 10.9219 14.788V4.0476L18.7188 18.1793L14.8594 25.3467V27.1759H5.85944V25.3467L2.00012 18.1793ZM3.60944 32.8009V28.3009H17.1094V32.8009H3.60944ZM14.8594 36.1759H5.85944V33.9259H14.8594V36.1759Z" fill="white"/>
</svg>
