<svg width="177" height="49" viewBox="0 0 177 49" fill="none" xmlns="http://www.w3.org/2000/svg">
<g opacity="0.05">
<mask id="path-1-outside-1_123_520" maskUnits="userSpaceOnUse" x="-2" y="-2" width="181" height="53" fill="black">
<rect fill="white" x="-2" y="-2" width="181" height="53"/>
<path d="M31.9091 16.5C31.5909 15.3939 31.1439 14.4167 30.5682 13.5682C29.9924 12.7045 29.2879 11.9773 28.4545 11.3864C27.6364 10.7803 26.697 10.3182 25.6364 10C24.5909 9.68182 23.4318 9.52273 22.1591 9.52273C19.7803 9.52273 17.6894 10.1136 15.8864 11.2955C14.0985 12.4773 12.7045 14.197 11.7045 16.4545C10.7045 18.697 10.2045 21.4394 10.2045 24.6818C10.2045 27.9242 10.697 30.6818 11.6818 32.9545C12.6667 35.2273 14.0606 36.9621 15.8636 38.1591C17.6667 39.3409 19.7955 39.9318 22.25 39.9318C24.4773 39.9318 26.3788 39.5379 27.9545 38.75C29.5455 37.947 30.7576 36.8182 31.5909 35.3636C32.4394 33.9091 32.8636 32.1894 32.8636 30.2045L34.8636 30.5H22.8636V23.0909H42.3409V28.9545C42.3409 33.0455 41.4773 36.5606 39.75 39.5C38.0227 42.4242 35.6439 44.6818 32.6136 46.2727C29.5833 47.8485 26.1136 48.6364 22.2045 48.6364C17.8409 48.6364 14.0076 47.6742 10.7045 45.75C7.40152 43.8106 4.82576 41.0606 2.97727 37.5C1.14394 33.9242 0.227273 29.6818 0.227273 24.7727C0.227273 21 0.772727 17.6364 1.86364 14.6818C2.9697 11.7121 4.51515 9.19697 6.5 7.13636C8.48485 5.07576 10.7955 3.50757 13.4318 2.43182C16.0682 1.35606 18.9242 0.81818 22 0.81818C24.6364 0.81818 27.0909 1.20454 29.3636 1.97727C31.6364 2.73485 33.6515 3.81061 35.4091 5.20454C37.1818 6.59848 38.6288 8.25757 39.75 10.1818C40.8712 12.0909 41.5909 14.197 41.9091 16.5H31.9091ZM61.1307 1.45454H72.1534L82.767 21.5H83.2216L93.8352 1.45454H104.858L87.8807 31.5455V48H78.108V31.5455L61.1307 1.45454ZM126.233 1.45454H138.369L151.188 32.7273H151.733L164.551 1.45454H176.688V48H167.142V17.7045H166.756L154.71 47.7727H148.21L136.165 17.5909H135.778V48H126.233V1.45454Z"/>
</mask>
<path d="M31.9091 16.5L29.987 17.0529L30.4033 18.5H31.9091V16.5ZM30.5682 13.5682L28.9041 14.6776L28.9086 14.6844L28.9132 14.6912L30.5682 13.5682ZM28.4545 11.3864L27.2641 12.9935L27.2808 13.0058L27.2977 13.0178L28.4545 11.3864ZM25.6364 10L25.054 11.9134L25.0617 11.9157L25.6364 10ZM15.8864 11.2955L14.79 9.62274L14.7835 9.62701L15.8864 11.2955ZM11.7045 16.4545L13.5312 17.2691L13.5332 17.2645L11.7045 16.4545ZM15.8636 38.1591L14.7575 39.8254L14.7672 39.8318L15.8636 38.1591ZM27.9545 38.75L28.849 40.5389L28.8558 40.5354L27.9545 38.75ZM31.5909 35.3636L29.8634 34.3559L29.8594 34.3626L29.8555 34.3694L31.5909 35.3636ZM32.8636 30.2045L33.1559 28.226L30.8636 27.8874V30.2045H32.8636ZM34.8636 30.5V32.5L35.1559 28.5215L34.8636 30.5ZM22.8636 30.5H20.8636V32.5H22.8636V30.5ZM22.8636 23.0909V21.0909H20.8636V23.0909H22.8636ZM42.3409 23.0909H44.3409V21.0909H42.3409V23.0909ZM39.75 39.5L41.472 40.5172L41.4743 40.5133L39.75 39.5ZM32.6136 46.2727L33.5364 48.0472L33.5433 48.0435L32.6136 46.2727ZM10.7045 45.75L9.69188 47.4747L9.69779 47.4781L10.7045 45.75ZM2.97727 37.5L1.19754 38.4125L1.20222 38.4215L2.97727 37.5ZM1.86364 14.6818L-0.0105965 13.9838L-0.0125566 13.9891L1.86364 14.6818ZM6.5 7.13636L7.94044 8.52385L7.94044 8.52385L6.5 7.13636ZM13.4318 2.43182L12.6762 0.580045L13.4318 2.43182ZM29.3636 1.97727L28.7198 3.87085L28.7312 3.87464L29.3636 1.97727ZM35.4091 5.20454L34.1663 6.77155L34.1729 6.77671L35.4091 5.20454ZM39.75 10.1818L38.0219 11.1887L38.0254 11.1947L39.75 10.1818ZM41.9091 16.5V18.5H44.2044L43.8903 16.2263L41.9091 16.5ZM33.8311 15.9471C33.4616 14.6626 32.931 13.4883 32.2231 12.4452L28.9132 14.6912C29.3569 15.345 29.7202 16.1253 29.987 17.0529L33.8311 15.9471ZM32.2323 12.4588C31.523 11.3949 30.6476 10.4896 29.6114 9.7549L27.2977 13.0178C27.9282 13.4649 28.4618 14.0142 28.9041 14.6776L32.2323 12.4588ZM29.645 9.77925C28.6253 9.02395 27.4738 8.46317 26.2111 8.08435L25.0617 11.9157C25.9201 12.1732 26.6474 12.5367 27.2641 12.9935L29.645 9.77925ZM26.2187 8.08665C24.9564 7.70247 23.5975 7.52273 22.1591 7.52273V11.5227C23.2662 11.5227 24.2254 11.6612 25.054 11.9133L26.2187 8.08665ZM22.1591 7.52273C19.4326 7.52273 16.9521 8.20555 14.79 9.62275L16.9828 12.9682C18.4267 12.0217 20.128 11.5227 22.1591 11.5227V7.52273ZM14.7835 9.62701C12.6303 11.0503 11.0067 13.0917 9.87591 15.6445L13.5332 17.2645C14.4024 15.3022 15.5666 13.9042 16.9892 12.9639L14.7835 9.62701ZM9.87794 15.64C8.73324 18.2069 8.20455 21.2444 8.20455 24.6818H12.2045C12.2045 21.6344 12.6759 19.187 13.5311 17.2691L9.87794 15.64ZM8.20455 24.6818C8.20455 28.1172 8.72506 31.1613 9.84671 33.7498L13.5169 32.1593C12.6689 30.2023 12.2045 27.7313 12.2045 24.6818H8.20455ZM9.84671 33.7498C10.9624 36.3245 12.5877 38.3849 14.7575 39.8253L16.9698 36.4928C15.5335 35.5393 14.3709 34.13 13.5169 32.1593L9.84671 33.7498ZM14.7672 39.8318C16.9396 41.2557 19.4615 41.9318 22.25 41.9318V37.9318C20.1294 37.9318 18.3937 37.4261 16.96 36.4864L14.7672 39.8318ZM22.25 41.9318C24.7079 41.9318 26.932 41.4974 28.849 40.5389L27.0601 36.9611C25.8256 37.5784 24.2466 37.9318 22.25 37.9318V41.9318ZM28.8558 40.5354C30.773 39.5677 32.2858 38.1739 33.3263 36.3579L29.8555 34.3694C29.2293 35.4624 28.3179 36.3263 27.0533 36.9646L28.8558 40.5354ZM33.3185 36.3714C34.375 34.5602 34.8636 32.4798 34.8636 30.2045H30.8636C30.8636 31.899 30.5038 33.2579 29.8634 34.3559L33.3185 36.3714ZM32.5714 32.1831L34.5714 32.4785L35.1559 28.5215L33.1559 28.226L32.5714 32.1831ZM34.8636 28.5H22.8636V32.5H34.8636V28.5ZM24.8636 30.5V23.0909H20.8636V30.5H24.8636ZM22.8636 25.0909H42.3409V21.0909H22.8636V25.0909ZM40.3409 23.0909V28.9545H44.3409V23.0909H40.3409ZM40.3409 28.9545C40.3409 32.7606 39.5394 35.9107 38.0257 38.4867L41.4743 40.5133C43.4151 37.2105 44.3409 33.3303 44.3409 28.9545H40.3409ZM38.028 38.4828C36.4912 41.0845 34.388 43.0823 31.684 44.5019L33.5433 48.0435C36.8999 46.2813 39.5542 43.764 41.472 40.5172L38.028 38.4828ZM31.6909 44.4983C28.9844 45.9057 25.8392 46.6364 22.2045 46.6364V50.6364C26.3881 50.6364 30.1823 49.7913 33.5363 48.0472L31.6909 44.4983ZM22.2045 46.6364C18.1437 46.6364 14.6675 45.7441 11.7113 44.0219L9.69779 47.4781C13.3476 49.6044 17.5381 50.6364 22.2045 50.6364V46.6364ZM11.7172 44.0253C8.75461 42.2858 6.43596 39.8216 4.75232 36.5785L1.20222 38.4215C3.21555 42.2996 6.04842 45.3354 9.69189 47.4747L11.7172 44.0253ZM4.75699 36.5875C3.09707 33.35 2.22727 29.4338 2.22727 24.7727H-1.77273C-1.77273 29.9298 -0.809187 34.4985 1.19756 38.4125L4.75699 36.5875ZM2.22727 24.7727C2.22727 21.1909 2.74523 18.0683 3.73983 15.3746L-0.0125566 13.9891C-1.19977 17.2044 -1.77273 20.8091 -1.77273 24.7727H2.22727ZM3.73786 15.3799C4.75851 12.6395 6.16551 10.3665 7.94044 8.52385L5.05956 5.74888C2.8648 8.02741 1.18089 10.7847 -0.0105889 13.9838L3.73786 15.3799ZM7.94044 8.52385C9.73283 6.66305 11.8105 5.25349 14.1874 4.28359L12.6762 0.580045C9.78043 1.76166 7.23687 3.48846 5.05956 5.74888L7.94044 8.52385ZM14.1874 4.28359C16.5652 3.31333 19.1624 2.81818 22 2.81818V-1.18182C18.6861 -1.18182 15.5711 -0.601213 12.6762 0.580045L14.1874 4.28359ZM22 2.81818C24.4388 2.81818 26.6738 3.17516 28.7198 3.87082L30.0074 0.0837269C27.508 -0.766071 24.8339 -1.18182 22 -1.18182V2.81818ZM28.7312 3.87464C30.7979 4.56354 32.6034 5.53203 34.1663 6.77154L36.6519 3.63755C34.6996 2.08918 32.4748 0.906157 29.9961 0.0799055L28.7312 3.87464ZM34.1729 6.77671C35.7501 8.0169 37.0292 9.48499 38.0219 11.1887L41.4781 9.17492C40.2284 7.03016 38.6136 5.18006 36.6453 3.63237L34.1729 6.77671ZM38.0254 11.1947C39.0066 12.8654 39.6439 14.7183 39.9279 16.7737L43.8903 16.2263C43.5379 13.6757 42.7358 11.3164 41.4746 9.16897L38.0254 11.1947ZM41.9091 14.5H31.9091V18.5H41.9091V14.5ZM61.1307 1.45454V-0.545456H57.7059L59.3888 2.43731L61.1307 1.45454ZM72.1534 1.45454L73.9209 0.518677L73.3575 -0.545456H72.1534V1.45454ZM82.767 21.5L80.9995 22.4359L81.563 23.5H82.767V21.5ZM83.2216 21.5V23.5H84.4257L84.9891 22.4359L83.2216 21.5ZM93.8352 1.45454V-0.545456H92.6311L92.0677 0.518677L93.8352 1.45454ZM104.858 1.45454L106.6 2.43731L108.283 -0.545456H104.858V1.45454ZM87.8807 31.5455L86.1388 30.5627L85.8807 31.0202V31.5455H87.8807ZM87.8807 48V50H89.8807V48H87.8807ZM78.108 48H76.108V50H78.108V48ZM78.108 31.5455H80.108V31.0202L79.8498 30.5627L78.108 31.5455ZM61.1307 3.45454H72.1534V-0.545456H61.1307V3.45454ZM70.3859 2.39041L80.9995 22.4359L84.5346 20.5641L73.9209 0.518677L70.3859 2.39041ZM82.767 23.5H83.2216V19.5H82.767V23.5ZM84.9891 22.4359L95.6028 2.39041L92.0677 0.518677L81.4541 20.5641L84.9891 22.4359ZM93.8352 3.45454H104.858V-0.545456H93.8352V3.45454ZM103.116 0.471774L86.1388 30.5627L89.6226 32.5282L106.6 2.43731L103.116 0.471774ZM85.8807 31.5455V48H89.8807V31.5455H85.8807ZM87.8807 46H78.108V50H87.8807V46ZM80.108 48V31.5455H76.108V48H80.108ZM79.8498 30.5627L62.8726 0.471774L59.3888 2.43731L76.3661 32.5282L79.8498 30.5627ZM126.233 1.45454V-0.545456H124.233V1.45454H126.233ZM138.369 1.45454L140.22 0.696022L139.711 -0.545456H138.369V1.45454ZM151.188 32.7273L149.337 33.4858L149.846 34.7273H151.188V32.7273ZM151.733 32.7273V34.7273H153.075L153.584 33.4858L151.733 32.7273ZM164.551 1.45454V-0.545456H163.209L162.701 0.696022L164.551 1.45454ZM176.688 1.45454H178.688V-0.545456H176.688V1.45454ZM176.688 48V50H178.688V48H176.688ZM167.142 48H165.142V50H167.142V48ZM167.142 17.7045H169.142V15.7045H167.142V17.7045ZM166.756 17.7045V15.7045H165.402L164.899 16.9608L166.756 17.7045ZM154.71 47.7727V49.7727H156.064L156.567 48.5165L154.71 47.7727ZM148.21 47.7727L146.353 48.5141L146.855 49.7727H148.21V47.7727ZM136.165 17.5909L138.022 16.8496L137.52 15.5909H136.165V17.5909ZM135.778 17.5909V15.5909H133.778V17.5909H135.778ZM135.778 48V50H137.778V48H135.778ZM126.233 48H124.233V50H126.233V48ZM126.233 3.45454H138.369V-0.545456H126.233V3.45454ZM136.519 2.21307L149.337 33.4858L153.038 31.9688L140.22 0.696022L136.519 2.21307ZM151.188 34.7273H151.733V30.7273H151.188V34.7273ZM153.584 33.4858L166.402 2.21307L162.701 0.696022L149.882 31.9688L153.584 33.4858ZM164.551 3.45454H176.688V-0.545456H164.551V3.45454ZM174.688 1.45454V48H178.688V1.45454H174.688ZM176.688 46H167.142V50H176.688V46ZM169.142 48V17.7045H165.142V48H169.142ZM167.142 15.7045H166.756V19.7045H167.142V15.7045ZM164.899 16.9608L152.854 47.029L156.567 48.5165L168.612 18.4483L164.899 16.9608ZM154.71 45.7727H148.21V49.7727H154.71V45.7727ZM150.068 47.0314L138.022 16.8496L134.307 18.3322L146.353 48.5141L150.068 47.0314ZM136.165 15.5909H135.778V19.5909H136.165V15.5909ZM133.778 17.5909V48H137.778V17.5909H133.778ZM135.778 46H126.233V50H135.778V46ZM128.233 48V1.45454H124.233V48H128.233Z" fill="#4AD66D" mask="url(#path-1-outside-1_123_520)"/>
</g>
</svg>
