<svg width="86" height="86" viewBox="0 0 86 86" fill="none" xmlns="http://www.w3.org/2000/svg">
<path d="M26.5197 74.9685C28.6433 76.3381 31.0403 77.0542 33.3955 77.0542C34.3673 77.0542 35.3289 76.9295 36.2628 76.6841L36.6156 76.5906C39.1507 75.9194 41.4439 74.6087 43.2424 72.8067C45.7601 70.2956 45.9748 66.1972 43.7577 63.0636C41.5856 59.9873 39.1702 57.1224 36.6364 54.3716L54.3724 36.6356C57.1232 39.1693 59.9877 41.5848 63.064 43.7569C64.5097 44.7808 66.163 45.2854 67.7712 45.2854C69.6423 45.2854 71.4546 44.6005 72.8 43.2483C74.6088 41.4427 75.9199 39.1499 76.5907 36.6147L76.6842 36.262C77.5317 33.0695 76.9055 29.5176 74.9686 26.5189C70.9913 20.3659 65.6338 15.0084 59.4809 11.0312C56.4786 9.09421 52.9338 8.47159 49.7378 9.31557L49.385 9.40907C46.8499 10.0802 44.5567 11.391 42.7582 13.193C40.2404 15.704 40.0258 19.8024 42.2429 22.9361C44.415 26.0124 46.8304 28.8769 49.3641 31.6277L31.6282 49.3637C28.8774 46.83 26.0125 44.4149 22.9362 42.2424C19.8061 40.0254 15.7006 40.2329 13.2002 42.751C11.3914 44.5566 10.0803 46.8494 9.40953 49.3846L9.31603 49.7373C8.46851 52.9298 9.09468 56.4817 11.0316 59.4804C15.0093 65.6334 20.3667 70.9909 26.5197 74.9685ZM47.7661 18.2013C48.6863 17.2811 49.8724 16.6068 51.1973 16.2576L51.55 16.1641C52.8229 15.8319 54.3065 16.1227 55.6347 16.9804C60.9542 20.4183 65.5818 25.0459 69.0197 30.3655C69.8739 31.69 70.175 33.1772 69.836 34.4501L69.7425 34.8028C69.3933 36.1274 68.7186 37.3139 67.8541 38.1957C67.7989 38.2269 67.5116 38.2304 67.1522 37.9744C63.4377 35.35 59.9728 32.4299 56.78 29.2382L56.7729 29.2275L56.7623 29.2204C53.5706 26.0273 50.6505 22.5628 48.0261 18.8483C47.7697 18.4849 47.7835 18.2013 47.7661 18.2013ZM16.1646 51.5499L16.2581 51.1972C16.6073 49.8726 17.2819 48.6862 18.1465 47.8043C18.2053 47.7731 18.4889 47.7696 18.8484 48.0256C22.5629 50.65 26.0277 53.5701 29.2205 56.7619L29.2276 56.7725L29.2383 56.7796C32.43 59.9727 35.3501 63.4372 37.9745 67.1517C38.2306 67.5147 38.2167 67.7984 38.2337 67.7984C37.3136 68.7185 36.1275 69.3929 34.8026 69.7421L34.4498 69.8356C33.184 70.171 31.6933 69.8735 30.3652 69.0192C25.0456 65.5813 20.4181 60.9538 16.9802 55.6342C16.1263 54.31 15.8253 52.8225 16.1646 51.5499ZM73.0526 7.93963C71.6692 6.55626 69.428 6.55626 68.0443 7.93963C66.6606 9.32301 66.6609 11.5642 68.0443 12.9479L73.0526 17.9562C73.7443 18.6479 74.6506 18.9939 75.5565 18.9939C76.4625 18.9939 77.3688 18.6479 78.0605 17.9562C79.4439 16.5728 79.4439 14.3316 78.0605 12.9479L73.0526 7.93963ZM12.9477 78.0604C13.6393 78.7521 14.5457 79.0981 15.4516 79.0981C16.3576 79.0981 17.2639 78.7521 17.9556 78.0604C19.3389 76.677 19.3389 74.4358 17.9556 73.0521L12.9473 68.0438C11.5639 66.6605 9.32276 66.6605 7.93903 68.0438C6.5553 69.4272 6.55566 71.6684 7.93903 73.0521L12.9477 78.0604Z" fill="white"/>
</svg>
