<svg width="190" height="77" viewBox="0 0 190 77" fill="none" xmlns="http://www.w3.org/2000/svg">
<g opacity="0.05">
<mask id="path-1-outside-1_123_520" maskUnits="userSpaceOnUse" x="1" y="12" width="181" height="53" fill="black">
<rect fill="white" x="1" y="12" width="181" height="53"/>
<path d="M34.9091 30.5C34.5909 29.3939 34.1439 28.4167 33.5682 27.5682C32.9924 26.7045 32.2879 25.9773 31.4545 25.3864C30.6364 24.7803 29.697 24.3182 28.6364 24C27.5909 23.6818 26.4318 23.5227 25.1591 23.5227C22.7803 23.5227 20.6894 24.1136 18.8864 25.2955C17.0985 26.4773 15.7045 28.197 14.7045 30.4545C13.7045 32.697 13.2045 35.4394 13.2045 38.6818C13.2045 41.9242 13.697 44.6818 14.6818 46.9545C15.6667 49.2273 17.0606 50.9621 18.8636 52.1591C20.6667 53.3409 22.7955 53.9318 25.25 53.9318C27.4773 53.9318 29.3788 53.5379 30.9545 52.75C32.5455 51.947 33.7576 50.8182 34.5909 49.3636C35.4394 47.9091 35.8636 46.1894 35.8636 44.2045L37.8636 44.5H25.8636V37.0909H45.3409V42.9545C45.3409 47.0455 44.4773 50.5606 42.75 53.5C41.0227 56.4242 38.6439 58.6818 35.6136 60.2727C32.5833 61.8485 29.1136 62.6364 25.2045 62.6364C20.8409 62.6364 17.0076 61.6742 13.7045 59.75C10.4015 57.8106 7.82576 55.0606 5.97727 51.5C4.14394 47.9242 3.22727 43.6818 3.22727 38.7727C3.22727 35 3.77273 31.6364 4.86364 28.6818C5.9697 25.7121 7.51515 23.197 9.5 21.1364C11.4848 19.0758 13.7955 17.5076 16.4318 16.4318C19.0682 15.3561 21.9242 14.8182 25 14.8182C27.6364 14.8182 30.0909 15.2045 32.3636 15.9773C34.6364 16.7348 36.6515 17.8106 38.4091 19.2045C40.1818 20.5985 41.6288 22.2576 42.75 24.1818C43.8712 26.0909 44.5909 28.197 44.9091 30.5H34.9091ZM64.1307 15.4545H75.1534L85.767 35.5H86.2216L96.8352 15.4545H107.858L90.8807 45.5455V62H81.108V45.5455L64.1307 15.4545ZM129.233 15.4545H141.369L154.188 46.7273H154.733L167.551 15.4545H179.688V62H170.142V31.7045H169.756L157.71 61.7727H151.21L139.165 31.5909H138.778V62H129.233V15.4545Z"/>
</mask>
<path d="M34.9091 30.5L32.987 31.0529L33.4033 32.5H34.9091V30.5ZM33.5682 27.5682L31.9041 28.6776L31.9086 28.6844L31.9132 28.6912L33.5682 27.5682ZM31.4545 25.3864L30.2641 26.9935L30.2808 27.0058L30.2977 27.0178L31.4545 25.3864ZM28.6364 24L28.054 25.9134L28.0617 25.9157L28.6364 24ZM18.8864 25.2955L17.79 23.6227L17.7835 23.627L18.8864 25.2955ZM14.7045 30.4545L16.5312 31.2691L16.5332 31.2645L14.7045 30.4545ZM18.8636 52.1591L17.7574 53.8254L17.7672 53.8318L18.8636 52.1591ZM30.9545 52.75L31.849 54.5389L31.8558 54.5354L30.9545 52.75ZM34.5909 49.3636L32.8634 48.3559L32.8594 48.3626L32.8555 48.3694L34.5909 49.3636ZM35.8636 44.2045L36.1559 42.226L33.8636 41.8874V44.2045H35.8636ZM37.8636 44.5V46.5L38.1559 42.5215L37.8636 44.5ZM25.8636 44.5H23.8636V46.5H25.8636V44.5ZM25.8636 37.0909V35.0909H23.8636V37.0909H25.8636ZM45.3409 37.0909H47.3409V35.0909H45.3409V37.0909ZM42.75 53.5L44.472 54.5172L44.4743 54.5133L42.75 53.5ZM35.6136 60.2727L36.5363 62.0472L36.5433 62.0435L35.6136 60.2727ZM13.7045 59.75L12.6919 61.4747L12.6978 61.4781L13.7045 59.75ZM5.97727 51.5L4.19754 52.4125L4.20222 52.4215L5.97727 51.5ZM4.86364 28.6818L2.9894 27.9838L2.98744 27.9891L4.86364 28.6818ZM9.5 21.1364L10.9404 22.5239L10.9404 22.5239L9.5 21.1364ZM16.4318 16.4318L15.6762 14.58L15.6762 14.58L16.4318 16.4318ZM32.3636 15.9773L31.7198 17.8709L31.7312 17.8746L32.3636 15.9773ZM38.4091 19.2045L37.1663 20.7716L37.1729 20.7767L38.4091 19.2045ZM42.75 24.1818L41.0219 25.1887L41.0254 25.1947L42.75 24.1818ZM44.9091 30.5V32.5H47.2044L46.8903 30.2263L44.9091 30.5ZM36.8311 29.9471C36.4616 28.6626 35.931 27.4883 35.2231 26.4452L31.9132 28.6912C32.3569 29.345 32.7202 30.1253 32.987 31.0529L36.8311 29.9471ZM35.2323 26.4588C34.523 25.3949 33.6476 24.4896 32.6114 23.7549L30.2977 27.0178C30.9282 27.4649 31.4618 28.0142 31.9041 28.6776L35.2323 26.4588ZM32.645 23.7793C31.6253 23.0239 30.4738 22.4632 29.2111 22.0843L28.0617 25.9157C28.9201 26.1732 29.6474 26.5367 30.2641 26.9935L32.645 23.7793ZM29.2187 22.0867C27.9564 21.7025 26.5975 21.5227 25.1591 21.5227V25.5227C26.2662 25.5227 27.2254 25.6612 28.054 25.9133L29.2187 22.0867ZM25.1591 21.5227C22.4326 21.5227 19.9521 22.2056 17.79 23.6228L19.9828 26.9682C21.4267 26.0217 23.128 25.5227 25.1591 25.5227V21.5227ZM17.7835 23.627C15.6303 25.0503 14.0067 27.0917 12.8759 29.6445L16.5332 31.2645C17.4024 29.3022 18.5666 27.9043 19.9892 26.9639L17.7835 23.627ZM12.8779 29.64C11.7332 32.2069 11.2045 35.2444 11.2045 38.6818H15.2045C15.2045 35.6344 15.6759 33.187 16.5311 31.2691L12.8779 29.64ZM11.2045 38.6818C11.2045 42.1172 11.7251 45.1613 12.8467 47.7498L16.5169 46.1593C15.6689 44.2023 15.2045 41.7313 15.2045 38.6818H11.2045ZM12.8467 47.7498C13.9624 50.3245 15.5877 52.3849 17.7575 53.8253L19.9698 50.4928C18.5335 49.5393 17.3709 48.13 16.5169 46.1593L12.8467 47.7498ZM17.7672 53.8318C19.9396 55.2557 22.4615 55.9318 25.25 55.9318V51.9318C23.1294 51.9318 21.3937 51.4261 19.96 50.4864L17.7672 53.8318ZM25.25 55.9318C27.7079 55.9318 29.932 55.4974 31.849 54.5389L30.0601 50.9611C28.8256 51.5784 27.2466 51.9318 25.25 51.9318V55.9318ZM31.8558 54.5354C33.773 53.5677 35.2858 52.1739 36.3263 50.3579L32.8555 48.3694C32.2293 49.4624 31.3179 50.3263 30.0533 50.9646L31.8558 54.5354ZM36.3185 50.3714C37.375 48.5602 37.8636 46.4798 37.8636 44.2045H33.8636C33.8636 45.899 33.5038 47.258 32.8634 48.3559L36.3185 50.3714ZM35.5714 46.1831L37.5714 46.4785L38.1559 42.5215L36.1559 42.226L35.5714 46.1831ZM37.8636 42.5H25.8636V46.5H37.8636V42.5ZM27.8636 44.5V37.0909H23.8636V44.5H27.8636ZM25.8636 39.0909H45.3409V35.0909H25.8636V39.0909ZM43.3409 37.0909V42.9545H47.3409V37.0909H43.3409ZM43.3409 42.9545C43.3409 46.7606 42.5394 49.9107 41.0257 52.4867L44.4743 54.5133C46.4151 51.2105 47.3409 47.3303 47.3409 42.9545H43.3409ZM41.028 52.4828C39.4912 55.0845 37.388 57.0823 34.684 58.5019L36.5433 62.0435C39.8999 60.2813 42.5542 57.764 44.472 54.5172L41.028 52.4828ZM34.6909 58.4983C31.9844 59.9057 28.8392 60.6364 25.2045 60.6364V64.6364C29.3881 64.6364 33.1823 63.7913 36.5363 62.0472L34.6909 58.4983ZM25.2045 60.6364C21.1437 60.6364 17.6675 59.7441 14.7113 58.0219L12.6978 61.4781C16.3476 63.6044 20.5381 64.6364 25.2045 64.6364V60.6364ZM14.7172 58.0253C11.7546 56.2858 9.43596 53.8216 7.75232 50.5785L4.20222 52.4215C6.21555 56.2997 9.04842 59.3354 12.6919 61.4747L14.7172 58.0253ZM7.75699 50.5875C6.09707 47.35 5.22727 43.4338 5.22727 38.7727H1.22727C1.22727 43.9298 2.19081 48.4985 4.19756 52.4125L7.75699 50.5875ZM5.22727 38.7727C5.22727 35.1909 5.74523 32.0683 6.73983 29.3746L2.98744 27.9891C1.80023 31.2044 1.22727 34.8091 1.22727 38.7727H5.22727ZM6.73786 29.3799C7.75851 26.6395 9.16551 24.3665 10.9404 22.5239L8.05956 19.7489C5.8648 22.0274 4.18089 24.7847 2.98941 27.9838L6.73786 29.3799ZM10.9404 22.5239C12.7328 20.6631 14.8105 19.2535 17.1874 18.2836L15.6762 14.58C12.7804 15.7617 10.2369 17.4885 8.05956 19.7489L10.9404 22.5239ZM17.1874 18.2836C19.5652 17.3133 22.1624 16.8182 25 16.8182V12.8182C21.6861 12.8182 18.5711 13.3988 15.6762 14.58L17.1874 18.2836ZM25 16.8182C27.4388 16.8182 29.6738 17.1752 31.7198 17.8708L33.0074 14.0837C30.508 13.2339 27.8339 12.8182 25 12.8182V16.8182ZM31.7312 17.8746C33.7979 18.5635 35.6034 19.532 37.1663 20.7715L39.6519 17.6375C37.6996 16.0892 35.4748 14.9062 32.9961 14.0799L31.7312 17.8746ZM37.1729 20.7767C38.7501 22.0169 40.0292 23.485 41.0219 25.1887L44.4781 23.1749C43.2284 21.0302 41.6136 19.1801 39.6453 17.6324L37.1729 20.7767ZM41.0254 25.1947C42.0066 26.8654 42.6439 28.7183 42.9279 30.7737L46.8903 30.2263C46.5379 27.6757 45.7358 25.3164 44.4746 23.169L41.0254 25.1947ZM44.9091 28.5H34.9091V32.5H44.9091V28.5ZM64.1307 15.4545V13.4545H60.7059L62.3888 16.4373L64.1307 15.4545ZM75.1534 15.4545L76.9209 14.5187L76.3575 13.4545H75.1534V15.4545ZM85.767 35.5L83.9995 36.4359L84.563 37.5H85.767V35.5ZM86.2216 35.5V37.5H87.4257L87.9891 36.4359L86.2216 35.5ZM96.8352 15.4545V13.4545H95.6311L95.0677 14.5187L96.8352 15.4545ZM107.858 15.4545L109.6 16.4373L111.283 13.4545H107.858V15.4545ZM90.8807 45.5455L89.1388 44.5627L88.8807 45.0202V45.5455H90.8807ZM90.8807 62V64H92.8807V62H90.8807ZM81.108 62H79.108V64H81.108V62ZM81.108 45.5455H83.108V45.0202L82.8498 44.5627L81.108 45.5455ZM64.1307 17.4545H75.1534V13.4545H64.1307V17.4545ZM73.3859 16.3904L83.9995 36.4359L87.5346 34.5641L76.9209 14.5187L73.3859 16.3904ZM85.767 37.5H86.2216V33.5H85.767V37.5ZM87.9891 36.4359L98.6028 16.3904L95.0677 14.5187L84.4541 34.5641L87.9891 36.4359ZM96.8352 17.4545H107.858V13.4545H96.8352V17.4545ZM106.116 14.4718L89.1388 44.5627L92.6226 46.5282L109.6 16.4373L106.116 14.4718ZM88.8807 45.5455V62H92.8807V45.5455H88.8807ZM90.8807 60H81.108V64H90.8807V60ZM83.108 62V45.5455H79.108V62H83.108ZM82.8498 44.5627L65.8726 14.4718L62.3888 16.4373L79.3661 46.5282L82.8498 44.5627ZM129.233 15.4545V13.4545H127.233V15.4545H129.233ZM141.369 15.4545L143.22 14.696L142.711 13.4545H141.369V15.4545ZM154.188 46.7273L152.337 47.4858L152.846 48.7273H154.188V46.7273ZM154.733 46.7273V48.7273H156.075L156.584 47.4858L154.733 46.7273ZM167.551 15.4545V13.4545H166.209L165.701 14.696L167.551 15.4545ZM179.688 15.4545H181.688V13.4545H179.688V15.4545ZM179.688 62V64H181.688V62H179.688ZM170.142 62H168.142V64H170.142V62ZM170.142 31.7045H172.142V29.7045H170.142V31.7045ZM169.756 31.7045V29.7045H168.402L167.899 30.9608L169.756 31.7045ZM157.71 61.7727V63.7727H159.064L159.567 62.5165L157.71 61.7727ZM151.21 61.7727L149.353 62.5141L149.855 63.7727H151.21V61.7727ZM139.165 31.5909L141.022 30.8496L140.52 29.5909H139.165V31.5909ZM138.778 31.5909V29.5909H136.778V31.5909H138.778ZM138.778 62V64H140.778V62H138.778ZM129.233 62H127.233V64H129.233V62ZM129.233 17.4545H141.369V13.4545H129.233V17.4545ZM139.519 16.2131L152.337 47.4858L156.038 45.9687L143.22 14.696L139.519 16.2131ZM154.188 48.7273H154.733V44.7273H154.188V48.7273ZM156.584 47.4858L169.402 16.2131L165.701 14.696L152.882 45.9687L156.584 47.4858ZM167.551 17.4545H179.688V13.4545H167.551V17.4545ZM177.688 15.4545V62H181.688V15.4545H177.688ZM179.688 60H170.142V64H179.688V60ZM172.142 62V31.7045H168.142V62H172.142ZM170.142 29.7045H169.756V33.7045H170.142V29.7045ZM167.899 30.9608L155.854 61.029L159.567 62.5165L171.612 32.4483L167.899 30.9608ZM157.71 59.7727H151.21V63.7727H157.71V59.7727ZM153.068 61.0314L141.022 30.8496L137.307 32.3322L149.353 62.5141L153.068 61.0314ZM139.165 29.5909H138.778V33.5909H139.165V29.5909ZM136.778 31.5909V62H140.778V31.5909H136.778ZM138.778 60H129.233V64H138.778V60ZM131.233 62V15.4545H127.233V62H131.233Z" fill="#4AD66D" mask="url(#path-1-outside-1_123_520)"/>
</g>
</svg>
