<svg width="70" height="70" viewBox="0 0 70 70" fill="none" xmlns="http://www.w3.org/2000/svg">
<path d="M62.6141 6.78175C62.3409 6.48297 62.0085 6.24434 61.638 6.08104C61.2676 5.91775 60.8672 5.83336 60.4623 5.83325H9.5373C9.13247 5.83341 8.7321 5.9178 8.36165 6.08107C7.9912 6.24434 7.65878 6.48291 7.38553 6.78162C7.11228 7.08032 6.90418 7.43262 6.77445 7.8161C6.64473 8.19959 6.59623 8.60588 6.63204 9.00912L11.0654 58.5925C11.118 59.1833 11.3496 59.744 11.7292 60.1998C12.1089 60.6556 12.6186 60.9846 13.1902 61.1431L34.1908 66.9764C34.4449 67.0473 34.7075 67.0832 34.9713 67.0833C35.2345 67.083 35.4965 67.0476 35.7503 66.9779L56.8079 61.1445C57.3797 60.9858 57.8896 60.6565 58.2695 60.2005C58.6494 59.7446 58.8813 59.1836 58.9341 58.5925L63.3674 9.00912C63.4033 8.60591 63.3549 8.19963 63.2252 7.81616C63.0955 7.43269 62.8874 7.08041 62.6141 6.78175ZM53.303 56.0618L34.9727 61.1403L16.6966 56.0632L12.726 11.6666H57.2736L53.303 56.0618ZM22.8076 37.9166H42.918L41.9639 47.457L34.4742 50.1316L25.2472 46.8361C24.8863 46.7067 24.5035 46.6497 24.1205 46.6684C23.7376 46.687 23.3621 46.781 23.0155 46.9449C22.6689 47.1088 22.3581 47.3394 22.1007 47.6236C21.8433 47.9077 21.6444 48.2398 21.5154 48.6008C21.3865 48.9619 21.33 49.3448 21.3491 49.7277C21.3682 50.1106 21.4627 50.486 21.627 50.8324C21.7913 51.1788 22.0223 51.4894 22.3067 51.7464C22.5912 52.0035 22.9235 52.2019 23.2847 52.3304L33.4931 55.9763C34.1277 56.2023 34.8209 56.2023 35.4555 55.9763L45.6639 52.3304C46.1837 52.1446 46.6401 51.8151 46.9802 51.3803C47.3203 50.9455 47.53 50.4231 47.585 49.8738L49.0434 35.2904C49.0837 34.885 49.0386 34.4756 48.9111 34.0886C48.7836 33.7016 48.5765 33.3456 48.3031 33.0434C48.0297 32.7413 47.6961 32.4998 47.3237 32.3344C46.9513 32.1691 46.5484 32.0835 46.1409 32.0833H25.4466L24.5721 23.3333H47.5992C48.3728 23.3333 49.1146 23.026 49.6616 22.479C50.2086 21.932 50.5159 21.1901 50.5159 20.4166C50.5159 19.643 50.2086 18.9012 49.6616 18.3542C49.1146 17.8072 48.3728 17.4999 47.5992 17.4999H21.3492C20.9418 17.5002 20.5389 17.5857 20.1665 17.7511C19.7941 17.9165 19.4605 18.158 19.1871 18.4601C18.9137 18.7622 18.7065 19.1183 18.5791 19.5053C18.4516 19.8922 18.4065 20.3017 18.4468 20.7071L19.9051 35.2904C19.9773 36.0101 20.3142 36.6773 20.8505 37.1626C21.3868 37.6479 22.0843 37.9166 22.8076 37.9166Z" fill="#FF6915"/>
</svg>
