<svg width="70" height="70" viewBox="0 0 70 70" fill="none" xmlns="http://www.w3.org/2000/svg">
<path d="M17.7531 47.5381L13.7603 62.7667C13.7603 63.1691 13.5126 63.2619 12.9865 63.2619H5.55788C5.03169 63.2619 4.93883 63.1072 5.03169 62.4881L19.4245 12.1286C19.7701 10.7519 19.9468 9.33838 19.9507 7.91905C19.9507 7.57857 19.9507 7.42381 20.3531 7.42381H30.9388C31.3103 7.42381 31.465 7.42381 31.5579 7.91905L47.6841 62.6119C47.6841 63.0143 47.6841 63.2619 47.2817 63.2619H38.8936C38.4912 63.2619 38.2436 63.2619 38.1198 62.7976L34.0341 47.5381H17.7531ZM31.8365 39.3357C30.4127 33.7333 27.0698 21.4452 25.8007 15.5333C24.7484 21.4452 22.0555 31.4738 19.9198 39.3357H31.8365ZM54.6484 11.1691C54.6484 9.79813 55.193 8.48337 56.1624 7.51398C57.1317 6.5446 58.4465 6 59.8174 6C61.1883 6 62.5031 6.5446 63.4725 7.51398C64.4419 8.48337 64.9865 9.79813 64.9865 11.1691C65.039 11.8693 64.9382 12.5726 64.691 13.2299C64.4438 13.8872 64.0562 14.4827 63.5552 14.9748C63.0543 15.4669 62.452 15.8439 61.7904 16.0793C61.1288 16.3148 60.4238 16.4031 59.7246 16.3381C59.0377 16.3854 58.3488 16.2834 57.7052 16.039C57.0615 15.7946 56.4785 15.4138 55.9961 14.9226C55.5137 14.4313 55.1435 13.8415 54.9108 13.1935C54.6782 12.5456 54.5886 11.8549 54.6484 11.1691ZM55.2674 22.6833C55.2674 22.281 55.4222 22.0643 55.8555 22.0643H63.8103C64.2127 22.0643 64.4293 22.2191 64.4293 22.6833V62.6429C64.4293 63.0453 64.4293 63.2619 63.8103 63.2619H55.9793C55.4531 63.2619 55.2984 63.0143 55.2984 62.6119V22.6833H55.2674Z" fill="#8C8C8C"/>
</svg>
