<svg width="41" height="41" viewBox="0 0 41 41" fill="none" xmlns="http://www.w3.org/2000/svg">
<rect x="0.890137" y="1.00002" width="39" height="39" rx="19.5" stroke="white"/>
<path d="M25.7301 13.96C25.4928 13.96 25.2608 14.0304 25.0635 14.1623C24.8661 14.2941 24.7123 14.4815 24.6215 14.7008C24.5307 14.9201 24.5069 15.1613 24.5532 15.3941C24.5995 15.6269 24.7138 15.8407 24.8816 16.0085C25.0494 16.1764 25.2633 16.2907 25.496 16.337C25.7288 16.3833 25.9701 16.3595 26.1894 16.2687C26.4086 16.1778 26.596 16.024 26.7279 15.8267C26.8598 15.6294 26.9301 15.3974 26.9301 15.16C26.9301 14.8418 26.8037 14.5365 26.5787 14.3115C26.3536 14.0864 26.0484 13.96 25.7301 13.96ZM30.3301 16.38C30.3107 15.5503 30.1553 14.7294 29.8701 13.95C29.6159 13.2831 29.2201 12.6793 28.7101 12.18C28.215 11.6674 27.6097 11.2742 26.9401 11.03C26.1628 10.7362 25.341 10.5772 24.5101 10.56C23.4501 10.5 23.1101 10.5 20.3901 10.5C17.6701 10.5 17.3301 10.5 16.2701 10.56C15.4393 10.5772 14.6175 10.7362 13.8401 11.03C13.1718 11.2767 12.5671 11.6696 12.0701 12.18C11.5576 12.6752 11.1643 13.2805 10.9201 13.95C10.6263 14.7274 10.4673 15.5492 10.4501 16.38C10.3901 17.44 10.3901 17.78 10.3901 20.5C10.3901 23.22 10.3901 23.56 10.4501 24.62C10.4673 25.4509 10.6263 26.2727 10.9201 27.05C11.1643 27.7196 11.5576 28.3248 12.0701 28.82C12.5671 29.3305 13.1718 29.7234 13.8401 29.97C14.6175 30.2639 15.4393 30.4228 16.2701 30.44C17.3301 30.5 17.6701 30.5 20.3901 30.5C23.1101 30.5 23.4501 30.5 24.5101 30.44C25.341 30.4228 26.1628 30.2639 26.9401 29.97C27.6097 29.7258 28.215 29.3326 28.7101 28.82C29.2224 28.3226 29.6185 27.7182 29.8701 27.05C30.1553 26.2706 30.3107 25.4497 30.3301 24.62C30.3301 23.56 30.3901 23.22 30.3901 20.5C30.3901 17.78 30.3901 17.44 30.3301 16.38ZM28.5301 24.5C28.5229 25.1348 28.4079 25.7637 28.1901 26.36C28.0305 26.7952 27.774 27.1884 27.4401 27.51C27.1158 27.8405 26.7234 28.0964 26.2901 28.26C25.6938 28.4778 25.0649 28.5927 24.4301 28.6C23.4301 28.65 23.0601 28.66 20.4301 28.66C17.8001 28.66 17.4301 28.66 16.4301 28.6C15.771 28.6124 15.1147 28.5109 14.4901 28.3C14.0759 28.1281 13.7015 27.8728 13.3901 27.55C13.0582 27.2288 12.805 26.8352 12.6501 26.4C12.406 25.7952 12.2706 25.152 12.2501 24.5C12.2501 23.5 12.1901 23.13 12.1901 20.5C12.1901 17.87 12.1901 17.5 12.2501 16.5C12.2546 15.8511 12.3731 15.208 12.6001 14.6C12.7762 14.1779 13.0464 13.8017 13.3901 13.5C13.694 13.1562 14.0694 12.8831 14.4901 12.7C15.0997 12.4801 15.7421 12.3651 16.3901 12.36C17.3901 12.36 17.7601 12.3 20.3901 12.3C23.0201 12.3 23.3901 12.3 24.3901 12.36C25.0249 12.3673 25.6538 12.4823 26.2501 12.7C26.7046 12.8687 27.1124 13.1429 27.4401 13.5C27.7678 13.8072 28.0239 14.1827 28.1901 14.6C28.4124 15.2089 28.5274 15.8518 28.5301 16.5C28.5801 17.5 28.5901 17.87 28.5901 20.5C28.5901 23.13 28.5801 23.5 28.5301 24.5ZM20.3901 15.37C19.3759 15.372 18.3851 15.6745 17.5428 16.2394C16.7005 16.8043 16.0445 17.6062 15.6578 18.5438C15.271 19.4813 15.1709 20.5125 15.3699 21.5069C15.569 22.5014 16.0584 23.4146 16.7762 24.131C17.4941 24.8474 18.4081 25.335 19.403 25.5322C20.3978 25.7293 21.4288 25.6271 22.3656 25.2386C23.3024 24.85 24.103 24.1925 24.6663 23.349C25.2295 22.5056 25.5301 21.5142 25.5301 20.5C25.5315 19.8251 25.3993 19.1566 25.1414 18.533C24.8834 17.9093 24.5047 17.3428 24.027 16.8661C23.5493 16.3893 22.9821 16.0117 22.3579 15.7549C21.7338 15.4982 21.065 15.3674 20.3901 15.37ZM20.3901 23.83C19.7315 23.83 19.0877 23.6347 18.5401 23.2688C17.9925 22.9029 17.5657 22.3828 17.3136 21.7744C17.0616 21.1659 16.9956 20.4963 17.1241 19.8504C17.2526 19.2044 17.5698 18.6111 18.0355 18.1453C18.5012 17.6796 19.0945 17.3625 19.7405 17.234C20.3864 17.1055 21.056 17.1715 21.6645 17.4235C22.273 17.6755 22.793 18.1024 23.1589 18.65C23.5248 19.1976 23.7201 19.8414 23.7201 20.5C23.7201 20.9373 23.634 21.3703 23.4667 21.7744C23.2993 22.1784 23.054 22.5455 22.7448 22.8547C22.4356 23.1639 22.0685 23.4092 21.6645 23.5765C21.2605 23.7439 20.8274 23.83 20.3901 23.83Z" fill="white"/>
</svg>
