<svg width="62" height="49" viewBox="0 0 62 49" fill="none" xmlns="http://www.w3.org/2000/svg">
<path d="M24.0625 1.09389H13.125V30.1463C13.125 37.335 10.6597 39.3422 6.36945 39.3422C4.359 39.3422 2.54844 38.9975 1.13996 38.5133L0 47.0181C2.00977 47.7102 5.094 48.125 7.50682 48.125C17.3571 48.125 24.0625 43.4942 24.0625 30.2176V1.09389ZM47.9149 0C37.327 0 30.625 6.01535 30.625 13.9664C30.625 20.8137 35.7863 25.1007 43.2908 27.8659C48.7185 29.8015 50.8639 31.531 50.8639 34.3654C50.8639 37.4765 48.3839 39.482 43.6933 39.482C39.337 39.482 35.3823 38.0274 32.7019 36.5761V36.5732L30.625 45.2166C33.1733 46.671 37.9314 48.1225 43.0892 48.1225C55.4879 48.1223 61.25 41.4846 61.25 33.6716C61.25 27.0339 57.5643 22.7478 49.5909 19.704C43.693 17.3537 41.2141 16.0407 41.2141 13.0674C41.2141 10.7159 43.359 8.57363 47.7825 8.57363C52.1365 8.57363 55.1303 10.0375 56.875 10.9376L59.4897 2.18764C56.7554 0.987109 53.0726 0 47.9149 0Z" fill="#F0DC55"/>
</svg>
