<svg width="271" height="49" viewBox="0 0 271 49" fill="none" xmlns="http://www.w3.org/2000/svg">
<g opacity="0.05">
<mask id="path-1-outside-1_123_521" maskUnits="userSpaceOnUse" x="-2" y="-2" width="275" height="53" fill="black">
<rect fill="white" x="-2" y="-2" width="275" height="53"/>
<path d="M0.0454545 1.45454H12.1818L25 32.7273H25.5455L38.3636 1.45454H50.5V48H40.9545V17.7045H40.5682L28.5227 47.7727H22.0227L9.97727 17.5909H9.59091V48H0.0454545V1.45454ZM103.358 1.45454H113.199V31.6818C113.199 35.0758 112.388 38.0455 110.767 40.5909C109.161 43.1364 106.911 45.1212 104.017 46.5455C101.123 47.9545 97.7519 48.6591 93.9034 48.6591C90.0398 48.6591 86.661 47.9545 83.767 46.5455C80.8731 45.1212 78.6231 43.1364 77.017 40.5909C75.411 38.0455 74.608 35.0758 74.608 31.6818V1.45454H84.4489V30.8409C84.4489 32.6136 84.8352 34.1894 85.608 35.5682C86.3958 36.947 87.5019 38.0303 88.9261 38.8182C90.3504 39.6061 92.0095 40 93.9034 40C95.8125 40 97.4716 39.6061 98.8807 38.8182C100.305 38.0303 101.403 36.947 102.176 35.5682C102.964 34.1894 103.358 32.6136 103.358 30.8409V1.45454ZM162.545 14.8409C162.364 13.0076 161.583 11.5833 160.205 10.5682C158.826 9.55303 156.955 9.04545 154.591 9.04545C152.985 9.04545 151.629 9.27273 150.523 9.72727C149.417 10.1667 148.568 10.7803 147.977 11.5682C147.402 12.3561 147.114 13.25 147.114 14.25C147.083 15.0833 147.258 15.8106 147.636 16.4318C148.03 17.053 148.568 17.5909 149.25 18.0455C149.932 18.4848 150.72 18.8712 151.614 19.2045C152.508 19.5227 153.462 19.7955 154.477 20.0227L158.659 21.0227C160.689 21.4773 162.553 22.0833 164.25 22.8409C165.947 23.5985 167.417 24.5303 168.659 25.6364C169.902 26.7424 170.864 28.0455 171.545 29.5455C172.242 31.0455 172.598 32.7652 172.614 34.7045C172.598 37.553 171.871 40.0227 170.432 42.1136C169.008 44.1894 166.947 45.803 164.25 46.9545C161.568 48.0909 158.333 48.6591 154.545 48.6591C150.788 48.6591 147.515 48.0833 144.727 46.9318C141.955 45.7803 139.788 44.0758 138.227 41.8182C136.682 39.5455 135.871 36.7348 135.795 33.3864H145.318C145.424 34.947 145.871 36.25 146.659 37.2955C147.462 38.3258 148.53 39.1061 149.864 39.6364C151.212 40.1515 152.735 40.4091 154.432 40.4091C156.098 40.4091 157.545 40.1667 158.773 39.6818C160.015 39.197 160.977 38.5227 161.659 37.6591C162.341 36.7955 162.682 35.803 162.682 34.6818C162.682 33.6364 162.371 32.7576 161.75 32.0455C161.144 31.3333 160.25 30.7273 159.068 30.2273C157.902 29.7273 156.47 29.2727 154.773 28.8636L149.705 27.5909C145.78 26.6364 142.682 25.1439 140.409 23.1136C138.136 21.0833 137.008 18.3485 137.023 14.9091C137.008 12.0909 137.758 9.62879 139.273 7.52273C140.803 5.41667 142.902 3.77273 145.568 2.59091C148.235 1.40909 151.265 0.81818 154.659 0.81818C158.114 0.81818 161.129 1.40909 163.705 2.59091C166.295 3.77273 168.311 5.41667 169.75 7.52273C171.189 9.62879 171.932 12.0682 171.977 14.8409H162.545ZM205.074 1.45454V48H195.233V1.45454H205.074ZM270.239 17.75H260.284C260.102 16.4621 259.731 15.3182 259.17 14.3182C258.61 13.303 257.89 12.4394 257.011 11.7273C256.133 11.0151 255.117 10.4697 253.966 10.0909C252.83 9.71212 251.595 9.52273 250.261 9.52273C247.852 9.52273 245.754 10.1212 243.966 11.3182C242.178 12.5 240.792 14.2273 239.807 16.5C238.822 18.7576 238.33 21.5 238.33 24.7273C238.33 28.0455 238.822 30.8333 239.807 33.0909C240.807 35.3485 242.201 37.053 243.989 38.2045C245.777 39.3561 247.845 39.9318 250.193 39.9318C251.511 39.9318 252.731 39.7576 253.852 39.4091C254.989 39.0606 255.996 38.553 256.875 37.8864C257.754 37.2045 258.481 36.3788 259.057 35.4091C259.648 34.4394 260.057 33.3333 260.284 32.0909L270.239 32.1364C269.981 34.2727 269.337 36.3333 268.307 38.3182C267.292 40.2879 265.92 42.053 264.193 43.6136C262.481 45.1591 260.436 46.3864 258.057 47.2955C255.693 48.1894 253.019 48.6364 250.034 48.6364C245.883 48.6364 242.17 47.697 238.898 45.8182C235.64 43.9394 233.064 41.2197 231.17 37.6591C229.292 34.0985 228.352 29.7879 228.352 24.7273C228.352 19.6515 229.307 15.3333 231.216 11.7727C233.125 8.21212 235.716 5.5 238.989 3.63636C242.261 1.75757 245.943 0.81818 250.034 0.81818C252.731 0.81818 255.231 1.19697 257.534 1.95454C259.852 2.71212 261.905 3.81818 263.693 5.27272C265.481 6.71212 266.936 8.47727 268.057 10.5682C269.193 12.6591 269.92 15.053 270.239 17.75Z"/>
</mask>
<path d="M0.0454545 1.45454V-0.545456H-1.95455V1.45454H0.0454545ZM12.1818 1.45454L14.0324 0.696022L13.5235 -0.545456H12.1818V1.45454ZM25 32.7273L23.1494 33.4858L23.6583 34.7273H25V32.7273ZM25.5455 32.7273V34.7273H26.8872L27.396 33.4858L25.5455 32.7273ZM38.3636 1.45454V-0.545456H37.0219L36.5131 0.696022L38.3636 1.45454ZM50.5 1.45454H52.5V-0.545456H50.5V1.45454ZM50.5 48V50H52.5V48H50.5ZM40.9545 48H38.9545V50H40.9545V48ZM40.9545 17.7045H42.9545V15.7045H40.9545V17.7045ZM40.5682 17.7045V15.7045H39.2149L38.7116 16.9608L40.5682 17.7045ZM28.5227 47.7727V49.7727H29.876L30.3793 48.5165L28.5227 47.7727ZM22.0227 47.7727L20.1652 48.5141L20.6675 49.7727H22.0227V47.7727ZM9.97727 17.5909L11.8348 16.8496L11.3325 15.5909H9.97727V17.5909ZM9.59091 17.5909V15.5909H7.59091V17.5909H9.59091ZM9.59091 48V50H11.5909V48H9.59091ZM0.0454545 48H-1.95455V50H0.0454545V48ZM0.0454545 3.45454H12.1818V-0.545456H0.0454545V3.45454ZM10.3312 2.21307L23.1494 33.4858L26.8506 31.9687L14.0324 0.696022L10.3312 2.21307ZM25 34.7273H25.5455V30.7273H25V34.7273ZM27.396 33.4858L40.2142 2.21307L36.5131 0.696022L23.6949 31.9687L27.396 33.4858ZM38.3636 3.45454H50.5V-0.545456H38.3636V3.45454ZM48.5 1.45454V48H52.5V1.45454H48.5ZM50.5 46H40.9545V50H50.5V46ZM42.9545 48V17.7045H38.9545V48H42.9545ZM40.9545 15.7045H40.5682V19.7045H40.9545V15.7045ZM38.7116 16.9608L26.6662 47.029L30.3793 48.5165L42.4247 18.4483L38.7116 16.9608ZM28.5227 45.7727H22.0227V49.7727H28.5227V45.7727ZM23.8803 47.0314L11.8348 16.8496L8.11974 18.3322L20.1652 48.5141L23.8803 47.0314ZM9.97727 15.5909H9.59091V19.5909H9.97727V15.5909ZM7.59091 17.5909V48H11.5909V17.5909H7.59091ZM9.59091 46H0.0454545V50H9.59091V46ZM2.04545 48V1.45454H-1.95455V48H2.04545ZM103.358 1.45454V-0.545456H101.358V1.45454H103.358ZM113.199 1.45454H115.199V-0.545456H113.199V1.45454ZM110.767 40.5909L109.08 39.5165L109.076 39.5237L110.767 40.5909ZM104.017 46.5455L104.893 48.3436L104.9 48.3399L104.017 46.5455ZM83.767 46.5455L82.8839 48.3399L82.8915 48.3436L83.767 46.5455ZM77.017 40.5909L75.3256 41.6581L75.3256 41.6581L77.017 40.5909ZM74.608 1.45454V-0.545456H72.608V1.45454H74.608ZM84.4489 1.45454H86.4489V-0.545456H84.4489V1.45454ZM85.608 35.5682L83.8633 36.546L83.8673 36.5532L83.8715 36.5605L85.608 35.5682ZM88.9261 38.8182L87.958 40.5682L87.958 40.5683L88.9261 38.8182ZM98.8807 38.8182L97.9125 37.0681L97.9046 37.0725L98.8807 38.8182ZM102.176 35.5682L100.44 34.5759L100.436 34.5831L100.431 34.5904L102.176 35.5682ZM103.358 3.45454H113.199V-0.545456H103.358V3.45454ZM111.199 1.45454V31.6818H115.199V1.45454H111.199ZM111.199 31.6818C111.199 34.744 110.472 37.331 109.08 39.5165L112.454 41.6653C114.304 38.7599 115.199 35.4075 115.199 31.6818H111.199ZM109.076 39.5237C107.681 41.7342 105.721 43.4777 103.134 44.751L104.9 48.3399C108.101 46.7647 110.641 44.5385 112.459 41.6581L109.076 39.5237ZM103.141 44.7473C100.569 46.0001 97.5072 46.6591 93.9034 46.6591V50.6591C97.9966 50.6591 101.678 49.909 104.893 48.3436L103.141 44.7473ZM93.9034 46.6591C90.2831 46.6591 87.2145 45.9996 84.6426 44.7473L82.8915 48.3436C86.1075 49.9095 89.7964 50.6591 93.9034 50.6591V46.6591ZM84.6502 44.751C82.063 43.4777 80.1033 41.7342 78.7085 39.5237L75.3256 41.6581C77.143 44.5385 79.6832 46.7647 82.8839 48.3399L84.6502 44.751ZM78.7085 39.5237C77.3289 37.3372 76.608 34.7476 76.608 31.6818H72.608C72.608 35.4039 73.493 38.7537 75.3256 41.6581L78.7085 39.5237ZM76.608 31.6818V1.45454H72.608V31.6818H76.608ZM74.608 3.45454H84.4489V-0.545456H74.608V3.45454ZM82.4489 1.45454V30.8409H86.4489V1.45454H82.4489ZM82.4489 30.8409C82.4489 32.9136 82.9036 34.8335 83.8633 36.546L87.3526 34.5904C86.7669 33.5452 86.4489 32.3136 86.4489 30.8409H82.4489ZM83.8715 36.5605C84.8459 38.2657 86.2215 39.6076 87.958 40.5682L89.8943 37.0681C88.7823 36.453 87.9458 35.6282 87.3444 34.5759L83.8715 36.5605ZM87.958 40.5683C89.7239 41.5451 91.7266 42 93.9034 42V38C92.2923 38 90.9769 37.667 89.8943 37.0681L87.958 40.5683ZM93.9034 42C96.0917 42 98.0992 41.5466 99.8567 40.5638L97.9046 37.0725C96.844 37.6655 95.5333 38 93.9034 38V42ZM99.8488 40.5682C101.589 39.6059 102.961 38.2595 103.921 36.546L100.431 34.5904C99.8463 35.6345 99.0213 36.4547 97.9126 37.0681L99.8488 40.5682ZM103.913 36.5605C104.893 34.8455 105.358 32.9203 105.358 30.8409H101.358C101.358 32.307 101.035 33.5333 100.44 34.5759L103.913 36.5605ZM105.358 30.8409V1.45454H101.358V30.8409H105.358ZM162.545 14.8409L160.555 15.0383L160.734 16.8409H162.545V14.8409ZM150.523 9.72727L151.261 11.586L151.272 11.5816L151.283 11.5772L150.523 9.72727ZM147.977 11.5682L146.377 10.3682L146.37 10.3781L146.362 10.3881L147.977 11.5682ZM147.114 14.25L149.112 14.3227L149.114 14.2864V14.25H147.114ZM147.636 16.4318L145.929 17.473L145.938 17.488L145.947 17.5029L147.636 16.4318ZM149.25 18.0455L148.141 19.7096L148.154 19.7182L148.167 19.7266L149.25 18.0455ZM151.614 19.2045L150.915 21.0785L150.929 21.0837L150.943 21.0887L151.614 19.2045ZM154.477 20.0227L154.942 18.0776L154.928 18.0742L154.914 18.071L154.477 20.0227ZM158.659 21.0227L158.194 22.9679L158.208 22.9713L158.222 22.9744L158.659 21.0227ZM164.25 22.8409L163.435 24.6672L163.435 24.6672L164.25 22.8409ZM168.659 25.6364L169.989 24.1425L169.989 24.1425L168.659 25.6364ZM171.545 29.5455L169.725 30.3731L169.728 30.3807L169.732 30.3882L171.545 29.5455ZM172.614 34.7045L174.614 34.7152L174.614 34.7021L174.614 34.6889L172.614 34.7045ZM170.432 42.1136L168.784 40.9796L168.783 40.9821L170.432 42.1136ZM164.25 46.9545L165.03 48.7961L165.035 48.7939L164.25 46.9545ZM144.727 46.9318L143.96 48.7789L143.964 48.7803L144.727 46.9318ZM138.227 41.8182L136.573 42.9428L136.578 42.9491L136.582 42.9555L138.227 41.8182ZM135.795 33.3864V31.3864H133.75L133.796 33.4316L135.795 33.3864ZM145.318 33.3864L147.314 33.2508L147.187 31.3864H145.318V33.3864ZM146.659 37.2955L145.062 38.4992L145.072 38.5121L145.082 38.5249L146.659 37.2955ZM149.864 39.6364L149.124 41.4948L149.137 41.4998L149.15 41.5047L149.864 39.6364ZM158.773 39.6818L158.046 37.8186L158.038 37.8217L158.773 39.6818ZM161.659 37.6591L163.229 38.8984L163.229 38.8984L161.659 37.6591ZM161.75 32.0455L160.227 33.3417L160.235 33.351L160.243 33.3602L161.75 32.0455ZM159.068 30.2273L158.28 32.0656L158.289 32.0692L159.068 30.2273ZM154.773 28.8636L154.286 30.8034L154.295 30.8057L154.304 30.8079L154.773 28.8636ZM149.705 27.5909L150.192 25.6511L150.184 25.6493L150.177 25.6476L149.705 27.5909ZM140.409 23.1136L139.077 24.6052L139.077 24.6052L140.409 23.1136ZM137.023 14.9091L139.023 14.9179L139.023 14.9081L139.023 14.8983L137.023 14.9091ZM139.273 7.52273L137.655 6.34706L137.649 6.35473L139.273 7.52273ZM163.705 2.59091L162.87 4.4087L162.875 4.41055L163.705 2.59091ZM169.75 7.52273L168.099 8.65124L168.099 8.65124L169.75 7.52273ZM171.977 14.8409V16.8409H174.01L173.977 14.8081L171.977 14.8409ZM164.536 14.6435C164.303 12.2946 163.263 10.3363 161.39 8.95762L159.019 12.1787C159.904 12.8303 160.425 13.7205 160.555 15.0383L164.536 14.6435ZM161.39 8.95762C159.559 7.60922 157.222 7.04545 154.591 7.04545V11.0455C156.687 11.0455 158.093 11.4968 159.019 12.1787L161.39 8.95762ZM154.591 7.04545C152.808 7.04545 151.177 7.29605 149.763 7.87739L151.283 11.5772C152.08 11.2494 153.161 11.0455 154.591 11.0455V7.04545ZM149.784 7.86857C148.408 8.41551 147.231 9.22944 146.377 10.3682L149.577 12.7682C149.905 12.3312 150.426 11.9178 151.261 11.586L149.784 7.86857ZM146.362 10.3881C145.53 11.5275 145.114 12.837 145.114 14.25H149.114C149.114 13.663 149.273 13.1846 149.592 12.7482L146.362 10.3881ZM145.115 14.1773C145.073 15.3436 145.317 16.4701 145.929 17.473L149.344 15.3906C149.198 15.1511 149.094 14.8231 149.112 14.3227L145.115 14.1773ZM145.947 17.5029C146.507 18.3857 147.253 19.1177 148.141 19.7096L150.359 16.3814C149.883 16.0641 149.553 15.7204 149.325 15.3607L145.947 17.5029ZM148.167 19.7266C148.988 20.2561 149.909 20.7035 150.915 21.0785L152.312 17.3306C151.53 17.039 150.875 16.7136 150.333 16.3643L148.167 19.7266ZM150.943 21.0887C151.92 21.4366 152.953 21.7311 154.04 21.9744L154.914 18.071C153.971 17.8598 153.095 17.6089 152.284 17.3203L150.943 21.0887ZM154.012 21.9679L158.194 22.9679L159.124 19.0776L154.942 18.0776L154.012 21.9679ZM158.222 22.9744C160.138 23.4033 161.873 23.9699 163.435 24.6672L165.065 21.0146C163.233 20.1968 161.241 19.5513 159.096 19.071L158.222 22.9744ZM163.435 24.6672C164.966 25.3507 166.257 26.1757 167.329 27.1302L169.989 24.1425C168.576 22.8849 166.928 21.8462 165.065 21.0146L163.435 24.6672ZM167.329 27.1302C168.365 28.0526 169.159 29.1294 169.725 30.3731L173.366 28.7178C172.568 26.9615 171.438 25.4322 169.989 24.1425L167.329 27.1302ZM169.732 30.3882C170.289 31.588 170.6 33.0178 170.614 34.7202L174.614 34.6889C174.597 32.5125 174.196 30.5029 173.359 28.7027L169.732 30.3882ZM170.614 34.6939C170.6 37.1919 169.969 39.2588 168.784 40.9796L172.079 43.2477C173.773 40.7866 174.597 37.9142 174.614 34.7152L170.614 34.6939ZM168.783 40.9821C167.607 42.6959 165.871 44.0877 163.465 45.1152L165.035 48.7939C168.023 47.5183 170.408 45.6829 172.081 43.2452L168.783 40.9821ZM163.47 45.113C161.097 46.1185 158.142 46.6591 154.545 46.6591V50.6591C158.525 50.6591 162.04 50.0633 165.03 48.796L163.47 45.113ZM154.545 46.6591C150.988 46.6591 147.985 46.1135 145.491 45.0833L143.964 48.7803C147.045 50.0532 150.588 50.6591 154.545 50.6591V46.6591ZM145.494 45.0848C143.042 44.0662 141.194 42.593 139.872 40.6809L136.582 42.9555C138.382 45.5586 140.867 47.4944 143.96 48.7789L145.494 45.0848ZM139.881 40.6936C138.596 38.8034 137.864 36.3889 137.795 33.3411L133.796 33.4316C133.879 37.0808 134.768 40.2875 136.573 42.9428L139.881 40.6936ZM135.795 35.3864H145.318V31.3864H135.795V35.3864ZM143.323 33.522C143.45 35.3932 143.998 37.0878 145.062 38.4992L148.256 36.0918C147.744 35.4122 147.399 34.5007 147.314 33.2508L143.323 33.522ZM145.082 38.5249C146.124 39.8628 147.494 40.8464 149.124 41.4948L150.603 37.778C149.566 37.3657 148.8 36.7887 148.237 36.066L145.082 38.5249ZM149.15 41.5047C150.762 42.1207 152.533 42.4091 154.432 42.4091V38.4091C152.937 38.4091 151.662 38.1823 150.577 37.7681L149.15 41.5047ZM154.432 42.4091C156.287 42.4091 157.994 42.14 159.508 41.5419L158.038 37.8217C157.097 38.1933 155.91 38.4091 154.432 38.4091V42.4091ZM159.5 41.545C161.003 40.9582 162.284 40.095 163.229 38.8984L160.089 36.4198C159.67 36.9505 159.027 37.4357 158.046 37.8187L159.5 41.545ZM163.229 38.8984C164.195 37.6746 164.682 36.2435 164.682 34.6818H160.682C160.682 35.3626 160.487 35.9163 160.089 36.4198L163.229 38.8984ZM164.682 34.6818C164.682 33.2082 164.231 31.8467 163.257 30.7307L160.243 33.3602C160.512 33.6685 160.682 34.0645 160.682 34.6818H164.682ZM163.273 30.7492C162.404 29.7282 161.215 28.964 159.847 28.3853L158.289 32.0692C159.285 32.4906 159.884 32.9384 160.227 33.3417L163.273 30.7492ZM159.856 28.389C158.556 27.8318 157.01 27.3457 155.241 26.9193L154.304 30.8079C155.929 31.1997 157.247 31.6227 158.28 32.0656L159.856 28.389ZM155.26 26.9239L150.192 25.6511L149.217 29.5307L154.286 30.8034L155.26 26.9239ZM150.177 25.6476C146.472 24.7464 143.702 23.3739 141.742 21.6221L139.077 24.6052C141.661 26.914 145.088 28.5263 149.232 29.5342L150.177 25.6476ZM141.742 21.6221C139.953 20.0247 139.01 17.8666 139.023 14.9179L135.023 14.9003C135.005 18.8304 136.319 22.142 139.077 24.6052L141.742 21.6221ZM139.023 14.8983C139.01 12.4645 139.65 10.4236 140.896 8.69072L137.649 6.35473C135.866 8.83401 135.006 11.7173 135.023 14.9198L139.023 14.8983ZM140.891 8.69838C142.19 6.91038 143.994 5.47607 146.379 4.41939L144.758 0.762429C141.809 2.06939 139.416 3.92296 137.655 6.34708L140.891 8.69838ZM146.379 4.41939C148.752 3.36767 151.499 2.81818 154.659 2.81818V-1.18182C151.031 -1.18182 147.718 -0.549487 144.758 0.762429L146.379 4.41939ZM154.659 2.81818C157.887 2.81818 160.607 3.37026 162.87 4.4087L164.539 0.773116C161.65 -0.552084 158.34 -1.18182 154.659 -1.18182V2.81818ZM162.875 4.41055C165.173 5.45919 166.888 6.8801 168.099 8.65124L171.401 6.39421C169.733 3.95323 167.417 2.08627 164.535 0.77127L162.875 4.41055ZM168.099 8.65124C169.298 10.4059 169.938 12.4569 169.978 14.8737L173.977 14.8081C173.926 11.6795 173.081 8.85171 171.401 6.39421L168.099 8.65124ZM171.977 12.8409H162.545V16.8409H171.977V12.8409ZM205.074 1.45454H207.074V-0.545456H205.074V1.45454ZM205.074 48V50H207.074V48H205.074ZM195.233 48H193.233V50H195.233V48ZM195.233 1.45454V-0.545456H193.233V1.45454H195.233ZM203.074 1.45454V48H207.074V1.45454H203.074ZM205.074 46H195.233V50H205.074V46ZM197.233 48V1.45454H193.233V48H197.233ZM195.233 3.45454H205.074V-0.545456H195.233V3.45454ZM270.239 17.75V19.75H272.488L272.225 17.5157L270.239 17.75ZM260.284 17.75L258.304 18.0296L258.547 19.75H260.284V17.75ZM259.17 14.3182L257.42 15.285L257.426 15.2962L259.17 14.3182ZM257.011 11.7273L255.752 13.2811L255.752 13.2811L257.011 11.7273ZM253.966 10.0909L253.333 11.9883L253.341 11.9908L253.966 10.0909ZM243.966 11.3182L245.069 12.9866L245.079 12.9801L243.966 11.3182ZM239.807 16.5L241.64 17.2997L241.642 17.2952L239.807 16.5ZM239.807 33.0909L237.974 33.8906L237.978 33.9009L239.807 33.0909ZM243.989 38.2045L242.906 39.886L242.906 39.886L243.989 38.2045ZM253.852 39.4091L253.266 37.497L253.259 37.4992L253.852 39.4091ZM256.875 37.8864L258.084 39.4797L258.092 39.4732L258.101 39.4665L256.875 37.8864ZM259.057 35.4091L257.349 34.3684L257.343 34.3781L257.337 34.388L259.057 35.4091ZM260.284 32.0909L260.293 30.0909L258.618 30.0833L258.317 31.731L260.284 32.0909ZM270.239 32.1364L272.224 32.3758L272.493 30.1466L270.248 30.1364L270.239 32.1364ZM268.307 38.3182L266.532 37.3968L266.529 37.4019L268.307 38.3182ZM264.193 43.6136L265.533 45.0983L265.534 45.0976L264.193 43.6136ZM258.057 47.2955L258.764 49.1661L258.771 49.1637L258.057 47.2955ZM238.898 45.8182L237.899 47.5507L237.902 47.5527L238.898 45.8182ZM231.17 37.6591L229.402 38.5924L229.405 38.5983L231.17 37.6591ZM231.216 11.7727L232.979 12.7178L232.979 12.7178L231.216 11.7727ZM238.989 3.63636L239.978 5.37434L239.984 5.37087L238.989 3.63636ZM257.534 1.95454L256.909 3.8544L256.913 3.85561L257.534 1.95454ZM263.693 5.27272L262.431 6.82417L262.439 6.83059L263.693 5.27272ZM268.057 10.5682L266.294 11.5133L266.3 11.5232L268.057 10.5682ZM270.239 15.75H260.284V19.75H270.239V15.75ZM262.264 17.4704C262.053 15.9699 261.612 14.5834 260.915 13.3402L257.426 15.2962C257.85 16.0529 258.152 16.9544 258.304 18.0296L262.264 17.4704ZM260.921 13.3513C260.239 12.1165 259.355 11.0518 258.271 10.1734L255.752 13.2811C256.426 13.8269 256.98 14.4896 257.42 15.285L260.921 13.3513ZM258.271 10.1734C257.19 9.29775 255.956 8.64024 254.591 8.19106L253.341 11.9908C254.278 12.2992 255.075 12.7325 255.752 13.2811L258.271 10.1734ZM254.598 8.19354C253.236 7.73955 251.786 7.52273 250.261 7.52273V11.5227C251.404 11.5227 252.423 11.6847 253.333 11.9883L254.598 8.19354ZM250.261 7.52273C247.505 7.52273 245.009 8.21303 242.853 9.65625L245.079 12.9801C246.499 12.0294 248.199 11.5227 250.261 11.5227V7.52273ZM242.863 9.64974C240.704 11.0772 239.086 13.1329 237.972 15.7048L241.642 17.2952C242.497 15.3216 243.653 13.9228 245.069 12.9866L242.863 9.64974ZM237.974 15.7003C236.85 18.2754 236.33 21.3062 236.33 24.7273H240.33C240.33 21.6938 240.794 19.2398 241.64 17.2997L237.974 15.7003ZM236.33 24.7273C236.33 28.2304 236.848 31.3095 237.974 33.8906L241.64 32.2912C240.796 30.3572 240.33 27.8605 240.33 24.7273H236.33ZM237.978 33.9009C239.11 36.4567 240.739 38.4906 242.906 39.886L245.072 36.5231C243.662 35.6154 242.503 34.2403 241.635 32.2809L237.978 33.9009ZM242.906 39.886C245.05 41.2669 247.502 41.9318 250.193 41.9318V37.9318C248.187 37.9318 246.503 37.4453 245.072 36.5231L242.906 39.886ZM250.193 41.9318C251.688 41.9318 253.111 41.734 254.446 41.319L253.259 37.4992C252.352 37.7811 251.334 37.9318 250.193 37.9318V41.9318ZM254.439 41.3212C255.782 40.9092 257.004 40.299 258.084 39.4797L255.666 36.293C254.989 36.807 254.195 37.212 253.266 37.497L254.439 41.3212ZM258.101 39.4665C259.181 38.6288 260.075 37.6125 260.777 36.4302L257.337 34.388C256.888 35.1451 256.327 35.7803 255.649 36.3062L258.101 39.4665ZM260.765 36.4498C261.497 35.2488 261.985 33.9072 262.251 32.4508L258.317 31.731C258.129 32.7595 257.799 33.63 257.349 34.3684L260.765 36.4498ZM260.275 34.0909L270.23 34.1363L270.248 30.1364L260.293 30.0909L260.275 34.0909ZM268.253 31.897C268.025 33.7859 267.456 35.6163 266.532 37.3968L270.082 39.2396C271.218 37.0504 271.937 34.7596 272.224 32.3758L268.253 31.897ZM266.529 37.4019C265.63 39.147 264.41 40.7222 262.852 42.1296L265.534 45.0976C267.431 43.3839 268.954 41.4288 270.085 39.2344L266.529 37.4019ZM262.853 42.129C261.342 43.4927 259.515 44.5971 257.343 45.4272L258.771 49.1637C261.356 48.1756 263.62 46.8255 265.533 45.0983L262.853 42.129ZM257.349 45.4248C255.249 46.2193 252.82 46.6364 250.034 46.6364V50.6364C253.218 50.6364 256.138 50.1595 258.764 49.1661L257.349 45.4248ZM250.034 46.6364C246.196 46.6364 242.833 45.7715 239.893 44.0837L237.902 47.5527C241.507 49.6225 245.569 50.6364 250.034 50.6364V46.6364ZM239.897 44.0857C236.988 42.4079 234.667 39.9744 232.936 36.7199L229.405 38.5983C231.461 42.465 234.292 45.4709 237.899 47.5507L239.897 44.0857ZM232.939 36.7257C231.246 33.5174 230.352 29.5444 230.352 24.7273H226.352C226.352 30.0313 227.337 34.6796 229.402 38.5924L232.939 36.7257ZM230.352 24.7273C230.352 19.8984 231.26 15.9226 232.979 12.7178L229.453 10.8277C227.353 14.7441 226.352 19.4046 226.352 24.7273H230.352ZM232.979 12.7178C234.723 9.46381 237.057 7.03804 239.978 5.37433L237.999 1.89839C234.375 3.96196 231.527 6.96043 229.453 10.8277L232.979 12.7178ZM239.984 5.37087C242.929 3.68052 246.262 2.81818 250.034 2.81818V-1.18182C245.624 -1.18182 241.594 -0.165368 237.993 1.90186L239.984 5.37087ZM250.034 2.81818C252.542 2.81818 254.829 3.17017 256.909 3.8544L258.159 0.0546925C255.633 -0.776231 252.92 -1.18182 250.034 -1.18182V2.81818ZM256.913 3.85561C259.011 4.54143 260.844 5.53334 262.431 6.82415L264.955 3.7213C262.966 2.10302 260.693 0.882814 258.155 0.0534829L256.913 3.85561ZM262.439 6.83059C264.011 8.09619 265.295 9.65054 266.294 11.5133L269.819 9.62303C268.576 7.304 266.951 5.32805 264.947 3.71486L262.439 6.83059ZM266.3 11.5232C267.299 13.3613 267.96 15.5046 268.252 17.9843L272.225 17.5157C271.881 14.6014 271.088 11.9568 269.814 9.61315L266.3 11.5232Z" fill="#4AD66D" mask="url(#path-1-outside-1_123_521)"/>
</g>
</svg>
