<svg width="70" height="70" viewBox="0 0 70 70" fill="none" xmlns="http://www.w3.org/2000/svg">
<g clip-path="url(#clip0_205_146)">
<path d="M32.7077 0.0188372C32.5572 0.0325205 32.0782 0.0804118 31.6471 0.11462C21.7048 1.01087 12.392 6.3747 6.49365 14.6188C3.20919 19.2027 1.1085 24.4024 0.314761 29.9099C0.0342131 31.8323 0 32.4002 0 35.0069C0 37.6135 0.0342131 38.1814 0.314761 40.1039C2.21701 53.2466 11.5709 64.289 24.2571 68.3802C26.5288 69.1123 28.9238 69.6117 31.6471 69.9128C32.7077 70.0291 37.2923 70.0291 38.3529 69.9128C43.0538 69.3928 47.0362 68.2297 50.9638 66.2251C51.566 65.9173 51.6823 65.8352 51.6002 65.7668C51.5455 65.7257 48.9795 62.2844 45.9003 58.1247L40.303 50.5647L33.2893 40.186C29.4301 34.48 26.2551 29.8141 26.2278 29.8141C26.2004 29.8072 26.173 34.4185 26.1593 40.0491C26.1388 49.9079 26.132 50.3047 26.0088 50.5373C25.8309 50.8726 25.694 51.0094 25.4066 51.1599C25.1877 51.2694 24.9961 51.2899 23.9629 51.2899H22.7791L22.4643 51.0915C22.259 50.9615 22.1085 50.7905 22.0059 50.592L21.8622 50.2842L21.8759 36.5667L21.8964 22.8425L22.1085 22.5756C22.218 22.432 22.4506 22.2472 22.6149 22.1583C22.8954 22.0215 23.0049 22.0078 24.1887 22.0078C25.5846 22.0078 25.8172 22.0625 26.1799 22.4593C26.2825 22.5688 30.0802 28.2884 34.6237 35.1779C39.1672 42.0674 45.3803 51.4746 48.4321 56.0927L53.9746 64.4874L54.2551 64.3026C56.739 62.688 59.3666 60.3892 61.4467 57.9947C65.8739 52.9114 68.7273 46.7129 69.6852 40.1039C69.9658 38.1814 70 37.6135 70 35.0069C70 32.4002 69.9658 31.8323 69.6852 29.9099C67.783 16.7671 58.4291 5.72474 45.7429 1.63346C43.5054 0.908247 41.1241 0.408809 38.4555 0.107778C37.7986 0.0393621 33.2757 -0.0358957 32.7077 0.0188372ZM47.0362 21.1868C47.3646 21.351 47.6315 21.6657 47.7273 21.9941C47.782 22.172 47.7957 25.9759 47.782 34.5485L47.7615 46.8497L45.5924 43.5247L43.4164 40.1996V31.2576C43.4164 25.4765 43.4438 22.2267 43.4848 22.0694C43.5943 21.6862 43.8338 21.3852 44.1623 21.2073C44.4428 21.0636 44.5455 21.05 45.6197 21.05C46.6325 21.05 46.8104 21.0636 47.0362 21.1868Z" fill="#8C8C8C"/>
</g>
<defs>
<clipPath id="clip0_205_146">
<rect width="70" height="70" fill="white"/>
</clipPath>
</defs>
</svg>
