<svg width="70" height="70" viewBox="0 0 70 70" fill="none" xmlns="http://www.w3.org/2000/svg">
<path d="M61.6716 16.5889L37.5561 2.58621C36.0352 1.71996 34.055 1.71996 32.5221 2.58621L8.14898 16.5889C6.57945 17.4918 5.46875 19.1888 5.46875 21.0039V48.9722C5.46875 50.7872 6.60844 52.4847 8.17797 53.3925L14.6174 57.05C17.6952 58.566 18.783 58.566 20.1835 58.566C24.7406 58.566 27.3438 55.8103 27.3438 51.0038V23.3921C27.3438 23.0021 27.1409 22.4219 26.758 22.4219H23.683C23.2936 22.4219 22.4219 23.0021 22.4219 23.3915V51.0032C22.4219 53.1339 20.4947 55.2541 16.893 53.4532L10.2391 49.618C10.0073 49.4922 9.84375 49.239 9.84375 48.9722V21.0039C9.84375 20.7403 10.1473 20.4756 10.3808 20.3405L34.6752 6.36184C34.9021 6.23332 35.2357 6.23332 35.4621 6.36184L59.4601 20.3372C59.6898 20.4756 59.6088 20.7321 59.6088 21.0039V48.9722C59.6088 49.239 59.7089 49.4988 59.482 49.6273L35.3724 63.6142C35.1657 63.7383 34.9092 63.7383 34.6828 63.6142L28.4993 59.9233C28.3128 59.815 28.0913 59.7762 27.9125 59.8763C26.192 60.8514 25.8748 60.981 24.261 61.5404C23.864 61.6788 23.2783 61.9189 24.4852 62.5954L32.5779 67.3827C33.3528 67.8311 34.2333 68.0641 35.1192 68.0641C36.0172 68.0641 36.8966 67.8311 37.6715 67.3827L61.6711 53.3925C63.2406 52.4782 63.9844 50.7872 63.9844 48.9722V21.0039C63.9844 19.1888 63.2406 17.4962 61.6716 16.5889ZM42.607 44.5403C36.1944 44.5403 34.7818 42.7711 34.3109 39.5823C34.2563 39.2389 33.9648 38.8282 33.6153 38.8282H30.4812C30.0934 38.8282 29.7817 39.2985 29.7817 39.6846C29.7817 43.7675 32.0015 48.7146 42.6076 48.7146C50.2852 48.7146 54.687 45.7314 54.687 40.4518C54.687 35.2171 51.1503 33.8434 43.7046 32.8579C36.1785 31.8632 35.414 31.3606 35.414 29.5975C35.414 28.1439 36.0615 26.2052 41.6341 26.2052C46.6134 26.2052 48.4487 27.2738 49.204 30.63C49.2685 30.9455 49.5567 31.1719 49.8821 31.1719H53.0288C53.2224 31.1719 53.4073 31.0937 53.5429 30.9554C53.6741 30.8066 53.7436 30.6201 53.7261 30.42C53.2388 24.6406 49.3992 21.9472 41.6336 21.9472C34.726 21.9472 30.6053 24.8643 30.6053 29.7539C30.6053 35.0575 34.7052 36.5231 41.3361 37.1788C49.2685 37.9564 49.8854 39.1158 49.8854 40.6761C49.8854 43.3858 47.7099 44.5403 42.607 44.5403Z" fill="#8C8C8C"/>
</svg>
