<svg width="70" height="71" viewBox="0 0 70 71" fill="none" xmlns="http://www.w3.org/2000/svg">
<path d="M24.9902 19.75C22.1552 19.75 19.4602 19.75 17.6227 19.89C17.3952 19.89 16.9927 20.03 16.9927 20.24V50.9C16.9927 51.1625 17.1152 51.25 17.3427 51.25H21.7002C21.9627 51.25 22.0502 51.1275 22.0502 50.9V39.945H24.2727C30.7302 39.945 35.9802 36.83 35.9802 29.585C35.9802 24.09 32.9002 19.75 24.9902 19.75ZM24.3952 35.5C23.6258 35.5438 22.8546 35.5438 22.0852 35.5V24.37C22.5927 24.37 23.6777 24.2825 24.8152 24.2825C28.6127 24.2825 30.8702 26.12 30.8702 29.7425C30.8702 34.275 27.7202 35.5 24.3952 35.5ZM53.0602 44.74C53.0602 49.3075 49.5602 51.74 44.8352 51.74C42.8105 51.8144 40.7982 51.3939 38.9727 50.515C38.7802 50.4275 38.7452 50.2875 38.7452 50.06V45.825C38.7452 45.545 38.8852 45.4575 39.0952 45.5975C40.801 46.7195 42.7936 47.327 44.8352 47.3475C47.1102 47.3475 48.0552 46.4025 48.0552 45.1075C48.0552 43.8125 47.3902 43.165 44.5552 41.6075C40.4952 39.665 38.7977 37.6875 38.7977 34.3975C38.7977 30.705 41.6852 27.6425 46.6902 27.6425C48.4361 27.563 50.1801 27.8368 51.8177 28.4475C51.9104 28.507 51.9854 28.5905 52.0346 28.689C52.0839 28.7876 52.1057 28.8976 52.0977 29.0075V32.9275C52.0977 33.1725 51.9577 33.3125 51.6777 33.225C50.1414 32.3632 48.3981 31.9395 46.6377 32C44.3802 32 43.6102 33.155 43.6102 34.1C43.6102 35.045 44.1352 35.85 47.1102 37.4075C51.6602 39.5425 53.0602 41.625 53.0602 44.6875V44.74Z" fill="#36ABFF"/>
</svg>
