<svg width="70" height="71" viewBox="0 0 70 71" fill="none" xmlns="http://www.w3.org/2000/svg">
<path d="M18.3042 9C13.5881 9 9.1048 9 6.04803 9.2329C5.66958 9.2329 5 9.46579 5 9.81514V60.8195C5 61.2562 5.20378 61.4017 5.58224 61.4017H12.8311C13.2678 61.4017 13.4134 61.198 13.4134 60.8195V42.5953H17.1106C27.853 42.5953 36.5866 37.4134 36.5866 25.361C36.5866 16.2198 31.4629 9 18.3042 9ZM17.3144 35.2009C16.0345 35.2737 14.7515 35.2737 13.4716 35.2009V16.6856C14.3159 16.6856 16.1208 16.54 18.0131 16.54C24.3304 16.54 28.0859 19.5968 28.0859 25.623C28.0859 33.163 22.8457 35.2009 17.3144 35.2009ZM65 50.5721C65 58.1703 59.1776 62.2169 51.3173 62.2169C47.9491 62.3406 44.6016 61.6411 41.5648 60.179C41.2445 60.0335 41.1863 59.8006 41.1863 59.4221V52.377C41.1863 51.9112 41.4192 51.7656 41.7686 51.9985C44.6062 53.865 47.921 54.8756 51.3173 54.9097C55.1019 54.9097 56.6739 53.3377 56.6739 51.1834C56.6739 49.0291 55.5677 47.952 50.8515 45.361C44.0975 42.1295 41.2737 38.8399 41.2737 33.3668C41.2737 27.2242 46.0772 22.1295 54.4032 22.1295C57.3076 21.9973 60.2089 22.4528 62.933 23.4687C63.0873 23.5677 63.212 23.7065 63.294 23.8705C63.3759 24.0344 63.4122 24.2175 63.3988 24.4003V30.9214C63.3988 31.329 63.1659 31.5619 62.7001 31.4163C60.1445 29.9826 57.2444 29.2777 54.3159 29.3785C50.5604 29.3785 49.2795 31.2999 49.2795 32.8719C49.2795 34.444 50.1528 35.7831 55.1019 38.3741C62.671 41.9258 65 45.3901 65 50.4847V50.5721Z" fill="#36ABFF"/>
</svg>
