<svg width="94" height="70" viewBox="0 0 94 70" fill="none" xmlns="http://www.w3.org/2000/svg">
<g clip-path="url(#clip0_205_144)">
<path d="M80.3178 40.2136C77.0548 40.232 74.2293 41.0157 71.8595 42.1826C70.9845 40.4508 70.1095 38.9376 69.9638 37.8076C69.7998 36.4951 69.5992 35.6928 69.7998 34.1253C70.0001 32.5574 70.9116 30.3334 70.9116 30.1511C70.8931 29.9871 70.7109 29.185 68.8334 29.1668C66.956 29.1485 65.3334 29.5313 65.1511 30.0235C64.9688 30.5157 64.6043 31.6459 64.3673 32.8126C64.0392 34.5261 60.6121 40.5964 58.6616 43.7865C58.0235 42.547 57.4767 41.4532 57.3671 40.578C57.2032 39.2657 57.0025 38.4634 57.2032 36.8959C57.4037 35.328 58.3152 33.1043 58.3152 32.922C58.297 32.7579 58.1147 31.9558 56.2373 31.9376C54.3595 31.9194 52.7373 32.3022 52.555 32.7944C52.3727 33.2865 52.1722 34.4532 51.7711 35.5834C51.3881 36.7136 46.8308 46.849 45.6459 49.4923C45.0444 50.8412 44.5159 51.9168 44.1329 52.6459C43.7501 53.3751 44.1147 52.7006 44.0782 52.7735C43.7501 53.3933 43.5678 53.7397 43.5678 53.7397V53.7581C43.3126 54.2138 43.0392 54.6511 42.9114 54.6511C42.8202 54.6511 42.6379 53.4298 42.9478 51.7529C43.6223 48.2345 45.2629 42.7477 45.2449 42.5471C45.2449 42.456 45.5546 41.4897 44.1874 40.9977C42.8567 40.5055 42.3829 41.3258 42.2733 41.3258C42.164 41.3258 42.0728 41.6175 42.0728 41.6175C42.0728 41.6175 43.5494 35.4379 39.2473 35.4379C36.5494 35.4379 32.8306 38.3728 30.9895 41.0525C29.8228 41.6906 27.3437 43.0393 24.7187 44.4796C23.7161 45.0265 22.677 45.6098 21.6926 46.1385L21.4923 45.9194C16.2787 40.3595 6.63551 36.422 7.03655 28.948C7.18238 26.2319 8.1303 19.0678 25.5576 10.3907C39.831 3.28133 51.2607 5.23186 53.2475 9.5704C56.073 15.7683 47.1407 27.2891 32.3024 28.948C26.6513 29.586 23.6798 27.3985 22.9326 26.5782C22.1487 25.7214 22.0393 25.685 21.7477 25.849C21.2737 26.1043 21.5654 26.8699 21.7477 27.3256C22.1852 28.474 24.0081 30.5157 27.107 31.5365C29.823 32.4298 36.4586 32.922 44.4794 29.823C53.4664 26.3412 60.4847 16.6798 58.4248 8.60425C56.3284 0.382897 42.693 -2.31502 29.805 2.2605C22.1303 4.99488 13.8178 9.2605 7.83863 14.8569C0.729255 21.4923 -0.400953 27.2891 0.0730053 29.6954C1.73204 38.2813 13.5626 43.8777 18.3022 48.0157C18.0652 48.1431 17.8464 48.2707 17.6459 48.3803C15.2761 49.5468 6.25269 54.2683 3.99228 59.2629C1.44019 64.914 4.39332 68.9793 6.36207 69.5261C12.4506 71.2214 18.685 68.1772 22.0574 63.1642C25.4114 58.1511 25.0105 51.6433 23.461 48.672L23.4062 48.5626L25.2655 47.4688C26.4688 46.7579 27.6537 46.1016 28.6926 45.5364C28.1095 47.1223 27.69 48.9999 27.4714 51.7343C27.2162 54.9428 28.5287 59.0989 30.2605 60.7395C31.0261 61.4502 31.9376 61.4687 32.5027 61.4687C34.5079 61.4687 35.4194 59.8096 36.422 57.8228C37.6616 55.3983 38.7553 52.591 38.7553 52.591C38.7553 52.591 37.3881 60.1926 41.1251 60.1926C42.4923 60.1926 43.8595 58.4244 44.4793 57.5129V57.5312C44.4793 57.5312 44.5157 57.4765 44.5886 57.3489C44.6651 57.2358 44.7381 57.1203 44.8074 57.0027V56.9662C45.3543 56.0183 46.5756 53.849 48.3985 50.2579C50.7499 45.6277 53.0105 39.8308 53.0105 39.8308C53.0105 39.8308 53.2293 41.2527 53.9037 43.586C54.3046 44.9716 55.1796 46.4845 55.8541 47.961C55.3072 48.7267 54.9791 49.1643 54.9791 49.1643L54.9973 49.1826C54.56 49.7659 54.0676 50.3859 53.5574 51.0055C51.698 53.2294 49.474 55.7635 49.1824 56.4926C48.836 57.3492 48.9089 57.9873 49.5834 58.4978C50.0756 58.8624 50.9506 58.9352 51.8803 58.8624C53.5574 58.7529 54.7241 58.3338 55.3074 58.0784C56.2188 57.7503 57.2579 57.2581 58.2605 56.5289C60.0834 55.1801 61.1954 53.2661 61.086 50.714C61.0313 49.3103 60.5756 47.9249 60.0105 46.6124C60.1746 46.3754 60.3388 46.1383 60.5027 45.8833C63.3829 41.6721 65.6069 37.0421 65.6069 37.0421C65.6069 37.0421 65.8256 38.464 66.5001 40.7973C66.8463 41.9822 67.5392 43.2767 68.1589 44.5527C65.461 46.7584 63.7657 49.3105 63.1824 50.9876C62.1069 54.0866 62.9454 55.4902 64.5313 55.8183C65.2421 55.9642 66.2631 55.6361 67.0286 55.3079C67.9765 54.998 69.1249 54.4692 70.1824 53.6855C72.0053 52.3366 73.7553 50.459 73.6642 47.9251C73.6095 46.7584 73.2996 45.61 72.8803 44.5163C75.1772 43.5683 78.1484 43.0215 81.922 43.4772C90.034 44.4251 91.6381 49.4928 91.3284 51.6074C91.0185 53.7222 89.3232 54.8887 88.7579 55.2532C88.1928 55.5996 88.0105 55.7274 88.0652 55.9824C88.1381 56.3654 88.3933 56.347 88.8855 56.2743C89.56 56.1647 93.1511 54.5425 93.297 50.6416C93.5157 45.6279 88.7579 40.1591 80.3178 40.2136ZM17.7553 61.3048C15.0756 64.2397 11.3022 65.3516 9.69801 64.4037C7.96624 63.4011 8.64053 59.0808 11.9402 55.9636C13.9454 54.0678 16.5522 52.3178 18.2657 51.2423C18.6485 51.0053 19.2319 50.6591 19.9246 50.2397C20.0339 50.1669 20.1069 50.1303 20.1069 50.1303C20.2345 50.0574 20.3803 49.9662 20.5261 49.8751C21.7475 54.323 20.5808 58.224 17.7553 61.3048ZM37.3517 47.9793C36.422 50.2579 34.4532 56.1095 33.2683 55.7813C32.2473 55.5079 31.6277 51.0782 33.0676 46.7032C33.7968 44.4973 35.3463 41.8725 36.2577 40.8515C37.7345 39.2108 39.3385 38.664 39.7397 39.3384C40.2136 40.2136 37.935 46.5574 37.3517 47.9793ZM53.5209 55.7084C53.1199 55.9091 52.7553 56.0548 52.5912 55.9456C52.4636 55.8727 52.7551 55.5992 52.7551 55.5992C52.7551 55.5992 54.7786 53.43 55.5806 52.4274C56.0364 51.8442 56.5832 51.1697 57.1666 50.4039V50.6227C57.1668 53.2475 54.6511 54.9975 53.5209 55.7084ZM65.9895 52.8647C65.6978 52.6459 65.7345 51.9714 66.7187 49.8569C67.1017 49.0183 67.9765 47.6147 69.4895 46.2839C69.6718 46.8308 69.7813 47.3593 69.7629 47.8516C69.7449 51.1329 67.4116 52.3543 65.9895 52.8647Z" fill="#8C8C8C"/>
</g>
<defs>
<clipPath id="clip0_205_144">
<rect width="93.3333" height="70" fill="white"/>
</clipPath>
</defs>
</svg>
