<svg width="70" height="70" viewBox="0 0 70 70" fill="none" xmlns="http://www.w3.org/2000/svg">
<path d="M53.9585 27.7375C51.7712 26.9841 49.8404 25.6296 48.3877 23.8292C46.7866 21.8232 44.7478 20.21 42.4275 19.113C40.1071 18.016 37.5665 17.4642 35.0002 17.5C31.5479 17.2555 28.1302 18.3203 25.4277 20.4823C22.7252 22.6443 20.9361 25.7449 20.4168 29.1667C21.4396 27.4553 22.979 26.1125 24.8134 25.3316C26.6478 24.5507 28.6827 24.3718 30.6252 24.8208C32.8088 25.5961 34.7364 26.9585 36.196 28.7583C37.8059 30.7483 39.8485 32.3448 42.1684 33.4264C44.4882 34.508 47.0243 35.0462 49.5835 35C53.0358 35.2445 56.4535 34.1797 59.156 32.0177C61.8585 29.8557 63.6475 26.7551 64.1668 23.3333C63.1626 25.0652 61.6281 26.4282 59.79 27.2212C57.9518 28.0143 55.9074 28.1953 53.9585 27.7375ZM16.0418 42.2625C18.2292 43.0158 20.1599 44.3704 21.6127 46.1708C23.2138 48.1768 25.2525 49.79 27.5729 50.887C29.8932 51.984 32.4338 52.5357 35.0002 52.5C38.4524 52.7445 41.8701 51.6797 44.5726 49.5177C47.2752 47.3557 49.0642 44.2551 49.5835 40.8333C48.5607 42.5447 47.0213 43.8875 45.1869 44.6684C43.3525 45.4493 41.3177 45.6282 39.3752 45.1792C37.1915 44.4039 35.2639 43.0414 33.8043 41.2417C32.1901 39.2566 30.1467 37.6636 27.8278 36.5825C25.5089 35.5013 22.975 34.9603 20.4168 35C16.9646 34.7555 13.5469 35.8203 10.8443 37.9823C8.14183 40.1443 6.35279 43.2449 5.8335 46.6667C6.83772 44.9348 8.37219 43.5718 10.2103 42.7787C12.0485 41.9857 14.0929 41.8047 16.0418 42.2625Z" fill="#8C8C8C"/>
</svg>
