<svg width="70" height="70" viewBox="0 0 70 70" fill="none" xmlns="http://www.w3.org/2000/svg">
<g clip-path="url(#clip0_205_112)">
<path d="M66.9045 25.7031H12.3975V65.9914H66.9045V25.7031Z" fill="white"/>
<path d="M0.820312 34.9507V69.1304H69.1797V0.770996H0.820312V34.9507ZM55.907 32.2163C57.5443 32.5963 59.0324 33.4526 60.1836 34.6772C60.8173 35.337 61.3683 36.0716 61.8242 36.8647C61.8242 36.9522 58.8711 38.9483 57.0719 40.064C57.0063 40.1077 56.7438 39.8233 56.4539 39.3913C56.1255 38.8246 55.6588 38.3503 55.0974 38.0127C54.5361 37.6751 53.8983 37.4853 53.2438 37.4608C51.1711 37.3187 49.8367 38.4069 49.8477 40.1952C49.8305 40.6404 49.9325 41.0822 50.143 41.4749C50.5969 42.421 51.4445 42.9843 54.1023 44.1327C58.9969 46.2382 61.0914 47.6272 62.393 49.6015C63.8477 51.789 64.1703 55.3218 63.1859 57.9358C62.0922 60.7796 59.4125 62.7101 55.6227 63.3499C53.8917 63.5482 52.1428 63.5298 50.4164 63.2952C47.7704 62.8591 45.3331 61.5887 43.4602 59.6694C42.8313 58.9749 41.6063 57.1647 41.6828 57.0335C41.8825 56.8853 42.0926 56.7519 42.3117 56.6343L44.8438 55.2343L46.807 54.0968L47.2172 54.7038C47.9094 55.694 48.7903 56.5377 49.8094 57.1866C51.9969 58.3351 54.9828 58.1765 56.4594 56.8476C56.9551 56.3606 57.2644 55.7152 57.3334 55.0237C57.4023 54.3322 57.2266 53.6384 56.8367 53.0632C56.2898 52.303 55.1961 51.6632 52.1391 50.3288C48.6117 48.8085 47.0914 47.8679 45.7023 46.3694C44.8352 45.3806 44.1949 44.214 43.8266 42.9515C43.5518 41.5091 43.5112 40.0318 43.7062 38.5765C44.4336 35.1694 46.9875 32.7905 50.7172 32.0851C52.4444 31.8713 54.1941 31.9193 55.907 32.2272V32.2163ZM39.8617 35.0819V37.8819H30.9859V63.164H24.6914V37.8765H15.7937V35.1421C15.766 34.1991 15.7879 33.2554 15.8594 32.3147C15.9031 32.2655 21.3281 32.2655 27.8906 32.2655H39.8289L39.8617 35.0819Z" fill="#007ACC"/>
</g>
<defs>
<clipPath id="clip0_205_112">
<rect width="70" height="70" fill="white"/>
</clipPath>
</defs>
</svg>
