<svg width="60" height="54" viewBox="0 0 60 54" fill="none" xmlns="http://www.w3.org/2000/svg">
<path d="M13.3042 0C8.58806 0 4.1048 -2.16902e-07 1.04803 0.232896C0.669577 0.232896 0 0.465793 0 0.815138V51.8195C0 52.2562 0.203784 52.4017 0.582241 52.4017H7.83115C8.26783 52.4017 8.41339 52.198 8.41339 51.8195V33.5953H12.1106C22.853 33.5953 31.5866 28.4134 31.5866 16.361C31.5866 7.2198 26.4629 0 13.3042 0ZM12.3144 26.2009C11.0345 26.2738 9.75151 26.2738 8.47162 26.2009V7.68559C9.31587 7.68559 11.1208 7.54003 13.0131 7.54003C19.3304 7.54003 23.0859 10.5968 23.0859 16.623C23.0859 24.163 17.8457 26.2009 12.3144 26.2009ZM60 41.5721C60 49.1703 54.1776 53.2169 46.3173 53.2169C42.9491 53.3406 39.6016 52.6411 36.5648 51.179C36.2445 51.0335 36.1863 50.8006 36.1863 50.4221V43.377C36.1863 42.9112 36.4192 42.7656 36.7686 42.9985C39.6062 44.865 42.921 45.8756 46.3173 45.9098C50.1019 45.9098 51.6739 44.3377 51.6739 42.1834C51.6739 40.0291 50.5677 38.952 45.8515 36.361C39.0975 33.1295 36.2737 29.8399 36.2737 24.3668C36.2737 18.2242 41.0772 13.1295 49.4032 13.1295C52.3076 12.9973 55.2089 13.4528 57.933 14.4687C58.0873 14.5677 58.212 14.7065 58.294 14.8705C58.3759 15.0344 58.4122 15.2175 58.3988 15.4003V21.9214C58.3988 22.329 58.1659 22.5619 57.7001 22.4163C55.1445 20.9826 52.2444 20.2777 49.3159 20.3785C45.5604 20.3785 44.2795 22.2999 44.2795 23.8719C44.2795 25.444 45.1528 26.7831 50.1019 29.3741C57.671 32.9258 60 36.3901 60 41.4847V41.5721Z" fill="#8C8C8C"/>
</svg>
