<svg width="33" height="34" viewBox="0 0 33 34" fill="none" xmlns="http://www.w3.org/2000/svg">
<path d="M13.5 6.5C13.2033 6.5 12.9133 6.58797 12.6666 6.7528C12.42 6.91762 12.2277 7.15189 12.1142 7.42597C12.0006 7.70006 11.9709 8.00166 12.0288 8.29264C12.0867 8.58361 12.2296 8.85088 12.4393 9.06066C12.6491 9.27044 12.9164 9.4133 13.2074 9.47118C13.4983 9.52906 13.7999 9.49935 14.074 9.38582C14.3481 9.27229 14.5824 9.08003 14.7472 8.83335C14.912 8.58668 15 8.29667 15 8C15 7.60218 14.842 7.22064 14.5607 6.93934C14.2794 6.65804 13.8978 6.5 13.5 6.5ZM7.5 6.5C7.20333 6.5 6.91332 6.58797 6.66665 6.7528C6.41997 6.91762 6.22771 7.15189 6.11418 7.42597C6.00065 7.70006 5.97094 8.00166 6.02882 8.29264C6.0867 8.58361 6.22956 8.85088 6.43934 9.06066C6.64912 9.27044 6.91639 9.4133 7.20736 9.47118C7.49834 9.52906 7.79994 9.49935 8.07403 9.38582C8.34811 9.27229 8.58238 9.08003 8.7472 8.83335C8.91203 8.58668 9 8.29667 9 8C9 7.60218 8.84196 7.22064 8.56066 6.93934C8.27936 6.65804 7.89782 6.5 7.5 6.5ZM19.5 6.5C19.2033 6.5 18.9133 6.58797 18.6666 6.7528C18.42 6.91762 18.2277 7.15189 18.1142 7.42597C18.0007 7.70006 17.9709 8.00166 18.0288 8.29264C18.0867 8.58361 18.2296 8.85088 18.4393 9.06066C18.6491 9.27044 18.9164 9.4133 19.2074 9.47118C19.4983 9.52906 19.7999 9.49935 20.074 9.38582C20.3481 9.27229 20.5824 9.08003 20.7472 8.83335C20.912 8.58668 21 8.29667 21 8C21 7.60218 20.842 7.22064 20.5607 6.93934C20.2794 6.65804 19.8978 6.5 19.5 6.5ZM28.5 0.5H4.5C3.30653 0.5 2.16193 0.974106 1.31802 1.81802C0.474106 2.66193 0 3.80653 0 5V29C0 30.1935 0.474106 31.3381 1.31802 32.182C2.16193 33.0259 3.30653 33.5 4.5 33.5H28.5C29.6935 33.5 30.8381 33.0259 31.682 32.182C32.5259 31.3381 33 30.1935 33 29V5C33 3.80653 32.5259 2.66193 31.682 1.81802C30.8381 0.974106 29.6935 0.5 28.5 0.5ZM30 29C30 29.3978 29.842 29.7794 29.5607 30.0607C29.2794 30.342 28.8978 30.5 28.5 30.5H4.5C4.10218 30.5 3.72064 30.342 3.43934 30.0607C3.15804 29.7794 3 29.3978 3 29V15.5H30V29ZM30 12.5H3V5C3 4.60218 3.15804 4.22064 3.43934 3.93934C3.72064 3.65804 4.10218 3.5 4.5 3.5H28.5C28.8978 3.5 29.2794 3.65804 29.5607 3.93934C29.842 4.22064 30 4.60218 30 5V12.5Z" fill="white"/>
</svg>
