<svg width="20" height="21" viewBox="0 0 20 21" fill="none" xmlns="http://www.w3.org/2000/svg">
<path d="M13.8332 12.1667C13.6665 12.0833 12.5832 11.5833 12.4165 11.5C12.2498 11.4167 12.0832 11.4167 11.9165 11.5833C11.7498 11.75 11.4165 12.25 11.2498 12.4167C11.1665 12.5833 10.9998 12.5833 10.8332 12.5C10.2498 12.25 9.6665 11.9167 9.1665 11.5C8.74984 11.0833 8.33317 10.5833 7.99984 10.0833C7.9165 9.91667 7.99984 9.75 8.08317 9.66667C8.1665 9.58334 8.24984 9.41667 8.4165 9.33334C8.49984 9.25 8.58317 9.08334 8.58317 9C8.6665 8.91667 8.6665 8.75 8.58317 8.66667C8.49984 8.58334 8.08317 7.58334 7.9165 7.16667C7.83317 6.58334 7.6665 6.58334 7.49984 6.58334H7.08317C6.9165 6.58334 6.6665 6.75 6.58317 6.83334C6.08317 7.33334 5.83317 7.91667 5.83317 8.58334C5.9165 9.33334 6.1665 10.0833 6.6665 10.75C7.58317 12.0833 8.74984 13.1667 10.1665 13.8333C10.5832 14 10.9165 14.1667 11.3332 14.25C11.7498 14.4167 12.1665 14.4167 12.6665 14.3333C13.2498 14.25 13.7498 13.8333 14.0832 13.3333C14.2498 13 14.2498 12.6667 14.1665 12.3333L13.8332 12.1667ZM15.9165 4.58334C12.6665 1.33334 7.4165 1.33334 4.1665 4.58334C1.49984 7.25 0.999837 11.3333 2.83317 14.5833L1.6665 18.8333L6.08317 17.6667C7.33317 18.3333 8.6665 18.6667 9.99984 18.6667C14.5832 18.6667 18.2498 15 18.2498 10.4167C18.3332 8.25 17.4165 6.16667 15.9165 4.58334ZM13.6665 16.25C12.5832 16.9167 11.3332 17.3333 9.99984 17.3333C8.74984 17.3333 7.58317 17 6.49984 16.4167L6.24984 16.25L3.6665 16.9167L4.33317 14.4167L4.1665 14.1667C2.1665 10.8333 3.1665 6.66667 6.4165 4.58334C9.6665 2.5 13.8332 3.58334 15.8332 6.75C17.8332 10 16.9165 14.25 13.6665 16.25Z" fill="white"/>
</svg>
