<svg width="50" height="50" viewBox="0 0 50 50" fill="none" xmlns="http://www.w3.org/2000/svg">
<rect width="50" height="50" rx="25" fill="url(#paint0_linear_126_835)"/>
<path d="M30.3374 27.3115C30.1077 27.1966 28.6146 26.5075 28.3848 26.3926C28.1551 26.2778 27.9254 26.2778 27.6957 26.5075C27.466 26.7372 27.0066 27.4263 26.7768 27.6561C26.662 27.8858 26.4323 27.8858 26.2026 27.7709C25.3986 27.4263 24.5946 26.9669 23.9054 26.3926C23.3312 25.8184 22.7569 25.1292 22.2974 24.4401C22.1826 24.2104 22.2974 23.9806 22.4123 23.8658C22.5272 23.7509 22.642 23.5212 22.8717 23.4064C22.9866 23.2915 23.1014 23.0618 23.1014 22.9469C23.2163 22.8321 23.2163 22.6024 23.1014 22.4875C22.9866 22.3727 22.4123 20.9944 22.1826 20.4201C22.0677 19.6161 21.838 19.6161 21.6083 19.6161H21.034C20.8043 19.6161 20.4597 19.8458 20.3449 19.9607C19.6558 20.6498 19.3112 21.4538 19.3112 22.3727C19.426 23.4064 19.7706 24.4401 20.4597 25.3589C21.7232 27.1966 23.3312 28.6898 25.2837 29.6086C25.858 29.8383 26.3174 30.068 26.8917 30.1829C27.466 30.4126 28.0403 30.4126 28.7294 30.2978C29.5334 30.1829 30.2225 29.6086 30.682 28.9195C30.9117 28.46 30.9117 28.0006 30.7968 27.5412L30.3374 27.3115ZM33.2088 16.8596C28.7294 12.3801 21.4935 12.3801 17.0141 16.8596C13.3386 20.535 12.6495 26.1629 15.1763 30.6423L13.5684 36.5L19.6558 34.892C21.3786 35.8109 23.2163 36.2703 25.054 36.2703C31.3711 36.2703 36.4248 31.2166 36.4248 24.8995C36.5396 21.9132 35.2762 19.0418 33.2088 16.8596ZM30.1077 32.9395C28.6146 33.8583 26.8917 34.4326 25.054 34.4326C23.3312 34.4326 21.7232 33.9732 20.23 33.1692L19.8855 32.9395L16.3249 33.8583L17.2438 30.4126L17.0141 30.068C14.2575 25.4738 15.6358 19.731 20.1152 16.8596C24.5946 13.9881 30.3374 15.4813 33.094 19.8458C35.8505 24.3252 34.5871 30.1829 30.1077 32.9395Z" fill="white"/>
<defs>
<linearGradient id="paint0_linear_126_835" x1="3.5" y1="13" x2="25" y2="50" gradientUnits="userSpaceOnUse">
<stop stop-color="#4AD66D"/>
<stop offset="1" stop-color="#277039"/>
</linearGradient>
</defs>
</svg>
